M48
;Layer_Color=9474304
;FILE_FORMAT=2:4
INCH,LZ
;TYPE=PLATED
T01F00S00C0.0100
T02F00S00C0.0150
T03F00S00C0.0236
T04F00S00C0.0280
T05F00S00C0.0310
T06F00S00C0.0315
T07F00S00C0.0340
T08F00S00C0.0354
T09F00S00C0.0433
T10F00S00C0.0512
T11F00S00C0.0551
T12F00S00C0.0591
T14F00S00C0.1000
%
T01
X07674Y04233
X07721Y04232
X07843Y04083
X08882Y04332
X08934Y04392
X08913Y04606
X10228Y04545
X10223Y04497
X1032Y04515
X10323Y04076
X1023Y04109
X1022Y0405
X10222Y0363
X1022Y03578
X10327Y03626
X10326Y04978
X10208Y05005
X10205Y04934
X10213Y05398
Y05469
X10356Y05455
X10358Y05934
X10215Y05945
X10214Y05881
X09516Y05532
X09529Y05353
X09544Y0527
X09672Y05304
X09451Y05383
X0927Y0529
X09108Y05262
X09059Y05359
X08979Y05384
X09034Y05535
X0857Y05534
Y05364
X08515Y05387
X08376Y0527
X08159Y05271
X08094Y05364
X08025Y05392
X08084Y05536
X07848Y05309
X08714Y05096
X08888Y05103
X07655Y05269
X07584Y05352
X07524Y05391
X07602Y0553
X07352Y05324
X07187Y0527
X07137Y05363
X07064Y05378
X06951Y05307
X06724Y05235
X06637Y05311
X06571Y05335
X06458Y05265
X06619Y05491
X07118Y05535
X06138Y05489
X06112Y05328
X06166Y05283
X06244Y05241
X10215Y06352
X10213Y0642
X10359Y06402
X10325Y06837
T02
X08271Y01979
X07825Y02621
X07788Y02401
X07676Y02491
X07738Y02244
X07475Y02151
X07339Y02042
X07725Y02954
X07719Y04037
X08467Y03645
X08626Y03646
T03
X08153Y02299
Y02399
Y02499
Y02599
Y02699
Y02799
Y02899
Y02999
Y03099
X07153
Y02999
Y02899
Y02799
Y02699
Y02599
Y02499
Y02399
Y02299
Y03199
Y03299
Y03399
Y03499
Y03599
Y03699
X08153
Y03599
Y03499
Y03399
Y03299
Y03199
T04
X09534Y01994
X07657Y03681
X07711Y03895
X05781Y049
T05
X05303Y02691
X05298Y0289
X05698
X05703Y02691
X07896Y04254
Y04354
Y04454
Y04554
Y04654
X08196
Y04554
Y04454
Y04354
Y04254
X09075Y044425
X09175
X09275
X09375
X09475
X09575
X09675
X09775
X10101Y043111
Y042111
X10401
Y043111
Y046511
X10101
Y038661
Y037661
X10401
Y038661
Y033961
Y032961
X10101
Y033961
Y047511
X10401
Y051341
Y052341
X10101
Y051341
X09778Y051745
X09678
Y054745
X09778
X10101Y056161
Y057161
X10401
Y056161
Y060601
Y061601
X10101
Y060601
X09775Y047425
X09675
X09575
X09475
X09375
X09275
X09175
X09075
X09202Y051745
X09302
Y054745
X09202
X088364
X087364
Y051745
X088364
X08401
X08301
Y054745
X08401
X07867
Y051745
X07896Y04954
Y04854
Y04754
X08196
Y04854
Y04954
X07767Y051745
Y054745
X07391
X07291
Y051745
X07391
X06916
X06816
Y054745
X06916
X06444
X06344
Y051745
X06444
X10101Y065361
Y066361
X10401
Y065361
T06
X05819Y02073
Y02173
Y02273
Y02373
X0618Y02376
Y02276
Y02176
Y02076
X10658Y033211
Y034211
X10655Y037761
Y038761
X10658Y042361
Y043361
Y046561
Y047561
X10651Y051361
Y052361
Y05662
Y05762
Y061161
Y062161
X09759Y05687
X09659
X09281Y05688
X09181
X08827Y056875
X08727
X08361Y05688
X08261
X07821Y056875
X07721
X07378Y05676
X07278
X06898Y05686
X06798
X06419Y05687
X06319
X10651Y066211
Y067211
T07
X06564Y02192
X06669
X06769
T08
X09663Y02108
Y02208
Y02308
Y02408
Y02508
Y02608
X10528Y02508
Y02408
Y02308
Y02208
Y02108
Y02008
T09
X08437Y0394
Y0404
X08537
X08637
X08737
Y0394
X08637
X08537
X08837
Y0404
T10
X05218Y031175
X05923Y031125
Y047325
X05218
T11
X10996Y032511
Y035511
Y036961
Y039961
Y041411
Y044411
Y045911
X11396
X11696
X11905Y045785
Y043785
Y041785
Y039785
Y037785
Y035785
Y033785
X11696Y032511
X11396
Y036961
X11696
Y041411
X11396
Y051061
X11696
X11905Y05213
Y05413
Y05613
Y05813
Y06013
Y06213
X11696Y060361
X11396
X10996
Y058711
Y055711
Y054061
Y051061
Y048911
X11905Y047785
X11696Y055711
X11396
X09824Y060335
X09524
X09363Y060275
X09063
X08901Y060285
X08601
X08439Y060375
X08139
X07927Y060075
X07627
X0745Y060105
X0715
X06979Y060125
X06679
X06519Y060215
X06219
X06519Y064215
Y067215
X06569Y06905
X06769
X06969
X07169
X07369
X07569
X07769
X0745Y067105
Y064105
X06979Y064125
Y067125
X06369Y06905
X07927Y067075
Y064075
X08439Y064375
Y067375
X08489Y06905
X08689
X08889
X08901Y067285
Y064285
X09363Y064275
Y067275
X09289Y06905
X09089
X08289
X09489
X09689
X09824Y067335
Y064335
X10996Y064961
Y063361
Y067961
X11396Y064961
X11696
X11905Y06413
Y06613
T12
X06533Y02701
X06689
X068449
X06583Y030781
Y03234
Y033899
Y035458
Y037017
Y038576
Y040135
T14
X10694Y03013
X06074Y06706
X11823Y06901
M30
