G04*
G04 #@! TF.GenerationSoftware,Altium Limited,Altium Designer,24.4.1 (13)*
G04*
G04 Layer_Color=65535*
%FSLAX25Y25*%
%MOIN*%
G70*
G04*
G04 #@! TF.SameCoordinates,D772E85F-A2A7-474A-8196-155AA2CDE767*
G04*
G04*
G04 #@! TF.FilePolarity,Positive*
G04*
G01*
G75*
%ADD10C,0.00787*%
%ADD11C,0.00800*%
%ADD12C,0.00700*%
%ADD13C,0.01500*%
%ADD14C,0.01000*%
%ADD15C,0.00472*%
%ADD16C,0.00500*%
%ADD17C,0.02500*%
%ADD18C,0.00039*%
%ADD19R,0.32400X0.20400*%
%ADD20R,0.67500X0.61200*%
%ADD21R,0.04100X0.07900*%
G36*
X204400Y249503D02*
X201419D01*
Y249980D01*
X201479D01*
Y250219D01*
X201539D01*
Y250397D01*
X201598D01*
Y250576D01*
X201658D01*
Y250695D01*
X201718D01*
Y250755D01*
X201777D01*
Y250874D01*
X201837D01*
Y250934D01*
X201896D01*
Y251053D01*
X201956D01*
Y251113D01*
X202016D01*
Y251172D01*
X202075D01*
Y251232D01*
X202135D01*
Y251292D01*
X202194D01*
Y251351D01*
X202254D01*
Y251411D01*
X202314D01*
Y251470D01*
X202433D01*
Y251530D01*
X202492D01*
Y251590D01*
X202612D01*
Y251649D01*
X202671D01*
Y251709D01*
X202850D01*
Y251768D01*
X202969D01*
Y251828D01*
X203148D01*
Y251888D01*
X203387D01*
Y251947D01*
X204400D01*
Y249503D01*
D02*
G37*
G36*
X179722D02*
X176741D01*
Y249861D01*
X176801D01*
Y250159D01*
X176860D01*
Y250338D01*
X176920D01*
Y250457D01*
X176980D01*
Y250636D01*
X177039D01*
Y250695D01*
X177099D01*
Y250815D01*
X177158D01*
Y250934D01*
X177218D01*
Y250993D01*
X177278D01*
Y251053D01*
X177337D01*
Y251113D01*
X177397D01*
Y251232D01*
X177457D01*
Y251292D01*
X177576D01*
Y251351D01*
X177635D01*
Y251411D01*
X177695D01*
Y251470D01*
X177755D01*
Y251530D01*
X177874D01*
Y251590D01*
X177933D01*
Y251649D01*
X178053D01*
Y251709D01*
X178172D01*
Y251768D01*
X178291D01*
Y251828D01*
X178470D01*
Y251888D01*
X178768D01*
Y251947D01*
X179722D01*
Y249503D01*
D02*
G37*
G36*
X176324Y255762D02*
X176801D01*
Y255703D01*
X177158D01*
Y255643D01*
X177457D01*
Y255583D01*
X177695D01*
Y255524D01*
X177874D01*
Y255464D01*
X178053D01*
Y255405D01*
X178232D01*
Y255345D01*
X178351D01*
Y255285D01*
X176920D01*
Y255226D01*
X176503D01*
Y255166D01*
X176264D01*
Y255107D01*
X176026D01*
Y255047D01*
X175847D01*
Y254987D01*
X175609D01*
Y254928D01*
X175489D01*
Y254868D01*
X175370D01*
Y254808D01*
X175191D01*
Y254749D01*
X175072D01*
Y254689D01*
X175013D01*
Y254630D01*
X174893D01*
Y254570D01*
X174774D01*
Y254510D01*
X174655D01*
Y254451D01*
X174595D01*
Y254391D01*
X174476D01*
Y254332D01*
X174416D01*
Y254272D01*
X174357D01*
Y254212D01*
X174238D01*
Y254153D01*
X174178D01*
Y254093D01*
X174118D01*
Y254034D01*
X174059D01*
Y253974D01*
X173999D01*
Y253914D01*
X173880D01*
Y253855D01*
X173820D01*
Y253795D01*
X173761D01*
Y253736D01*
X173701D01*
Y253676D01*
X173642D01*
Y253616D01*
X173582D01*
Y253557D01*
X173522D01*
Y253497D01*
X173463D01*
Y253437D01*
X173403D01*
Y253378D01*
X173344D01*
Y253259D01*
X173284D01*
Y253199D01*
X173224D01*
Y253139D01*
X173165D01*
Y253080D01*
X173105D01*
Y253020D01*
X173046D01*
Y252901D01*
X172986D01*
Y252841D01*
X172926D01*
Y252782D01*
X172867D01*
Y252663D01*
X172807D01*
Y252603D01*
X172747D01*
Y252543D01*
X172688D01*
Y252424D01*
X172628D01*
Y252364D01*
X172569D01*
Y252305D01*
X172509D01*
Y252186D01*
X172449D01*
Y252126D01*
X172390D01*
Y252066D01*
X172330D01*
Y251947D01*
X172271D01*
Y251888D01*
X172211D01*
Y251828D01*
X172151D01*
Y251709D01*
X172092D01*
Y251649D01*
X172032D01*
Y251590D01*
X171973D01*
Y251530D01*
X171913D01*
Y251411D01*
X171853D01*
Y251351D01*
X171794D01*
Y251292D01*
X171734D01*
Y251232D01*
X171675D01*
Y251113D01*
X171615D01*
Y251053D01*
X171555D01*
Y250993D01*
X171496D01*
Y250934D01*
X171436D01*
Y250815D01*
X171376D01*
Y250755D01*
X171317D01*
Y250695D01*
X171257D01*
Y250636D01*
X171198D01*
Y250576D01*
X171138D01*
Y250457D01*
X171078D01*
Y250397D01*
X171019D01*
Y250338D01*
X170959D01*
Y250278D01*
X170899D01*
Y250219D01*
X170840D01*
Y250159D01*
X170780D01*
Y250099D01*
X170721D01*
Y249980D01*
X170661D01*
Y249921D01*
X170601D01*
Y249861D01*
X170542D01*
Y249801D01*
X170482D01*
Y249742D01*
X170423D01*
Y249682D01*
X170363D01*
Y249623D01*
X170303D01*
Y249563D01*
X170244D01*
Y249503D01*
X170184D01*
Y249444D01*
X170125D01*
Y249384D01*
X170065D01*
Y249324D01*
X170005D01*
Y249265D01*
X169946D01*
Y249205D01*
X169886D01*
Y249146D01*
X169827D01*
Y249086D01*
X169767D01*
Y249026D01*
X169707D01*
Y248967D01*
X169648D01*
Y248907D01*
X169588D01*
Y248848D01*
X169528D01*
Y248788D01*
X169469D01*
Y248728D01*
X169409D01*
Y248669D01*
X169350D01*
Y248609D01*
X169290D01*
Y248550D01*
X169230D01*
Y248490D01*
X169171D01*
Y248430D01*
X169111D01*
Y248371D01*
X168992D01*
Y248311D01*
X168932D01*
Y248252D01*
X168873D01*
Y248192D01*
X168813D01*
Y248132D01*
X168754D01*
Y248073D01*
X168634D01*
Y248013D01*
X168575D01*
Y247953D01*
X168515D01*
Y247894D01*
X168396D01*
Y247834D01*
X168336D01*
Y247775D01*
X168217D01*
Y247715D01*
X168157D01*
Y247655D01*
X168098D01*
Y247596D01*
X167979D01*
Y247536D01*
X167859D01*
Y247477D01*
X167800D01*
Y247417D01*
X167681D01*
Y247357D01*
X167561D01*
Y247298D01*
X167442D01*
Y247238D01*
X167263D01*
Y247179D01*
X167085D01*
Y247119D01*
X166906D01*
Y247059D01*
X166727D01*
Y247119D01*
X166787D01*
Y247179D01*
X166906D01*
Y247238D01*
X167025D01*
Y247298D01*
X167085D01*
Y247357D01*
X167204D01*
Y247417D01*
X167263D01*
Y247477D01*
X167323D01*
Y247536D01*
X167442D01*
Y247596D01*
X167502D01*
Y247655D01*
X167561D01*
Y247715D01*
X167621D01*
Y247775D01*
X167681D01*
Y247834D01*
X167740D01*
Y247894D01*
X167800D01*
Y247953D01*
X167859D01*
Y248013D01*
X167919D01*
Y248073D01*
X167979D01*
Y248132D01*
X168038D01*
Y248192D01*
X168098D01*
Y248252D01*
X168157D01*
Y248311D01*
X168217D01*
Y248371D01*
X168277D01*
Y248430D01*
X168336D01*
Y248490D01*
X168396D01*
Y248550D01*
X168456D01*
Y248669D01*
X168515D01*
Y248728D01*
X168575D01*
Y248788D01*
X168634D01*
Y248848D01*
X168694D01*
Y248907D01*
X168754D01*
Y249026D01*
X168813D01*
Y249086D01*
X168873D01*
Y249146D01*
X168932D01*
Y249265D01*
X168992D01*
Y249324D01*
X169052D01*
Y249384D01*
X169111D01*
Y249503D01*
X169171D01*
Y249563D01*
X169230D01*
Y249623D01*
X169290D01*
Y249742D01*
X169350D01*
Y249801D01*
X169409D01*
Y249921D01*
X169469D01*
Y249980D01*
X169528D01*
Y250099D01*
X169588D01*
Y250159D01*
X169648D01*
Y250278D01*
X169707D01*
Y250338D01*
X169767D01*
Y250457D01*
X169827D01*
Y250517D01*
X169886D01*
Y250636D01*
X169946D01*
Y250695D01*
X170005D01*
Y250815D01*
X170065D01*
Y250874D01*
X170125D01*
Y250993D01*
X170184D01*
Y251113D01*
X170244D01*
Y251172D01*
X170303D01*
Y251292D01*
X170363D01*
Y251351D01*
X170423D01*
Y251470D01*
X170482D01*
Y251590D01*
X170542D01*
Y251649D01*
X170601D01*
Y251768D01*
X170661D01*
Y251888D01*
X170721D01*
Y251947D01*
X170780D01*
Y252066D01*
X170840D01*
Y252186D01*
X170899D01*
Y252245D01*
X170959D01*
Y252364D01*
X171019D01*
Y252484D01*
X171078D01*
Y252543D01*
X171138D01*
Y252663D01*
X171198D01*
Y252782D01*
X171257D01*
Y252901D01*
X171317D01*
Y252961D01*
X171376D01*
Y253080D01*
X171436D01*
Y253139D01*
X171496D01*
Y253259D01*
X171555D01*
Y253378D01*
X171615D01*
Y253437D01*
X171675D01*
Y253497D01*
X171734D01*
Y253616D01*
X171794D01*
Y253676D01*
X171853D01*
Y253736D01*
X171913D01*
Y253855D01*
X171973D01*
Y253914D01*
X172032D01*
Y253974D01*
X172092D01*
Y254034D01*
X172151D01*
Y254093D01*
X172211D01*
Y254153D01*
X172271D01*
Y254212D01*
X172330D01*
Y254272D01*
X172390D01*
Y254332D01*
X172449D01*
Y254391D01*
X172509D01*
Y254451D01*
X172569D01*
Y254510D01*
X172628D01*
Y254570D01*
X172688D01*
Y254630D01*
X172747D01*
Y254689D01*
X172807D01*
Y254749D01*
X172867D01*
Y254808D01*
X172986D01*
Y254868D01*
X173046D01*
Y254928D01*
X173165D01*
Y254987D01*
X173224D01*
Y255047D01*
X173344D01*
Y255107D01*
X173403D01*
Y255166D01*
X173522D01*
Y255226D01*
X173642D01*
Y255285D01*
X173761D01*
Y255345D01*
X173880D01*
Y255405D01*
X174059D01*
Y255464D01*
X174178D01*
Y255524D01*
X174357D01*
Y255583D01*
X174536D01*
Y255643D01*
X174774D01*
Y255703D01*
X175132D01*
Y255762D01*
X175609D01*
Y255822D01*
X176324D01*
Y255762D01*
D02*
G37*
G36*
X229138Y239131D02*
X226098D01*
Y252186D01*
X226157D01*
Y252603D01*
X226217D01*
Y252841D01*
X226277D01*
Y253020D01*
X226336D01*
Y253199D01*
X226396D01*
Y253318D01*
X226455D01*
Y253437D01*
X226515D01*
Y253557D01*
X226575D01*
Y253616D01*
X226634D01*
Y253736D01*
X226694D01*
Y253795D01*
X226753D01*
Y253855D01*
X226813D01*
Y253974D01*
X226873D01*
Y254034D01*
X226932D01*
Y254093D01*
X226992D01*
Y254153D01*
X227052D01*
Y254212D01*
X227111D01*
Y254272D01*
X227230D01*
Y254332D01*
X227290D01*
Y254391D01*
X227350D01*
Y254451D01*
X227469D01*
Y254510D01*
X227528D01*
Y254570D01*
X227648D01*
Y254630D01*
X227767D01*
Y254689D01*
X227886D01*
Y254749D01*
X228005D01*
Y254808D01*
X228184D01*
Y254868D01*
X228363D01*
Y254928D01*
X228661D01*
Y254987D01*
X229138D01*
Y239131D01*
D02*
G37*
G36*
X221091Y248669D02*
X221627D01*
Y248609D01*
X221985D01*
Y248550D01*
X222223D01*
Y248490D01*
X222462D01*
Y248430D01*
X222581D01*
Y248371D01*
X222760D01*
Y248311D01*
X222879D01*
Y248252D01*
X223058D01*
Y248192D01*
X223177D01*
Y248132D01*
X223237D01*
Y248073D01*
X223356D01*
Y248013D01*
X223475D01*
Y247953D01*
X223535D01*
Y247894D01*
X223654D01*
Y247834D01*
X223713D01*
Y247775D01*
X223773D01*
Y247715D01*
X223833D01*
Y247655D01*
X223892D01*
Y247596D01*
X223952D01*
Y247536D01*
X224011D01*
Y247477D01*
X224071D01*
Y247417D01*
X224131D01*
Y247357D01*
X224190D01*
Y247298D01*
X224250D01*
Y247179D01*
X224309D01*
Y247119D01*
X224369D01*
Y247000D01*
X224429D01*
Y246940D01*
X224488D01*
Y246821D01*
X224548D01*
Y246702D01*
X224608D01*
Y246582D01*
X224667D01*
Y246404D01*
X224727D01*
Y246284D01*
X224786D01*
Y246046D01*
X224846D01*
Y245808D01*
X224906D01*
Y245510D01*
X224965D01*
Y244973D01*
X225025D01*
Y244198D01*
X225084D01*
Y242946D01*
X225025D01*
Y242827D01*
X219004D01*
Y242767D01*
X219064D01*
Y242648D01*
X219124D01*
Y242529D01*
X219183D01*
Y242410D01*
X219243D01*
Y242290D01*
X219302D01*
Y242231D01*
X219362D01*
Y242112D01*
X219422D01*
Y242052D01*
X219481D01*
Y241992D01*
X219541D01*
Y241933D01*
X219600D01*
Y241873D01*
X219660D01*
Y241814D01*
X219779D01*
Y241754D01*
X219898D01*
Y241694D01*
X220077D01*
Y241635D01*
X220375D01*
Y241575D01*
X220912D01*
Y241516D01*
X224906D01*
Y241456D01*
X224846D01*
Y241337D01*
X224786D01*
Y241218D01*
X224727D01*
Y241098D01*
X224667D01*
Y240979D01*
X224608D01*
Y240919D01*
X224548D01*
Y240800D01*
X224488D01*
Y240681D01*
X224429D01*
Y240562D01*
X224369D01*
Y240443D01*
X224309D01*
Y240383D01*
X224250D01*
Y240264D01*
X224190D01*
Y240145D01*
X224131D01*
Y240025D01*
X224071D01*
Y239906D01*
X224011D01*
Y239787D01*
X223952D01*
Y239727D01*
X223892D01*
Y239608D01*
X223833D01*
Y239489D01*
X223773D01*
Y239370D01*
X223713D01*
Y239250D01*
X223654D01*
Y239131D01*
X219183D01*
Y239191D01*
X218706D01*
Y239250D01*
X218468D01*
Y239310D01*
X218229D01*
Y239370D01*
X218051D01*
Y239429D01*
X217931D01*
Y239489D01*
X217812D01*
Y239548D01*
X217753D01*
Y239608D01*
X217633D01*
Y239668D01*
X217514D01*
Y239727D01*
X217454D01*
Y239787D01*
X217395D01*
Y239847D01*
X217335D01*
Y239906D01*
X217216D01*
Y239966D01*
X217156D01*
Y240025D01*
X217097D01*
Y240085D01*
X217037D01*
Y240145D01*
X216978D01*
Y240264D01*
X216918D01*
Y240323D01*
X216858D01*
Y240383D01*
X216799D01*
Y240502D01*
X216739D01*
Y240562D01*
X216680D01*
Y240681D01*
X216620D01*
Y240800D01*
X216560D01*
Y240919D01*
X216501D01*
Y241039D01*
X216441D01*
Y241158D01*
X216382D01*
Y241277D01*
X216322D01*
Y241456D01*
X216262D01*
Y241635D01*
X216203D01*
Y241873D01*
X216143D01*
Y242112D01*
X216083D01*
Y242469D01*
X216024D01*
Y242887D01*
X215964D01*
Y245152D01*
X216024D01*
Y245450D01*
X216083D01*
Y245688D01*
X216143D01*
Y245927D01*
X216203D01*
Y246106D01*
X216262D01*
Y246225D01*
X216322D01*
Y246404D01*
X216382D01*
Y246523D01*
X216441D01*
Y246642D01*
X216501D01*
Y246761D01*
X216560D01*
Y246881D01*
X216620D01*
Y246940D01*
X216680D01*
Y247059D01*
X216739D01*
Y247119D01*
X216799D01*
Y247238D01*
X216858D01*
Y247298D01*
X216918D01*
Y247357D01*
X216978D01*
Y247417D01*
X217037D01*
Y247477D01*
X217097D01*
Y247536D01*
X217156D01*
Y247596D01*
X217216D01*
Y247655D01*
X217276D01*
Y247715D01*
X217335D01*
Y247775D01*
X217454D01*
Y247834D01*
X217514D01*
Y247894D01*
X217633D01*
Y247953D01*
X217693D01*
Y248013D01*
X217812D01*
Y248073D01*
X217872D01*
Y248132D01*
X217991D01*
Y248192D01*
X218110D01*
Y248252D01*
X218229D01*
Y248311D01*
X218408D01*
Y248371D01*
X218527D01*
Y248430D01*
X218706D01*
Y248490D01*
X218885D01*
Y248550D01*
X219124D01*
Y248609D01*
X219362D01*
Y248669D01*
X219958D01*
Y248728D01*
X221091D01*
Y248669D01*
D02*
G37*
G36*
X210480Y248609D02*
X211613D01*
Y248550D01*
X212149D01*
Y248490D01*
X212507D01*
Y248430D01*
X212805D01*
Y248371D01*
X213043D01*
Y248311D01*
X213222D01*
Y248252D01*
X213341D01*
Y248192D01*
X213461D01*
Y248132D01*
X213580D01*
Y248073D01*
X213699D01*
Y248013D01*
X213759D01*
Y247953D01*
X213818D01*
Y247894D01*
X213937D01*
Y247834D01*
X213997D01*
Y247775D01*
X214057D01*
Y247715D01*
X214116D01*
Y247655D01*
X214176D01*
Y247536D01*
X214236D01*
Y247477D01*
X214295D01*
Y247417D01*
X214355D01*
Y247298D01*
X214414D01*
Y247179D01*
X214474D01*
Y247059D01*
X214534D01*
Y247000D01*
X214593D01*
Y246881D01*
X214653D01*
Y246761D01*
X214712D01*
Y246582D01*
X214772D01*
Y246463D01*
X214832D01*
Y246284D01*
X214891D01*
Y246106D01*
X214951D01*
Y245927D01*
X215010D01*
Y245629D01*
X215070D01*
Y245211D01*
X215130D01*
Y244377D01*
X215189D01*
Y243423D01*
X215130D01*
Y242589D01*
X215070D01*
Y242231D01*
X215010D01*
Y241933D01*
X214951D01*
Y241694D01*
X214891D01*
Y241516D01*
X214832D01*
Y241337D01*
X214772D01*
Y241218D01*
X214712D01*
Y241039D01*
X214653D01*
Y240919D01*
X214593D01*
Y240800D01*
X214534D01*
Y240681D01*
X214474D01*
Y240562D01*
X214414D01*
Y240502D01*
X214355D01*
Y240383D01*
X214295D01*
Y240264D01*
X214236D01*
Y240204D01*
X214176D01*
Y240145D01*
X214116D01*
Y240085D01*
X214057D01*
Y240025D01*
X213997D01*
Y239966D01*
X213937D01*
Y239906D01*
X213878D01*
Y239847D01*
X213818D01*
Y239787D01*
X213759D01*
Y239727D01*
X213639D01*
Y239668D01*
X213580D01*
Y239608D01*
X213461D01*
Y239548D01*
X213341D01*
Y239489D01*
X213163D01*
Y239429D01*
X212984D01*
Y239370D01*
X212805D01*
Y239310D01*
X212507D01*
Y239250D01*
X212209D01*
Y239191D01*
X211672D01*
Y239131D01*
X210063D01*
Y239191D01*
X210003D01*
Y239310D01*
X209944D01*
Y239370D01*
X209884D01*
Y239489D01*
X209824D01*
Y239608D01*
X209765D01*
Y239668D01*
X209705D01*
Y239787D01*
X209646D01*
Y239847D01*
X209586D01*
Y239966D01*
X209526D01*
Y240085D01*
X209467D01*
Y240145D01*
X209407D01*
Y240264D01*
X209348D01*
Y240383D01*
X209288D01*
Y240443D01*
X209228D01*
Y240562D01*
X209169D01*
Y240621D01*
X209109D01*
Y240741D01*
X209050D01*
Y240860D01*
X208990D01*
Y240919D01*
X208930D01*
Y241039D01*
X208871D01*
Y241098D01*
X208811D01*
Y238476D01*
Y238416D01*
Y235436D01*
X205831D01*
Y248669D01*
X210480D01*
Y248609D01*
D02*
G37*
G36*
X204400Y239131D02*
X201360D01*
Y246463D01*
X201419D01*
Y246761D01*
X201479D01*
Y247000D01*
X201539D01*
Y247119D01*
X201598D01*
Y247238D01*
X201658D01*
Y247357D01*
X201718D01*
Y247477D01*
X201777D01*
Y247596D01*
X201837D01*
Y247655D01*
X201896D01*
Y247715D01*
X201956D01*
Y247775D01*
X202016D01*
Y247894D01*
X202075D01*
Y247953D01*
X202194D01*
Y248013D01*
X202254D01*
Y248073D01*
X202314D01*
Y248132D01*
X202373D01*
Y248192D01*
X202492D01*
Y248252D01*
X202552D01*
Y248311D01*
X202671D01*
Y248371D01*
X202791D01*
Y248430D01*
X202910D01*
Y248490D01*
X203089D01*
Y248550D01*
X203267D01*
Y248609D01*
X203685D01*
Y248669D01*
X204400D01*
Y239131D01*
D02*
G37*
G36*
X194028Y252126D02*
Y252066D01*
Y246821D01*
X194088D01*
Y246881D01*
X194147D01*
Y246940D01*
X194207D01*
Y247059D01*
X194266D01*
Y247119D01*
X194326D01*
Y247179D01*
X194386D01*
Y247298D01*
X194445D01*
Y247357D01*
X194505D01*
Y247417D01*
X194564D01*
Y247477D01*
X194624D01*
Y247596D01*
X194684D01*
Y247655D01*
X194743D01*
Y247715D01*
X194803D01*
Y247775D01*
X194862D01*
Y247894D01*
X194922D01*
Y247953D01*
X194982D01*
Y248013D01*
X195041D01*
Y248132D01*
X195101D01*
Y248192D01*
X195160D01*
Y248252D01*
X195220D01*
Y248311D01*
X195280D01*
Y248430D01*
X195339D01*
Y248490D01*
X195399D01*
Y248550D01*
X195459D01*
Y248609D01*
X195518D01*
Y248669D01*
X197008D01*
Y248609D01*
X197903D01*
Y248550D01*
X198320D01*
Y248490D01*
X198558D01*
Y248430D01*
X198737D01*
Y248371D01*
X198916D01*
Y248311D01*
X198976D01*
Y248252D01*
X199095D01*
Y248192D01*
X199214D01*
Y248132D01*
X199274D01*
Y248073D01*
X199333D01*
Y248013D01*
X199393D01*
Y247953D01*
X199512D01*
Y247894D01*
X199572D01*
Y247834D01*
X199631D01*
Y247775D01*
X199691D01*
Y247655D01*
X199750D01*
Y247596D01*
X199810D01*
Y247536D01*
X199870D01*
Y247417D01*
X199929D01*
Y247298D01*
X199989D01*
Y247179D01*
X200048D01*
Y247000D01*
X200108D01*
Y246761D01*
X200168D01*
Y246046D01*
X200227D01*
Y239131D01*
X197187D01*
Y244973D01*
X197128D01*
Y245271D01*
X197068D01*
Y245450D01*
X197008D01*
Y245569D01*
X196949D01*
Y245688D01*
X196889D01*
Y245808D01*
X196830D01*
Y245867D01*
X196710D01*
Y245927D01*
X196651D01*
Y245986D01*
X196532D01*
Y246046D01*
X196353D01*
Y246106D01*
X196114D01*
Y246165D01*
X194028D01*
Y239131D01*
X191048D01*
Y252543D01*
X191107D01*
Y252782D01*
X191167D01*
Y253020D01*
X191226D01*
Y253139D01*
X191286D01*
Y253259D01*
X191346D01*
Y253378D01*
X191405D01*
Y253497D01*
X191465D01*
Y253616D01*
X191524D01*
Y253676D01*
X191584D01*
Y253795D01*
X191644D01*
Y253855D01*
X191703D01*
Y253914D01*
X191763D01*
Y253974D01*
X191822D01*
Y254034D01*
X191882D01*
Y254093D01*
X191942D01*
Y254153D01*
X192001D01*
Y254212D01*
X192061D01*
Y254272D01*
X192121D01*
Y254332D01*
X192180D01*
Y254391D01*
X192240D01*
Y254451D01*
X192359D01*
Y254510D01*
X192419D01*
Y254570D01*
X192538D01*
Y254630D01*
X192657D01*
Y254689D01*
X192776D01*
Y254749D01*
X192895D01*
Y254808D01*
X193074D01*
Y254868D01*
X193253D01*
Y254928D01*
X193551D01*
Y254987D01*
X194028D01*
Y252126D01*
D02*
G37*
G36*
X189974Y248550D02*
X189915D01*
Y248430D01*
X189855D01*
Y248311D01*
X189796D01*
Y248192D01*
X189736D01*
Y248132D01*
X189676D01*
Y248013D01*
X189617D01*
Y247894D01*
X189557D01*
Y247775D01*
X189498D01*
Y247715D01*
X189438D01*
Y247596D01*
X189378D01*
Y247477D01*
X189319D01*
Y247357D01*
X189259D01*
Y247238D01*
X189200D01*
Y247179D01*
X189140D01*
Y247059D01*
X189080D01*
Y246940D01*
X189021D01*
Y246821D01*
X188961D01*
Y246761D01*
X188902D01*
Y246642D01*
X188842D01*
Y246523D01*
X188782D01*
Y246404D01*
X188723D01*
Y246344D01*
X188663D01*
Y246225D01*
X188603D01*
Y246165D01*
X184133D01*
Y246106D01*
X184014D01*
Y246046D01*
X183894D01*
Y245986D01*
X183835D01*
Y245867D01*
X183775D01*
Y245450D01*
X183835D01*
Y245390D01*
X183894D01*
Y245331D01*
X184014D01*
Y245271D01*
X184252D01*
Y245211D01*
X187232D01*
Y245152D01*
X187590D01*
Y245092D01*
X187888D01*
Y245033D01*
X188067D01*
Y244973D01*
X188246D01*
Y244913D01*
X188425D01*
Y244854D01*
X188544D01*
Y244794D01*
X188663D01*
Y244735D01*
X188723D01*
Y244675D01*
X188842D01*
Y244615D01*
X188902D01*
Y244556D01*
X189021D01*
Y244496D01*
X189080D01*
Y244437D01*
X189140D01*
Y244377D01*
X189200D01*
Y244317D01*
X189259D01*
Y244258D01*
X189319D01*
Y244138D01*
X189378D01*
Y244079D01*
X189438D01*
Y243960D01*
X189498D01*
Y243840D01*
X189557D01*
Y243721D01*
X189617D01*
Y243602D01*
X189676D01*
Y243363D01*
X189736D01*
Y243125D01*
X189796D01*
Y242767D01*
X189855D01*
Y241754D01*
X189796D01*
Y241456D01*
X189736D01*
Y241218D01*
X189676D01*
Y241039D01*
X189617D01*
Y240919D01*
X189557D01*
Y240741D01*
X189498D01*
Y240621D01*
X189438D01*
Y240562D01*
X189378D01*
Y240443D01*
X189319D01*
Y240323D01*
X189259D01*
Y240204D01*
X189200D01*
Y240145D01*
X189140D01*
Y240085D01*
X189080D01*
Y239966D01*
X189021D01*
Y239906D01*
X188961D01*
Y239847D01*
X188842D01*
Y239787D01*
X188782D01*
Y239727D01*
X188723D01*
Y239668D01*
X188603D01*
Y239608D01*
X188544D01*
Y239548D01*
X188425D01*
Y239489D01*
X188246D01*
Y239429D01*
X188127D01*
Y239370D01*
X187888D01*
Y239310D01*
X187650D01*
Y239250D01*
X187352D01*
Y239191D01*
X186875D01*
Y239131D01*
X181152D01*
Y241516D01*
X186160D01*
Y241575D01*
X186458D01*
Y241635D01*
X186636D01*
Y241694D01*
X186756D01*
Y241754D01*
X186815D01*
Y241814D01*
X186875D01*
Y241933D01*
X186934D01*
Y242052D01*
X186994D01*
Y242290D01*
X186934D01*
Y242469D01*
X186875D01*
Y242529D01*
X186815D01*
Y242589D01*
X186756D01*
Y242648D01*
X186696D01*
Y242708D01*
X186577D01*
Y242767D01*
X186279D01*
Y242827D01*
X183656D01*
Y242887D01*
X183239D01*
Y242946D01*
X183000D01*
Y243006D01*
X182762D01*
Y243066D01*
X182583D01*
Y243125D01*
X182464D01*
Y243185D01*
X182344D01*
Y243244D01*
X182285D01*
Y243304D01*
X182166D01*
Y243363D01*
X182106D01*
Y243423D01*
X182046D01*
Y243483D01*
X181987D01*
Y243542D01*
X181927D01*
Y243602D01*
X181868D01*
Y243662D01*
X181808D01*
Y243721D01*
X181748D01*
Y243840D01*
X181689D01*
Y243900D01*
X181629D01*
Y244019D01*
X181570D01*
Y244138D01*
X181510D01*
Y244258D01*
X181450D01*
Y244437D01*
X181391D01*
Y244615D01*
X181331D01*
Y244854D01*
X181272D01*
Y245152D01*
X181212D01*
Y246225D01*
X181272D01*
Y246582D01*
X181331D01*
Y246821D01*
X181391D01*
Y246940D01*
X181450D01*
Y247119D01*
X181510D01*
Y247238D01*
X181570D01*
Y247357D01*
X181629D01*
Y247477D01*
X181689D01*
Y247536D01*
X181748D01*
Y247655D01*
X181808D01*
Y247775D01*
X181868D01*
Y247834D01*
X181927D01*
Y247894D01*
X181987D01*
Y247953D01*
X182046D01*
Y248013D01*
X182106D01*
Y248073D01*
X182166D01*
Y248132D01*
X182285D01*
Y248192D01*
X182344D01*
Y248252D01*
X182464D01*
Y248311D01*
X182583D01*
Y248371D01*
X182762D01*
Y248430D01*
X182941D01*
Y248490D01*
X183239D01*
Y248550D01*
X183537D01*
Y248609D01*
X184312D01*
Y248669D01*
X189974D01*
Y248550D01*
D02*
G37*
G36*
X179722Y248609D02*
X179781D01*
Y239131D01*
X176741D01*
Y246642D01*
X176801D01*
Y246881D01*
X176860D01*
Y247059D01*
X176920D01*
Y247179D01*
X176980D01*
Y247298D01*
X177039D01*
Y247417D01*
X177099D01*
Y247536D01*
X177158D01*
Y247596D01*
X177218D01*
Y247715D01*
X177278D01*
Y247775D01*
X177337D01*
Y247834D01*
X177397D01*
Y247894D01*
X177457D01*
Y247953D01*
X177516D01*
Y248013D01*
X177576D01*
Y248073D01*
X177635D01*
Y248132D01*
X177755D01*
Y248192D01*
X177814D01*
Y248252D01*
X177933D01*
Y248311D01*
X177993D01*
Y248371D01*
X178112D01*
Y248430D01*
X178232D01*
Y248490D01*
X178410D01*
Y248550D01*
X178649D01*
Y248609D01*
X179066D01*
Y248669D01*
X179722D01*
Y248609D01*
D02*
G37*
G36*
X156772Y255226D02*
X157130D01*
Y255166D01*
X157487D01*
Y255107D01*
X157726D01*
Y255047D01*
X157905D01*
Y254987D01*
X158083D01*
Y254928D01*
X158262D01*
Y254868D01*
X158382D01*
Y254808D01*
X158501D01*
Y254749D01*
X158680D01*
Y254689D01*
X158799D01*
Y254630D01*
X158918D01*
Y254570D01*
X159037D01*
Y254510D01*
X159097D01*
Y254451D01*
X159216D01*
Y254391D01*
X159335D01*
Y254332D01*
X159395D01*
Y254272D01*
X159514D01*
Y254212D01*
X159574D01*
Y254153D01*
X159633D01*
Y254093D01*
X159753D01*
Y254034D01*
X159812D01*
Y253974D01*
X159872D01*
Y253914D01*
X159991D01*
Y253855D01*
X160051D01*
Y253795D01*
X160110D01*
Y253736D01*
X160170D01*
Y253676D01*
X160229D01*
Y253616D01*
X160289D01*
Y253557D01*
X160349D01*
Y253497D01*
X160408D01*
Y253437D01*
X160468D01*
Y253378D01*
X160528D01*
Y253318D01*
X160587D01*
Y253259D01*
X160647D01*
Y253199D01*
X160706D01*
Y253139D01*
X160766D01*
Y253080D01*
X160826D01*
Y253020D01*
X160885D01*
Y252961D01*
X160945D01*
Y252901D01*
X161004D01*
Y252782D01*
X161064D01*
Y252722D01*
X161124D01*
Y252663D01*
X161183D01*
Y252603D01*
X161243D01*
Y252484D01*
X161302D01*
Y252424D01*
X161362D01*
Y252364D01*
X161422D01*
Y252245D01*
X161481D01*
Y252186D01*
X161541D01*
Y252066D01*
X161600D01*
Y252007D01*
X161660D01*
Y251888D01*
X161720D01*
Y251828D01*
X161779D01*
Y251709D01*
X161839D01*
Y251649D01*
X161899D01*
Y251530D01*
X161958D01*
Y251411D01*
X162018D01*
Y251351D01*
X162077D01*
Y251232D01*
X162137D01*
Y251113D01*
X162197D01*
Y250993D01*
X162256D01*
Y250874D01*
X162316D01*
Y250755D01*
X162375D01*
Y250695D01*
X162435D01*
Y250576D01*
X162495D01*
Y250457D01*
X162554D01*
Y250278D01*
X162614D01*
Y250159D01*
X162673D01*
Y250040D01*
X162733D01*
Y249921D01*
X162793D01*
Y249801D01*
X162852D01*
Y249682D01*
X162912D01*
Y249563D01*
X162971D01*
Y249444D01*
X163031D01*
Y249324D01*
X163091D01*
Y249205D01*
X163150D01*
Y249086D01*
X163210D01*
Y248907D01*
X163269D01*
Y248788D01*
X163329D01*
Y248669D01*
X163389D01*
Y248550D01*
X163448D01*
Y248430D01*
X163508D01*
Y248311D01*
X163568D01*
Y248192D01*
X163627D01*
Y248013D01*
X163687D01*
Y247953D01*
X163746D01*
Y247834D01*
X163806D01*
Y247775D01*
X163866D01*
Y247655D01*
X163925D01*
Y247596D01*
X163985D01*
Y247536D01*
Y247477D01*
X164044D01*
Y247417D01*
X164104D01*
Y247357D01*
X164164D01*
Y247298D01*
X164223D01*
Y247179D01*
X164283D01*
Y247119D01*
X164342D01*
Y247059D01*
X164402D01*
Y247000D01*
X164462D01*
Y246940D01*
X164581D01*
Y246881D01*
X164641D01*
Y246821D01*
X164700D01*
Y246761D01*
X164819D01*
Y246702D01*
X164879D01*
Y246642D01*
X164998D01*
Y246582D01*
X165117D01*
Y246523D01*
X165296D01*
Y246463D01*
X165475D01*
Y246404D01*
X166488D01*
Y246463D01*
X166787D01*
Y246523D01*
X166965D01*
Y246582D01*
X167085D01*
Y246642D01*
X167263D01*
Y246702D01*
X167383D01*
Y246761D01*
X167502D01*
Y246821D01*
X167621D01*
Y246881D01*
X167740D01*
Y246940D01*
X167800D01*
Y247000D01*
X167919D01*
Y247059D01*
X167979D01*
Y247119D01*
X168098D01*
Y247179D01*
X168157D01*
Y247238D01*
X168277D01*
Y247298D01*
X168336D01*
Y247357D01*
X168456D01*
Y247417D01*
X168515D01*
Y247477D01*
X168575D01*
Y247536D01*
X168694D01*
Y247596D01*
X168754D01*
Y247655D01*
X168813D01*
Y247715D01*
X168873D01*
Y247775D01*
X168992D01*
Y247834D01*
X169052D01*
Y247894D01*
X169111D01*
Y247953D01*
X169171D01*
Y248013D01*
X169230D01*
Y248073D01*
X169290D01*
Y248132D01*
X169350D01*
Y248192D01*
X169469D01*
Y248252D01*
X169528D01*
Y248311D01*
X169588D01*
Y248371D01*
X169648D01*
Y248430D01*
X169707D01*
Y248490D01*
X169767D01*
Y248550D01*
X169827D01*
Y248609D01*
X169886D01*
Y248669D01*
X169946D01*
Y248728D01*
X170005D01*
Y248788D01*
X170065D01*
Y248848D01*
X170125D01*
Y248907D01*
X170184D01*
Y248967D01*
X170244D01*
Y249026D01*
X170303D01*
Y249086D01*
X170363D01*
Y249146D01*
X170423D01*
Y249205D01*
X170482D01*
Y249265D01*
X170542D01*
Y249324D01*
X170601D01*
Y249444D01*
X170661D01*
Y249503D01*
X170721D01*
Y249563D01*
X170780D01*
Y249623D01*
X170840D01*
Y249682D01*
X170899D01*
Y249742D01*
X170959D01*
Y249801D01*
X171019D01*
Y249861D01*
X171078D01*
Y249921D01*
X171138D01*
Y250040D01*
X171198D01*
Y250099D01*
X171257D01*
Y250159D01*
X171317D01*
Y250219D01*
X171376D01*
Y250278D01*
X171436D01*
Y250338D01*
X171496D01*
Y250457D01*
X171555D01*
Y250517D01*
X171615D01*
Y250576D01*
X171675D01*
Y250636D01*
X171734D01*
Y250695D01*
X171794D01*
Y250815D01*
X171853D01*
Y250874D01*
X171913D01*
Y250934D01*
X171973D01*
Y250993D01*
X172032D01*
Y251053D01*
X172092D01*
Y251172D01*
X172151D01*
Y251232D01*
X172211D01*
Y251292D01*
X172271D01*
Y251351D01*
X172330D01*
Y251470D01*
X172390D01*
Y251530D01*
X172449D01*
Y251590D01*
X172509D01*
Y251649D01*
X172569D01*
Y251768D01*
X172628D01*
Y251828D01*
X172688D01*
Y251888D01*
X172747D01*
Y251947D01*
X172807D01*
Y252066D01*
X172867D01*
Y252126D01*
X172926D01*
Y252186D01*
X172986D01*
Y252245D01*
X173046D01*
Y252364D01*
X173105D01*
Y252424D01*
X173165D01*
Y252484D01*
X173224D01*
Y252543D01*
X173284D01*
Y252663D01*
X173344D01*
Y252722D01*
X173403D01*
Y252782D01*
X173463D01*
Y252841D01*
X173522D01*
Y252901D01*
X173582D01*
Y253020D01*
X173642D01*
Y253080D01*
X173701D01*
Y253139D01*
X173761D01*
Y253199D01*
X173820D01*
Y253259D01*
X173880D01*
Y253378D01*
X173940D01*
Y253437D01*
X173999D01*
Y253497D01*
X174059D01*
Y253557D01*
X174118D01*
Y253616D01*
X174178D01*
Y253676D01*
X174238D01*
Y253736D01*
X174297D01*
Y253795D01*
X174357D01*
Y253855D01*
X174476D01*
Y253914D01*
X174536D01*
Y253974D01*
X174595D01*
Y254034D01*
X174655D01*
Y254093D01*
X174774D01*
Y254153D01*
X174834D01*
Y254212D01*
X174953D01*
Y254272D01*
X175013D01*
Y254332D01*
X175132D01*
Y254391D01*
X175251D01*
Y254451D01*
X175370D01*
Y254510D01*
X175489D01*
Y254570D01*
X175609D01*
Y254630D01*
X175787D01*
Y254689D01*
X175907D01*
Y254749D01*
X176085D01*
Y254808D01*
X176324D01*
Y254868D01*
X176503D01*
Y254928D01*
X176801D01*
Y254987D01*
X177158D01*
Y255047D01*
X178053D01*
Y255107D01*
X178172D01*
Y255047D01*
X179006D01*
Y254987D01*
X179126D01*
Y254928D01*
X179066D01*
Y254808D01*
X179006D01*
Y254749D01*
X178947D01*
Y254689D01*
X178887D01*
Y254570D01*
X178828D01*
Y254510D01*
X178768D01*
Y254451D01*
X178708D01*
Y254332D01*
X178649D01*
Y254272D01*
X178589D01*
Y254153D01*
X178530D01*
Y254093D01*
X178470D01*
Y254034D01*
X178410D01*
Y253914D01*
X178351D01*
Y253855D01*
X178291D01*
Y253736D01*
X178232D01*
Y253676D01*
X178172D01*
Y253616D01*
X178112D01*
Y253497D01*
X178053D01*
Y253437D01*
X177993D01*
Y253378D01*
X177933D01*
Y253259D01*
X177874D01*
Y253199D01*
X177814D01*
Y253080D01*
X177755D01*
Y253020D01*
X177695D01*
Y252961D01*
X177635D01*
Y252841D01*
X177576D01*
Y252782D01*
X177516D01*
Y252663D01*
X177457D01*
Y252603D01*
X177397D01*
Y252543D01*
X177337D01*
Y252424D01*
X177278D01*
Y252364D01*
X177218D01*
Y252305D01*
X177158D01*
Y252186D01*
X177099D01*
Y252126D01*
X177039D01*
Y252007D01*
X176980D01*
Y251947D01*
X176920D01*
Y251888D01*
X176860D01*
Y251768D01*
X176801D01*
Y251709D01*
X176741D01*
Y251649D01*
X176682D01*
Y251530D01*
X176622D01*
Y251470D01*
X176562D01*
Y251351D01*
X176503D01*
Y251292D01*
X176443D01*
Y251232D01*
X176384D01*
Y251113D01*
X176324D01*
Y251053D01*
X176264D01*
Y250993D01*
X176205D01*
Y250874D01*
X176145D01*
Y250815D01*
X176085D01*
Y250695D01*
X176026D01*
Y250636D01*
X175966D01*
Y250576D01*
X175907D01*
Y250457D01*
X175847D01*
Y250397D01*
X175787D01*
Y250338D01*
X175728D01*
Y250219D01*
X175668D01*
Y250159D01*
X175609D01*
Y250040D01*
X175549D01*
Y249980D01*
X175489D01*
Y249921D01*
X175430D01*
Y249801D01*
X175370D01*
Y249742D01*
X175311D01*
Y249623D01*
X175251D01*
Y249563D01*
X175191D01*
Y249503D01*
X175132D01*
Y249384D01*
X175072D01*
Y249324D01*
X175013D01*
Y249265D01*
X174953D01*
Y249146D01*
X174893D01*
Y249086D01*
X174834D01*
Y248967D01*
X174774D01*
Y248907D01*
X174715D01*
Y248848D01*
X174655D01*
Y248728D01*
X174595D01*
Y248669D01*
X174536D01*
Y248609D01*
X174476D01*
Y248490D01*
X174416D01*
Y248430D01*
X174357D01*
Y248311D01*
X174297D01*
Y248252D01*
X174238D01*
Y248192D01*
X174178D01*
Y248073D01*
X174118D01*
Y248013D01*
X174059D01*
Y247894D01*
X173999D01*
Y247834D01*
X173940D01*
Y247775D01*
X173880D01*
Y247655D01*
X173820D01*
Y247596D01*
X173761D01*
Y247536D01*
X173701D01*
Y247417D01*
X173642D01*
Y247357D01*
X173582D01*
Y247238D01*
X173522D01*
Y247179D01*
X173463D01*
Y247119D01*
X173403D01*
Y247000D01*
X173344D01*
Y246940D01*
X173284D01*
Y246881D01*
X173224D01*
Y246761D01*
X173165D01*
Y246702D01*
X173105D01*
Y246582D01*
X173046D01*
Y246523D01*
X172986D01*
Y246463D01*
X172926D01*
Y246344D01*
X172867D01*
Y246284D01*
X172807D01*
Y246165D01*
X172747D01*
Y246106D01*
X172688D01*
Y246046D01*
X172628D01*
Y245927D01*
X172569D01*
Y245867D01*
X172509D01*
Y245808D01*
X172449D01*
Y245688D01*
X172390D01*
Y245629D01*
X172330D01*
Y245510D01*
X172271D01*
Y245450D01*
X172211D01*
Y245390D01*
X172151D01*
Y245271D01*
X172092D01*
Y245211D01*
X172032D01*
Y245152D01*
X171973D01*
Y245033D01*
X171913D01*
Y244973D01*
X171853D01*
Y244854D01*
X171794D01*
Y244794D01*
X171734D01*
Y244735D01*
X171675D01*
Y244615D01*
X171615D01*
Y244556D01*
X171555D01*
Y244496D01*
X171496D01*
Y244377D01*
X171436D01*
Y244317D01*
X171376D01*
Y244198D01*
X171317D01*
Y244138D01*
X171257D01*
Y244079D01*
X171198D01*
Y243960D01*
X171138D01*
Y243900D01*
X171078D01*
Y243781D01*
X171019D01*
Y243721D01*
X170959D01*
Y243662D01*
X170899D01*
Y243542D01*
X170840D01*
Y243483D01*
X170780D01*
Y243423D01*
X170721D01*
Y243304D01*
X170661D01*
Y243244D01*
X170601D01*
Y243125D01*
X170542D01*
Y243066D01*
X170482D01*
Y243006D01*
X170423D01*
Y242887D01*
X170363D01*
Y242827D01*
X170303D01*
Y242767D01*
X170244D01*
Y242648D01*
X170184D01*
Y242589D01*
X170125D01*
Y242469D01*
X170065D01*
Y242410D01*
X170005D01*
Y242350D01*
X169946D01*
Y242231D01*
X169886D01*
Y242171D01*
X169827D01*
Y242052D01*
X169767D01*
Y241992D01*
X169707D01*
Y241933D01*
X169648D01*
Y241814D01*
X169588D01*
Y241754D01*
X169528D01*
Y241694D01*
X169469D01*
Y241575D01*
X169409D01*
Y241516D01*
X169350D01*
Y241456D01*
X169290D01*
Y241396D01*
X169230D01*
Y241277D01*
X169171D01*
Y241218D01*
X169111D01*
Y241158D01*
X169052D01*
Y241098D01*
X168992D01*
Y240979D01*
X168932D01*
Y240919D01*
X168873D01*
Y240860D01*
X168813D01*
Y240800D01*
X168754D01*
Y240741D01*
X168694D01*
Y240681D01*
X168634D01*
Y240621D01*
X168575D01*
Y240562D01*
X168515D01*
Y240502D01*
X168456D01*
Y240443D01*
X168396D01*
Y240383D01*
X168336D01*
Y240323D01*
X168277D01*
Y240264D01*
X168217D01*
Y240204D01*
X168157D01*
Y240145D01*
X168098D01*
Y240085D01*
X167979D01*
Y240025D01*
X167919D01*
Y239966D01*
X167859D01*
Y239906D01*
X167740D01*
Y239847D01*
X167681D01*
Y239787D01*
X167621D01*
Y239727D01*
X167502D01*
Y239668D01*
X167383D01*
Y239608D01*
X167323D01*
Y239548D01*
X167204D01*
Y239489D01*
X167085D01*
Y239429D01*
X166965D01*
Y239370D01*
X166787D01*
Y239310D01*
X166667D01*
Y239250D01*
X166429D01*
Y239191D01*
X166131D01*
Y239131D01*
X165475D01*
Y239191D01*
X165237D01*
Y239250D01*
X164998D01*
Y239310D01*
X164879D01*
Y239370D01*
X164760D01*
Y239429D01*
X164641D01*
Y239489D01*
X164521D01*
Y239548D01*
X164402D01*
Y239608D01*
X164342D01*
Y239668D01*
X164223D01*
Y239727D01*
X164164D01*
Y239787D01*
X164104D01*
Y239847D01*
X164044D01*
Y239906D01*
X163925D01*
Y239966D01*
X163866D01*
Y240025D01*
X163806D01*
Y240085D01*
X163746D01*
Y240145D01*
X163687D01*
Y240204D01*
X163627D01*
Y240264D01*
X163568D01*
Y240323D01*
X163508D01*
Y240383D01*
X163448D01*
Y240443D01*
X163389D01*
Y240502D01*
X163329D01*
Y240562D01*
X163269D01*
Y240681D01*
X163210D01*
Y240741D01*
X163150D01*
Y240800D01*
X163091D01*
Y240860D01*
X163031D01*
Y240979D01*
X162971D01*
Y241039D01*
X162912D01*
Y241098D01*
X162852D01*
Y241218D01*
X162793D01*
Y241277D01*
X162733D01*
Y241396D01*
X162673D01*
Y241456D01*
X162614D01*
Y241575D01*
X162554D01*
Y241635D01*
X162495D01*
Y241754D01*
X162435D01*
Y241873D01*
X162375D01*
Y241933D01*
X162316D01*
Y242052D01*
X162256D01*
Y242171D01*
X162197D01*
Y242231D01*
X162137D01*
Y242350D01*
X162077D01*
Y242469D01*
X162018D01*
Y242589D01*
X161958D01*
Y242708D01*
X161899D01*
Y242827D01*
X161839D01*
Y242946D01*
X161779D01*
Y243066D01*
X161720D01*
Y243185D01*
X161660D01*
Y243304D01*
X161600D01*
Y243423D01*
X161541D01*
Y243542D01*
X161481D01*
Y243662D01*
X161422D01*
Y243781D01*
X161362D01*
Y243900D01*
X161302D01*
Y244019D01*
X161243D01*
Y244138D01*
X161183D01*
Y244258D01*
X161124D01*
Y244377D01*
X161064D01*
Y244556D01*
X161004D01*
Y244675D01*
X160945D01*
Y244794D01*
X160885D01*
Y244913D01*
X160826D01*
Y245033D01*
X160766D01*
Y245211D01*
X160706D01*
Y245331D01*
X160647D01*
Y245450D01*
X160587D01*
Y245569D01*
X160528D01*
Y245688D01*
X160468D01*
Y245867D01*
X160408D01*
Y245986D01*
X160349D01*
Y246106D01*
X160289D01*
Y246225D01*
X160229D01*
Y246404D01*
X160170D01*
Y246523D01*
X160110D01*
Y246642D01*
X160051D01*
Y246761D01*
X159991D01*
Y246881D01*
X159931D01*
Y247059D01*
X159872D01*
Y247179D01*
X159812D01*
Y247298D01*
X159753D01*
Y247417D01*
X159693D01*
Y247536D01*
X159633D01*
Y247655D01*
X159574D01*
Y247775D01*
X159514D01*
Y247894D01*
X159455D01*
Y248013D01*
X159395D01*
Y248132D01*
X159335D01*
Y248252D01*
X159276D01*
Y248371D01*
X159216D01*
Y248490D01*
X159157D01*
Y248609D01*
X159097D01*
Y248728D01*
X159037D01*
Y248848D01*
X158978D01*
Y248967D01*
X158918D01*
Y249086D01*
X158858D01*
Y249205D01*
X158799D01*
Y249265D01*
X158739D01*
Y249384D01*
X158680D01*
Y249503D01*
X158620D01*
Y249623D01*
X158560D01*
Y249682D01*
X158501D01*
Y249801D01*
X158441D01*
Y249921D01*
X158382D01*
Y249980D01*
X158322D01*
Y250099D01*
X158262D01*
Y250219D01*
X158203D01*
Y250278D01*
X158143D01*
Y250397D01*
X158083D01*
Y250457D01*
X158024D01*
Y250576D01*
X157964D01*
Y250636D01*
X157905D01*
Y250755D01*
X157845D01*
Y250815D01*
X157785D01*
Y250934D01*
X157726D01*
Y250993D01*
X157666D01*
Y251113D01*
X157607D01*
Y251172D01*
X157547D01*
Y251232D01*
X157487D01*
Y251351D01*
X157428D01*
Y251411D01*
X157368D01*
Y251470D01*
X157309D01*
Y251530D01*
X157249D01*
Y251649D01*
X157189D01*
Y251709D01*
X157130D01*
Y251768D01*
X157070D01*
Y251828D01*
X157010D01*
Y251888D01*
X156951D01*
Y252007D01*
X156891D01*
Y252066D01*
X156832D01*
Y252126D01*
X156772D01*
Y252186D01*
X156712D01*
Y252245D01*
X156653D01*
Y252305D01*
X156593D01*
Y252364D01*
X156534D01*
Y252424D01*
X156474D01*
Y252484D01*
X156414D01*
Y252543D01*
X156355D01*
Y252603D01*
X156295D01*
Y252663D01*
X156236D01*
Y252722D01*
X156176D01*
Y252782D01*
X156116D01*
Y252841D01*
X156057D01*
Y252901D01*
X155938D01*
Y252961D01*
X155878D01*
Y253020D01*
X155818D01*
Y253080D01*
X155759D01*
Y253139D01*
X155640D01*
Y253199D01*
X155580D01*
Y253259D01*
X155520D01*
Y253318D01*
X155401D01*
Y253378D01*
X155341D01*
Y253437D01*
X155222D01*
Y253497D01*
X155163D01*
Y253557D01*
X155043D01*
Y253616D01*
X154984D01*
Y253676D01*
X154865D01*
Y253736D01*
X154745D01*
Y253795D01*
X154626D01*
Y253855D01*
X154507D01*
Y253914D01*
X154388D01*
Y253974D01*
X154269D01*
Y254034D01*
X154149D01*
Y254093D01*
X154030D01*
Y254153D01*
X153851D01*
Y254212D01*
X153672D01*
Y254272D01*
X153494D01*
Y254332D01*
X153315D01*
Y254391D01*
X153076D01*
Y254451D01*
X152898D01*
Y254510D01*
X153017D01*
Y254570D01*
X153136D01*
Y254630D01*
X153255D01*
Y254689D01*
X153434D01*
Y254749D01*
X153553D01*
Y254808D01*
X153732D01*
Y254868D01*
X153911D01*
Y254928D01*
X154030D01*
Y254987D01*
X154269D01*
Y255047D01*
X154507D01*
Y255107D01*
X154745D01*
Y255166D01*
X155103D01*
Y255226D01*
X155461D01*
Y255285D01*
X156772D01*
Y255226D01*
D02*
G37*
G36*
X147850Y16150D02*
X151350Y12650D01*
X144250D01*
X147850Y16250D01*
Y16150D01*
D02*
G37*
%LPC*%
G36*
X221091Y246404D02*
X220018D01*
Y246344D01*
X219839D01*
Y246284D01*
X219720D01*
Y246225D01*
X219600D01*
Y246165D01*
X219541D01*
Y246106D01*
X219481D01*
Y246046D01*
X219422D01*
Y245986D01*
X219362D01*
Y245927D01*
X219302D01*
Y245867D01*
X219243D01*
Y245748D01*
X219183D01*
Y245688D01*
X219124D01*
Y245569D01*
X219064D01*
Y245390D01*
X219004D01*
Y245152D01*
X218945D01*
Y244854D01*
X222044D01*
Y244913D01*
X222104D01*
Y245033D01*
X222044D01*
Y245331D01*
X221985D01*
Y245569D01*
X221925D01*
Y245748D01*
X221866D01*
Y245867D01*
X221806D01*
Y245927D01*
X221746D01*
Y245986D01*
X221687D01*
Y246046D01*
X221627D01*
Y246106D01*
X221568D01*
Y246165D01*
X221508D01*
Y246225D01*
X221389D01*
Y246284D01*
X221269D01*
Y246344D01*
X221091D01*
Y246404D01*
D02*
G37*
G36*
X210659Y246046D02*
X208811D01*
Y241575D01*
X208871D01*
Y241516D01*
X210659D01*
Y241575D01*
X210897D01*
Y241635D01*
X211017D01*
Y241694D01*
X211136D01*
Y241754D01*
X211255D01*
Y241814D01*
X211374D01*
Y241873D01*
X211434D01*
Y241933D01*
X211493D01*
Y241992D01*
X211553D01*
Y242052D01*
X211613D01*
Y242112D01*
X211672D01*
Y242171D01*
X211732D01*
Y242231D01*
X211792D01*
Y242350D01*
X211851D01*
Y242469D01*
X211911D01*
Y242589D01*
X211970D01*
Y242708D01*
Y242767D01*
X212030D01*
Y243066D01*
X212090D01*
Y244317D01*
X212030D01*
Y244675D01*
X211970D01*
Y244913D01*
X211911D01*
Y245092D01*
X211851D01*
Y245211D01*
X211792D01*
Y245271D01*
X211732D01*
Y245390D01*
X211672D01*
Y245450D01*
X211613D01*
Y245569D01*
X211553D01*
Y245629D01*
X211493D01*
Y245688D01*
X211434D01*
Y245748D01*
X211315D01*
Y245808D01*
X211255D01*
Y245867D01*
X211076D01*
Y245927D01*
X210957D01*
Y245986D01*
X210659D01*
Y246046D01*
D02*
G37*
%LPD*%
D10*
X189842Y394950D02*
G03*
X189842Y394950I-394J0D01*
G01*
X575394Y411263D02*
G03*
X575394Y411263I-394J0D01*
G01*
X236342Y394950D02*
G03*
X236342Y394950I-394J0D01*
G01*
X575394Y457263D02*
G03*
X575394Y457263I-394J0D01*
G01*
X283442Y394950D02*
G03*
X283442Y394950I-394J0D01*
G01*
X576094Y133763D02*
G03*
X576094Y133763I-394J0D01*
G01*
X336342Y394950D02*
G03*
X336342Y394950I-394J0D01*
G01*
X381742D02*
G03*
X381742Y394950I-394J0D01*
G01*
X575794Y177333D02*
G03*
X575794Y177333I-394J0D01*
G01*
X428342Y394950D02*
G03*
X428342Y394950I-394J0D01*
G01*
X576094Y221263D02*
G03*
X576094Y221263I-394J0D01*
G01*
Y266763D02*
G03*
X576094Y266763I-394J0D01*
G01*
X473813Y394950D02*
G03*
X473813Y394950I-394J0D01*
G01*
X575394Y315763D02*
G03*
X575394Y315763I-394J0D01*
G01*
X143242Y394950D02*
G03*
X143242Y394950I-394J0D01*
G01*
X575394Y364763D02*
G03*
X575394Y364763I-394J0D01*
G01*
X199700Y199300D02*
X258700D01*
X312200D01*
X312200Y-1700D01*
X199700D02*
X312200D01*
X199700Y199300D02*
X199700Y-1700D01*
X329100Y-9100D02*
X439100D01*
X329100D02*
Y219900D01*
X439100D01*
Y198400D02*
Y219900D01*
Y-9100D02*
Y203400D01*
X452200Y14200D02*
Y74200D01*
X462200Y14200D02*
Y74200D01*
X452200D02*
X462200D01*
X452200Y14200D02*
X462200D01*
X538700Y4200D02*
Y64200D01*
X548700D01*
X538700Y4200D02*
X548700D01*
Y64200D01*
X264357Y219087D02*
X269650D01*
X272702D02*
X278157D01*
X272702Y226087D02*
X278157D01*
X264357D02*
X269650D01*
X278157Y219087D02*
Y226087D01*
X264357Y219087D02*
Y226087D01*
X385813Y253277D02*
Y258570D01*
Y261621D02*
Y267077D01*
X378813Y261621D02*
Y267077D01*
Y253277D02*
Y258570D01*
Y267077D02*
X385813D01*
X378813Y253277D02*
X385813D01*
D11*
X565925Y475511D02*
G03*
X556000Y485435I-9925J0D01*
G01*
Y465611D02*
G03*
X565900Y475511I0J9900D01*
G01*
X546101D02*
G03*
X556000Y465611I9900J0D01*
G01*
Y485410D02*
G03*
X546101Y475511I0J-9900D01*
G01*
X556700Y288910D02*
G03*
X546801Y279011I0J-9900D01*
G01*
D02*
G03*
X556700Y269111I9900J0D01*
G01*
D02*
G03*
X566600Y279011I0J9900D01*
G01*
X566625D02*
G03*
X556700Y288935I-9925J0D01*
G01*
X565925Y425011D02*
G03*
X556000Y434935I-9925J0D01*
G01*
Y415111D02*
G03*
X565900Y425011I0J9900D01*
G01*
X546101D02*
G03*
X556000Y415111I9900J0D01*
G01*
Y434910D02*
G03*
X546101Y425011I0J-9900D01*
G01*
X556000Y389499D02*
G03*
X546101Y379600I0J-9900D01*
G01*
D02*
G03*
X556000Y369701I9900J0D01*
G01*
D02*
G03*
X565900Y379600I0J9900D01*
G01*
X565925D02*
G03*
X556000Y389525I-9925J0D01*
G01*
X565925Y327011D02*
G03*
X556000Y336935I-9925J0D01*
G01*
Y317111D02*
G03*
X565900Y327011I0J9900D01*
G01*
X546101D02*
G03*
X556000Y317111I9900J0D01*
G01*
Y336910D02*
G03*
X546101Y327011I0J-9900D01*
G01*
X566325Y191011D02*
G03*
X556400Y200935I-9925J0D01*
G01*
Y181111D02*
G03*
X566299Y191011I0J9900D01*
G01*
X546500D02*
G03*
X556400Y181111I9900J0D01*
G01*
Y200910D02*
G03*
X546500Y191011I0J-9900D01*
G01*
X566625Y145511D02*
G03*
X556700Y155435I-9925J0D01*
G01*
Y135611D02*
G03*
X566600Y145511I0J9900D01*
G01*
X546801D02*
G03*
X556700Y135611I9900J0D01*
G01*
Y155410D02*
G03*
X546801Y145511I0J-9900D01*
G01*
X566625Y237011D02*
G03*
X556700Y246935I-9925J0D01*
G01*
Y227111D02*
G03*
X566600Y237011I0J9900D01*
G01*
X546801D02*
G03*
X556700Y227111I9900J0D01*
G01*
Y246910D02*
G03*
X546801Y237011I0J-9900D01*
G01*
X127800Y387025D02*
G03*
X117875Y377100I0J-9925D01*
G01*
X137699D02*
G03*
X127800Y387000I-9900J0D01*
G01*
Y367200D02*
G03*
X137699Y377100I0J9900D01*
G01*
X117901D02*
G03*
X127800Y367200I9900J0D01*
G01*
X223700Y385925D02*
G03*
X213775Y376000I0J-9925D01*
G01*
X233599D02*
G03*
X223700Y385899I-9900J0D01*
G01*
Y366101D02*
G03*
X233599Y376000I0J9900D01*
G01*
X213801D02*
G03*
X223700Y366101I9900J0D01*
G01*
X268000Y387075D02*
G03*
X258075Y377150I0J-9925D01*
G01*
X277900D02*
G03*
X268000Y387050I-9900J0D01*
G01*
Y367250D02*
G03*
X277900Y377150I0J9900D01*
G01*
X258101D02*
G03*
X268000Y367250I9900J0D01*
G01*
X312101Y377200D02*
G03*
X322000Y367301I9900J0D01*
G01*
D02*
G03*
X331899Y377200I0J9900D01*
G01*
D02*
G03*
X322000Y387100I-9900J0D01*
G01*
Y387125D02*
G03*
X312075Y377200I0J-9925D01*
G01*
X451900Y377100D02*
G03*
X461800Y367200I9900J0D01*
G01*
D02*
G03*
X471699Y377100I0J9900D01*
G01*
D02*
G03*
X461800Y387000I-9900J0D01*
G01*
Y387025D02*
G03*
X451875Y377100I0J-9925D01*
G01*
X404101Y377200D02*
G03*
X414000Y367301I9900J0D01*
G01*
D02*
G03*
X423900Y377200I0J9900D01*
G01*
D02*
G03*
X414000Y387100I-9900J0D01*
G01*
Y387125D02*
G03*
X404075Y377200I0J-9925D01*
G01*
X358700Y377150D02*
G03*
X368600Y367250I9900J0D01*
G01*
D02*
G03*
X378500Y377150I0J9900D01*
G01*
D02*
G03*
X368600Y387050I-9900J0D01*
G01*
Y387075D02*
G03*
X358675Y377150I0J-9925D01*
G01*
X175700Y386925D02*
G03*
X165775Y377000I0J-9925D01*
G01*
X185600D02*
G03*
X175700Y386899I-9900J0D01*
G01*
Y367101D02*
G03*
X185600Y377000I0J9900D01*
G01*
X165800D02*
G03*
X175700Y367101I9900J0D01*
G01*
X525448Y343444D02*
Y346594D01*
Y343444D02*
X527810D01*
X536472D02*
Y346594D01*
X534109Y343444D02*
X536472D01*
X534109Y296144D02*
X536472D01*
Y299294D01*
X525448Y296144D02*
X527810D01*
X525448D02*
Y299294D01*
X534109Y250544D02*
X536472D01*
Y253694D01*
X525448Y250544D02*
X527810D01*
X525448D02*
Y253694D01*
X534109Y161144D02*
X536472D01*
Y164294D01*
X525448Y161144D02*
X527810D01*
X525448D02*
Y164294D01*
X534109Y206544D02*
X536472D01*
Y209694D01*
X525448Y206544D02*
X527810D01*
X525448D02*
Y209694D01*
Y391607D02*
Y394757D01*
Y391607D02*
X527810D01*
X536472D02*
Y394757D01*
X534109Y391607D02*
X536472D01*
X534109Y437807D02*
X536472D01*
Y440957D01*
X525448Y437807D02*
X527810D01*
X525448D02*
Y440957D01*
Y483644D02*
Y486794D01*
Y483644D02*
X527810D01*
X536472D02*
Y486794D01*
X534109Y483644D02*
X536472D01*
X249806Y348728D02*
X252956D01*
Y351091D01*
X249806Y359752D02*
X252956D01*
Y357390D02*
Y359752D01*
X202406Y348728D02*
X205556D01*
Y351091D01*
X202406Y359752D02*
X205556D01*
Y357390D02*
Y359752D01*
X445093Y357390D02*
Y359752D01*
X441943D02*
X445093D01*
Y348728D02*
Y351091D01*
X441943Y348728D02*
X445093D01*
X153006Y344188D02*
X156156D01*
Y346550D01*
X153006Y355212D02*
X156156D01*
Y352850D02*
Y355212D01*
X111556Y351850D02*
Y354212D01*
X108406D02*
X111556D01*
Y343188D02*
Y345550D01*
X108406Y343188D02*
X111556D01*
X351156Y357390D02*
Y359752D01*
X348006D02*
X351156D01*
Y348728D02*
Y351091D01*
X348006Y348728D02*
X351156D01*
X303356Y357390D02*
Y359752D01*
X300206D02*
X303356D01*
Y348728D02*
Y351091D01*
X300206Y348728D02*
X303356D01*
X397956Y357390D02*
Y359752D01*
X394806D02*
X397956D01*
Y348728D02*
Y351091D01*
X394806Y348728D02*
X397956D01*
D12*
X473438Y272645D02*
G03*
X473400Y262650I-169J-4997D01*
G01*
X187538Y345845D02*
G03*
X187500Y335850I-169J-4997D01*
G01*
X520995Y132973D02*
G03*
X511000Y133011I-4997J169D01*
G01*
X520995Y179973D02*
G03*
X511000Y180011I-4997J169D01*
G01*
X520995Y224473D02*
G03*
X511000Y224511I-4997J169D01*
G01*
X300495Y228762D02*
G03*
X290500Y228800I-4997J169D01*
G01*
X140338Y345845D02*
G03*
X140300Y335850I-169J-4997D01*
G01*
X520995Y268473D02*
G03*
X511000Y268511I-4997J169D01*
G01*
X473738Y345845D02*
G03*
X473700Y335850I-169J-4997D01*
G01*
X520995Y316773D02*
G03*
X511000Y316811I-4997J169D01*
G01*
X282638Y345845D02*
G03*
X282600Y335850I-169J-4997D01*
G01*
X235038Y345845D02*
G03*
X235000Y335850I-169J-4997D01*
G01*
X520995Y409373D02*
G03*
X511000Y409411I-4997J169D01*
G01*
X520995Y364973D02*
G03*
X511000Y365011I-4997J169D01*
G01*
X520995Y456973D02*
G03*
X511000Y457011I-4997J169D01*
G01*
X426138Y345845D02*
G03*
X426100Y335850I-169J-4997D01*
G01*
X379576Y345845D02*
G03*
X379538Y335850I-169J-4997D01*
G01*
X336038Y345845D02*
G03*
X336000Y335850I-169J-4997D01*
G01*
X473300Y247650D02*
X473400Y247750D01*
X393400Y247650D02*
X473300D01*
X393400D02*
Y287650D01*
X473400D01*
Y247650D02*
Y262550D01*
Y272650D02*
Y287650D01*
X463400Y262650D02*
Y272650D01*
X403400D02*
X463400D01*
X403400Y262650D02*
Y272650D01*
Y262650D02*
X463400D01*
X167500Y320850D02*
X187500D01*
X167500D02*
Y360850D01*
X187500D01*
Y320850D02*
Y335750D01*
Y345850D02*
Y360850D01*
X169900Y17600D02*
Y20600D01*
X164900D02*
X169900D01*
X164900Y17600D02*
Y20600D01*
X150000Y17700D02*
Y20700D01*
X145000D02*
X150000D01*
X145000Y17700D02*
Y20700D01*
X177800Y27600D02*
Y41600D01*
X137800Y17600D02*
Y41600D01*
Y17600D02*
X177800D01*
Y27600D01*
X137800Y41600D02*
X177800D01*
X3200Y0D02*
X36200D01*
X3200Y54500D02*
X36200D01*
X3200Y0D02*
Y54500D01*
X36200Y0D02*
Y54500D01*
X3200Y7000D02*
X36200D01*
X521000Y133011D02*
X536000D01*
X496000D02*
X510900D01*
X536000D02*
Y153011D01*
X496000D02*
X536000D01*
X496000Y133011D02*
Y153011D01*
X521000Y180011D02*
X536000D01*
X496000D02*
X510900D01*
X536000D02*
Y200011D01*
X496000D02*
X536000D01*
X496000Y180011D02*
Y200011D01*
X521000Y224511D02*
X536000D01*
X496000D02*
X510900D01*
X536000D02*
Y244511D01*
X496000D02*
X536000D01*
X496000Y224511D02*
Y244511D01*
X290500Y238800D02*
Y298800D01*
X300500D01*
Y238800D02*
Y298800D01*
X290500Y238800D02*
X300500D01*
Y228800D02*
X315500D01*
X275500D02*
X290400D01*
X315500D02*
Y308800D01*
X275500D02*
X315500D01*
X275500Y228900D02*
Y308800D01*
Y228900D02*
X275600Y228800D01*
X120300Y320850D02*
X140300D01*
X120300D02*
Y360850D01*
X140300D01*
Y320850D02*
Y335750D01*
Y345850D02*
Y360850D01*
X496000Y268511D02*
Y288511D01*
X536000D01*
Y268511D02*
Y288511D01*
X496000Y268511D02*
X510900D01*
X521000D02*
X536000D01*
X473700Y345850D02*
Y360850D01*
Y320850D02*
Y335750D01*
X453700Y360850D02*
X473700D01*
X453700Y320850D02*
Y360850D01*
Y320850D02*
X473700D01*
X521000Y316811D02*
X536000D01*
X496000D02*
X510900D01*
X536000D02*
Y336811D01*
X496000D02*
X536000D01*
X496000Y316811D02*
Y336811D01*
X262600Y320850D02*
X282600D01*
X262600D02*
Y360850D01*
X282600D01*
Y320850D02*
Y335750D01*
Y345850D02*
Y360850D01*
X215000Y320850D02*
X235000D01*
X215000D02*
Y360850D01*
X235000D01*
Y320850D02*
Y335750D01*
Y345850D02*
Y360850D01*
X521000Y409411D02*
X536000D01*
X496000D02*
X510900D01*
X536000D02*
Y429411D01*
X496000D02*
X536000D01*
X496000Y409411D02*
Y429411D01*
X521000Y365011D02*
X536000D01*
X496000D02*
X510900D01*
X536000D02*
Y385011D01*
X496000D02*
X536000D01*
X496000Y365011D02*
Y385011D01*
Y457011D02*
Y477011D01*
X536000D01*
Y457011D02*
Y477011D01*
X496000Y457011D02*
X510900D01*
X521000D02*
X536000D01*
X426100Y345850D02*
Y360850D01*
Y320850D02*
Y335750D01*
X406100Y360850D02*
X426100D01*
X406100Y320850D02*
Y360850D01*
Y320850D02*
X426100D01*
X379538Y345850D02*
Y360850D01*
Y320850D02*
Y335750D01*
X359538Y360850D02*
X379538D01*
X359538Y320850D02*
Y360850D01*
Y320850D02*
X379538D01*
X336000Y345850D02*
Y360850D01*
Y320850D02*
Y335750D01*
X316000Y360850D02*
X336000D01*
X316000Y320850D02*
Y360850D01*
Y320850D02*
X336000D01*
X270341Y219900D02*
X272141D01*
X270341Y225300D02*
X272141D01*
X385000Y259261D02*
Y261061D01*
X379600Y259261D02*
Y261061D01*
D13*
X469100Y274950D02*
G03*
X469100Y274950I-800J0D01*
G01*
X183200Y348150D02*
G03*
X183200Y348150I-800J0D01*
G01*
X524100Y138111D02*
G03*
X524100Y138111I-800J0D01*
G01*
Y185111D02*
G03*
X524100Y185111I-800J0D01*
G01*
Y229611D02*
G03*
X524100Y229611I-800J0D01*
G01*
X303600Y233900D02*
G03*
X303600Y233900I-800J0D01*
G01*
X136000Y348150D02*
G03*
X136000Y348150I-800J0D01*
G01*
X524100Y273611D02*
G03*
X524100Y273611I-800J0D01*
G01*
X469400Y348150D02*
G03*
X469400Y348150I-800J0D01*
G01*
X524100Y321911D02*
G03*
X524100Y321911I-800J0D01*
G01*
X278300Y348150D02*
G03*
X278300Y348150I-800J0D01*
G01*
X230700D02*
G03*
X230700Y348150I-800J0D01*
G01*
X524100Y414511D02*
G03*
X524100Y414511I-800J0D01*
G01*
Y370111D02*
G03*
X524100Y370111I-800J0D01*
G01*
Y462111D02*
G03*
X524100Y462111I-800J0D01*
G01*
X421800Y348150D02*
G03*
X421800Y348150I-800J0D01*
G01*
X375238D02*
G03*
X375238Y348150I-800J0D01*
G01*
X331700D02*
G03*
X331700Y348150I-800J0D01*
G01*
D14*
X461362Y84001D02*
G03*
X461363Y83900I-4162J-102D01*
G01*
X559500Y480511D02*
X563500D01*
X561500Y478511D02*
Y482511D01*
X44200Y228950D02*
X62200Y210950D01*
X44200Y227950D02*
Y228950D01*
X25700Y210450D02*
X44200Y228950D01*
Y142950D02*
Y228950D01*
X7700Y286150D02*
X88409D01*
X7700Y114890D02*
Y286150D01*
Y114890D02*
X88409D01*
Y286150D01*
X562200Y282011D02*
Y286011D01*
X560200Y284011D02*
X564200D01*
X559500Y430011D02*
X563500D01*
X561500Y428011D02*
Y432011D01*
Y382600D02*
Y386600D01*
X559500Y384600D02*
X563500D01*
X559500Y332011D02*
X563500D01*
X561500Y330011D02*
Y334011D01*
X673400Y137250D02*
X721400D01*
X673400D02*
Y176250D01*
Y216250D01*
X721400Y137250D02*
Y231750D01*
Y216250D02*
Y295550D01*
X673400D02*
X721400D01*
X673400Y256250D02*
Y295550D01*
Y216250D02*
Y256250D01*
Y399700D02*
Y439700D01*
Y479000D01*
X721400D01*
Y399700D02*
Y479000D01*
Y320700D02*
Y415200D01*
X673400Y359700D02*
Y399700D01*
Y320700D02*
Y359700D01*
Y320700D02*
X721400D01*
X276800Y490900D02*
Y538900D01*
X237800Y490900D02*
X276800D01*
X197800D02*
X237800D01*
X182300Y538900D02*
X276800D01*
X118500D02*
X197800D01*
X118500Y490900D02*
Y538900D01*
Y490900D02*
X157800D01*
X197800D01*
X468800D02*
Y538900D01*
X429800Y490900D02*
X468800D01*
X389800D02*
X429800D01*
X374300Y538900D02*
X468800D01*
X310500D02*
X389800D01*
X310500Y490900D02*
Y538900D01*
Y490900D02*
X349800D01*
X389800D01*
X451000Y-300D02*
Y90400D01*
Y-300D02*
X550200D01*
Y90400D01*
X451000D02*
X550200D01*
X559900Y196011D02*
X563900D01*
X561900Y194011D02*
Y198011D01*
X560200Y150511D02*
X564200D01*
X562200Y148511D02*
Y152511D01*
X560200Y242011D02*
X564200D01*
X562200Y240011D02*
Y244011D01*
X122800Y380600D02*
Y384600D01*
X120800Y382600D02*
X124800D01*
X218700Y379500D02*
Y383500D01*
X216700Y381500D02*
X220700D01*
X263000Y380650D02*
Y384650D01*
X261000Y382650D02*
X265000D01*
X315000Y382700D02*
X319000D01*
X317000Y380700D02*
Y384700D01*
X454800Y382600D02*
X458800D01*
X456800Y380600D02*
Y384600D01*
X407000Y382700D02*
X411000D01*
X409000Y380700D02*
Y384700D01*
X361600Y382650D02*
X365600D01*
X363600Y380650D02*
Y384650D01*
X170700Y380500D02*
Y384500D01*
X168700Y382500D02*
X172700D01*
X93500Y305598D02*
Y301599D01*
X95499Y299600D01*
X97499Y301599D01*
Y305598D01*
X99498D02*
X101497D01*
X100498D01*
Y299600D01*
X99498D01*
X101497D01*
X108495Y305598D02*
X104496D01*
Y302599D01*
X106496D01*
X104496D01*
Y299600D01*
X110494Y305598D02*
X112494D01*
X111494D01*
Y299600D01*
X110494D01*
X112494D01*
X119492Y304598D02*
X118492Y305598D01*
X116493D01*
X115493Y304598D01*
Y303599D01*
X116493Y302599D01*
X118492D01*
X119492Y301599D01*
Y300600D01*
X118492Y299600D01*
X116493D01*
X115493Y300600D01*
X121491Y305598D02*
Y299600D01*
Y302599D01*
X125490D01*
Y305598D01*
Y299600D01*
X133487Y305598D02*
Y301599D01*
X135486Y299600D01*
X137486Y301599D01*
Y305598D01*
X139485Y299600D02*
X141484D01*
X140485D01*
Y305598D01*
X139485Y304598D01*
X144483Y299600D02*
Y300600D01*
X145483D01*
Y299600D01*
X144483D01*
X149482Y304598D02*
X150482Y305598D01*
X152481D01*
X153481Y304598D01*
Y300600D01*
X152481Y299600D01*
X150482D01*
X149482Y300600D01*
Y304598D01*
X148951Y415626D02*
X152449D01*
Y417376D01*
X151866Y417959D01*
X149534D01*
X148951Y417376D01*
Y415626D01*
X152449Y419125D02*
Y420292D01*
Y419708D01*
X148951D01*
X149534Y419125D01*
Y422041D02*
X148951Y422624D01*
Y423790D01*
X149534Y424374D01*
X150117D01*
X150700Y423790D01*
Y423207D01*
Y423790D01*
X151283Y424374D01*
X151866D01*
X152449Y423790D01*
Y422624D01*
X151866Y422041D01*
X570784Y453149D02*
Y449651D01*
X572534D01*
X573117Y450234D01*
Y452566D01*
X572534Y453149D01*
X570784D01*
X574283Y449651D02*
X575449D01*
X574866D01*
Y453149D01*
X574283Y452566D01*
X579531Y449651D02*
X577199D01*
X579531Y451983D01*
Y452566D01*
X578948Y453149D01*
X577782D01*
X577199Y452566D01*
X195450Y415626D02*
X198949D01*
Y417376D01*
X198366Y417959D01*
X196034D01*
X195450Y417376D01*
Y415626D01*
X198949Y419125D02*
Y420292D01*
Y419708D01*
X195450D01*
X196034Y419125D01*
X198949Y422041D02*
Y423207D01*
Y422624D01*
X195450D01*
X196034Y422041D01*
X570626Y501349D02*
Y497851D01*
X572376D01*
X572959Y498434D01*
Y500766D01*
X572376Y501349D01*
X570626D01*
X574125Y497851D02*
X575292D01*
X574708D01*
Y501349D01*
X574125Y500766D01*
X577041D02*
X577624Y501349D01*
X578790D01*
X579374Y500766D01*
Y498434D01*
X578790Y497851D01*
X577624D01*
X577041Y498434D01*
Y500766D01*
X242851Y415626D02*
X246349D01*
Y417376D01*
X245766Y417959D01*
X243434D01*
X242851Y417376D01*
Y415626D01*
X245766Y419125D02*
X246349Y419708D01*
Y420875D01*
X245766Y421458D01*
X243434D01*
X242851Y420875D01*
Y419708D01*
X243434Y419125D01*
X244017D01*
X244600Y419708D01*
Y421458D01*
X570784Y173449D02*
Y169951D01*
X572534D01*
X573117Y170534D01*
Y172866D01*
X572534Y173449D01*
X570784D01*
X574283Y172866D02*
X574866Y173449D01*
X576033D01*
X576616Y172866D01*
Y172283D01*
X576033Y171700D01*
X576616Y171117D01*
Y170534D01*
X576033Y169951D01*
X574866D01*
X574283Y170534D01*
Y171117D01*
X574866Y171700D01*
X574283Y172283D01*
Y172866D01*
X574866Y171700D02*
X576033D01*
X293251Y415626D02*
X296749D01*
Y417376D01*
X296166Y417959D01*
X293834D01*
X293251Y417376D01*
Y415626D01*
Y419125D02*
Y421458D01*
X293834D01*
X296166Y419125D01*
X296749D01*
X340851Y415626D02*
X344349D01*
Y417376D01*
X343766Y417959D01*
X341434D01*
X340851Y417376D01*
Y415626D01*
Y421458D02*
X341434Y420292D01*
X342600Y419125D01*
X343766D01*
X344349Y419708D01*
Y420875D01*
X343766Y421458D01*
X343183D01*
X342600Y420875D01*
Y419125D01*
X570784Y217249D02*
Y213751D01*
X572534D01*
X573117Y214334D01*
Y216666D01*
X572534Y217249D01*
X570784D01*
X576616D02*
X574283D01*
Y215500D01*
X575449Y216083D01*
X576033D01*
X576616Y215500D01*
Y214334D01*
X576033Y213751D01*
X574866D01*
X574283Y214334D01*
X387551Y415626D02*
X391049D01*
Y417376D01*
X390466Y417959D01*
X388134D01*
X387551Y417376D01*
Y415626D01*
X391049Y420875D02*
X387551D01*
X389300Y419125D01*
Y421458D01*
X570784Y262549D02*
Y259051D01*
X572534D01*
X573117Y259634D01*
Y261966D01*
X572534Y262549D01*
X570784D01*
X574283Y261966D02*
X574866Y262549D01*
X576033D01*
X576616Y261966D01*
Y261383D01*
X576033Y260800D01*
X575449D01*
X576033D01*
X576616Y260217D01*
Y259634D01*
X576033Y259051D01*
X574866D01*
X574283Y259634D01*
X570784Y308949D02*
Y305451D01*
X572534D01*
X573117Y306034D01*
Y308366D01*
X572534Y308949D01*
X570784D01*
X576616Y305451D02*
X574283D01*
X576616Y307783D01*
Y308366D01*
X576033Y308949D01*
X574866D01*
X574283Y308366D01*
X433351Y415626D02*
X436849D01*
Y417376D01*
X436266Y417959D01*
X433934D01*
X433351Y417376D01*
Y415626D01*
X436849Y419125D02*
Y420292D01*
Y419708D01*
X433351D01*
X433934Y419125D01*
X570784Y361449D02*
Y357951D01*
X572534D01*
X573117Y358534D01*
Y360866D01*
X572534Y361449D01*
X570784D01*
X574283Y357951D02*
X575449D01*
X574866D01*
Y361449D01*
X574283Y360866D01*
X579531Y361449D02*
X578365Y360866D01*
X577199Y359700D01*
Y358534D01*
X577782Y357951D01*
X578948D01*
X579531Y358534D01*
Y359117D01*
X578948Y359700D01*
X577199D01*
X99451Y415626D02*
X102949D01*
Y417376D01*
X102366Y417959D01*
X100034D01*
X99451Y417376D01*
Y415626D01*
X102949Y419125D02*
Y420292D01*
Y419708D01*
X99451D01*
X100034Y419125D01*
X99451Y424374D02*
Y422041D01*
X101200D01*
X100617Y423207D01*
Y423790D01*
X101200Y424374D01*
X102366D01*
X102949Y423790D01*
Y422624D01*
X102366Y422041D01*
X570784Y407249D02*
Y403751D01*
X572534D01*
X573117Y404334D01*
Y406666D01*
X572534Y407249D01*
X570784D01*
X574283Y403751D02*
X575449D01*
X574866D01*
Y407249D01*
X574283Y406666D01*
X578948Y403751D02*
Y407249D01*
X577199Y405500D01*
X579531D01*
X155533Y295099D02*
X153783D01*
X153200Y294516D01*
Y293349D01*
X153783Y292766D01*
X155533D01*
X156699Y295099D02*
Y292766D01*
Y293933D01*
X157282Y294516D01*
X157865Y295099D01*
X158448D01*
X161947Y292766D02*
X160781D01*
X160198Y293349D01*
Y294516D01*
X160781Y295099D01*
X161947D01*
X162530Y294516D01*
Y293933D01*
X160198D01*
X164280Y295099D02*
X165446D01*
X166029Y294516D01*
Y292766D01*
X164280D01*
X163697Y293349D01*
X164280Y293933D01*
X166029D01*
X167779Y295682D02*
Y295099D01*
X167195D01*
X168362D01*
X167779D01*
Y293349D01*
X168362Y292766D01*
X171861D02*
X170694D01*
X170111Y293349D01*
Y294516D01*
X170694Y295099D01*
X171861D01*
X172444Y294516D01*
Y293933D01*
X170111D01*
X175943Y296265D02*
Y292766D01*
X174193D01*
X173610Y293349D01*
Y294516D01*
X174193Y295099D01*
X175943D01*
X180608Y296265D02*
Y292766D01*
X182357D01*
X182940Y293349D01*
Y293933D01*
Y294516D01*
X182357Y295099D01*
X180608D01*
X184107D02*
Y293349D01*
X184690Y292766D01*
X186439D01*
Y292183D01*
X185856Y291600D01*
X185273D01*
X186439Y292766D02*
Y295099D01*
X191104Y296265D02*
X193437D01*
X192271D01*
Y292766D01*
X194603Y296265D02*
Y292766D01*
Y294516D01*
X195186Y295099D01*
X196353D01*
X196936Y294516D01*
Y292766D01*
X198685Y295099D02*
X199852D01*
X200435Y294516D01*
Y292766D01*
X198685D01*
X198102Y293349D01*
X198685Y293933D01*
X200435D01*
X201601Y292766D02*
X202767D01*
X202184D01*
Y295099D01*
X201601D01*
X204517Y292766D02*
Y296265D01*
X206266D01*
X206849Y295682D01*
Y294516D01*
X206266Y293933D01*
X204517D01*
X208016Y296265D02*
Y292766D01*
Y294516D01*
X208599Y295099D01*
X209765D01*
X210348Y294516D01*
Y292766D01*
X212098Y295099D02*
X213264D01*
X213847Y294516D01*
Y292766D01*
X212098D01*
X211514Y293349D01*
X212098Y293933D01*
X213847D01*
X215013Y292766D02*
Y295099D01*
X215597D01*
X216180Y294516D01*
Y292766D01*
Y294516D01*
X216763Y295099D01*
X217346Y294516D01*
Y292766D01*
X111100Y115699D02*
Y112200D01*
X112850D01*
X113433Y112783D01*
Y115116D01*
X112850Y115699D01*
X111100D01*
X114599Y112200D02*
X115766D01*
X115182D01*
Y115699D01*
X114599Y115116D01*
X119848Y112200D02*
X117515D01*
X119848Y114533D01*
Y115116D01*
X119264Y115699D01*
X118098D01*
X117515Y115116D01*
X111100Y131699D02*
Y128200D01*
X112850D01*
X113433Y128783D01*
Y131116D01*
X112850Y131699D01*
X111100D01*
X114599Y128200D02*
X115766D01*
X115182D01*
Y131699D01*
X114599Y131116D01*
X119264Y128200D02*
Y131699D01*
X117515Y129949D01*
X119848D01*
X111100Y146999D02*
Y143500D01*
X112850D01*
X113433Y144083D01*
Y146416D01*
X112850Y146999D01*
X111100D01*
X116932Y143500D02*
X114599D01*
X116932Y145833D01*
Y146416D01*
X116349Y146999D01*
X115182D01*
X114599Y146416D01*
X118098Y146999D02*
X120431D01*
Y146416D01*
X118098Y144083D01*
Y143500D01*
X111100Y164999D02*
Y161500D01*
X112850D01*
X113433Y162083D01*
Y164416D01*
X112850Y164999D01*
X111100D01*
X116932Y161500D02*
X114599D01*
X116932Y163833D01*
Y164416D01*
X116349Y164999D01*
X115182D01*
X114599Y164416D01*
X120431Y164999D02*
X119264Y164416D01*
X118098Y163249D01*
Y162083D01*
X118681Y161500D01*
X119848D01*
X120431Y162083D01*
Y162666D01*
X119848Y163249D01*
X118098D01*
X111100Y180099D02*
Y176600D01*
X112850D01*
X113433Y177183D01*
Y179516D01*
X112850Y180099D01*
X111100D01*
X114599Y179516D02*
X115182Y180099D01*
X116349D01*
X116932Y179516D01*
Y178933D01*
X116349Y178349D01*
X115766D01*
X116349D01*
X116932Y177766D01*
Y177183D01*
X116349Y176600D01*
X115182D01*
X114599Y177183D01*
X118098Y179516D02*
X118681Y180099D01*
X119848D01*
X120431Y179516D01*
Y178933D01*
X119848Y178349D01*
X119264D01*
X119848D01*
X120431Y177766D01*
Y177183D01*
X119848Y176600D01*
X118681D01*
X118098Y177183D01*
X111100Y196599D02*
Y193100D01*
X112850D01*
X113433Y193683D01*
Y196016D01*
X112850Y196599D01*
X111100D01*
X114599Y196016D02*
X115182Y196599D01*
X116349D01*
X116932Y196016D01*
Y195433D01*
X116349Y194849D01*
X115766D01*
X116349D01*
X116932Y194266D01*
Y193683D01*
X116349Y193100D01*
X115182D01*
X114599Y193683D01*
X120431Y193100D02*
X118098D01*
X120431Y195433D01*
Y196016D01*
X119848Y196599D01*
X118681D01*
X118098Y196016D01*
X111100Y211899D02*
Y208400D01*
X112850D01*
X113433Y208983D01*
Y211316D01*
X112850Y211899D01*
X111100D01*
X114599Y211316D02*
X115182Y211899D01*
X116349D01*
X116932Y211316D01*
Y210733D01*
X116349Y210149D01*
X115766D01*
X116349D01*
X116932Y209566D01*
Y208983D01*
X116349Y208400D01*
X115182D01*
X114599Y208983D01*
X120431Y211899D02*
X118098D01*
Y210149D01*
X119264Y210733D01*
X119848D01*
X120431Y210149D01*
Y208983D01*
X119848Y208400D01*
X118681D01*
X118098Y208983D01*
X176533Y99299D02*
X174200D01*
Y97549D01*
X175366Y98133D01*
X175949D01*
X176533Y97549D01*
Y96383D01*
X175949Y95800D01*
X174783D01*
X174200Y96383D01*
X177699Y99299D02*
Y96966D01*
X178865Y95800D01*
X180031Y96966D01*
Y99299D01*
X157233Y98716D02*
X156649Y99299D01*
X155483D01*
X154900Y98716D01*
Y96383D01*
X155483Y95800D01*
X156649D01*
X157233Y96383D01*
Y97549D01*
X156066D01*
X158399Y95800D02*
Y99299D01*
X160731Y95800D01*
Y99299D01*
X161898D02*
Y95800D01*
X163647D01*
X164230Y96383D01*
Y98716D01*
X163647Y99299D01*
X161898D01*
X135500Y98716D02*
X136083Y99299D01*
X137249D01*
X137833Y98716D01*
Y98133D01*
X137249Y97549D01*
X136666D01*
X137249D01*
X137833Y96966D01*
Y96383D01*
X137249Y95800D01*
X136083D01*
X135500Y96383D01*
X138999Y95800D02*
Y96383D01*
X139582D01*
Y95800D01*
X138999D01*
X141915Y98716D02*
X142498Y99299D01*
X143664D01*
X144247Y98716D01*
Y98133D01*
X143664Y97549D01*
X143081D01*
X143664D01*
X144247Y96966D01*
Y96383D01*
X143664Y95800D01*
X142498D01*
X141915Y96383D01*
X145413Y99299D02*
Y96966D01*
X146580Y95800D01*
X147746Y96966D01*
Y99299D01*
X13201Y251199D02*
Y250033D01*
X13784Y249450D01*
X16117D01*
X16700Y250033D01*
Y251199D01*
X16117Y251783D01*
X13784D01*
X13201Y251199D01*
X14367Y252949D02*
X16117D01*
X16700Y253532D01*
Y255281D01*
X14367D01*
X13784Y257031D02*
X14367D01*
Y256448D01*
Y257614D01*
Y257031D01*
X16117D01*
X16700Y257614D01*
X14951Y259364D02*
Y261696D01*
X13784Y260530D02*
X16117D01*
X79701Y252699D02*
Y251533D01*
X80284Y250950D01*
X82617D01*
X83200Y251533D01*
Y252699D01*
X82617Y253283D01*
X80284D01*
X79701Y252699D01*
X80867Y254449D02*
X82617D01*
X83200Y255032D01*
Y256781D01*
X80867D01*
X80284Y258531D02*
X80867D01*
Y257948D01*
Y259114D01*
Y258531D01*
X82617D01*
X83200Y259114D01*
X81451Y260863D02*
Y263196D01*
X79701Y129950D02*
Y131116D01*
Y130533D01*
X83200D01*
Y129950D01*
Y131116D01*
Y132866D02*
X80867D01*
Y134615D01*
X81451Y135198D01*
X83200D01*
X81451Y136365D02*
Y138697D01*
X15201Y131450D02*
Y132616D01*
Y132033D01*
X18700D01*
Y131450D01*
Y132616D01*
Y134366D02*
X16367D01*
Y136115D01*
X16951Y136698D01*
X18700D01*
X16951Y137865D02*
Y140197D01*
X15784Y139031D02*
X18117D01*
X45950Y99450D02*
Y95951D01*
X44201D01*
X43617Y96534D01*
Y97701D01*
X44201Y98284D01*
X45950D01*
X44784D02*
X43617Y99450D01*
X46450Y79550D02*
Y76051D01*
X44701D01*
X44117Y76634D01*
Y77801D01*
X44701Y78384D01*
X46450D01*
X45284D02*
X44117Y79550D01*
X131200Y225499D02*
Y222000D01*
Y223749D01*
X133533D01*
Y225499D01*
Y222000D01*
X136448D02*
Y225499D01*
X134699Y223749D01*
X137031D01*
X384066Y277403D02*
X384649Y277986D01*
Y279152D01*
X384066Y279735D01*
X381734D01*
X381151Y279152D01*
Y277986D01*
X381734Y277403D01*
X381151Y274487D02*
X384649D01*
X382900Y276237D01*
Y273904D01*
X140000Y46993D02*
X139417Y47576D01*
X138251D01*
X137667Y46993D01*
Y44660D01*
X138251Y44077D01*
X139417D01*
X140000Y44660D01*
X141166Y44077D02*
X142333D01*
X141749D01*
Y47576D01*
X141166Y46993D01*
X254217Y239366D02*
X253634Y239949D01*
X252467D01*
X251884Y239366D01*
Y237034D01*
X252467Y236451D01*
X253634D01*
X254217Y237034D01*
X255383Y239366D02*
X255966Y239949D01*
X257133D01*
X257716Y239366D01*
Y238783D01*
X257133Y238200D01*
X256549D01*
X257133D01*
X257716Y237617D01*
Y237034D01*
X257133Y236451D01*
X255966D01*
X255383Y237034D01*
X451500Y93900D02*
Y96233D01*
X452666Y97399D01*
X453833Y96233D01*
Y93900D01*
Y95649D01*
X451500D01*
X454999Y97399D02*
X457332D01*
Y96816D01*
X454999Y94483D01*
Y93900D01*
X460830Y97399D02*
X459664Y96816D01*
X458498Y95649D01*
Y94483D01*
X459081Y93900D01*
X460247D01*
X460830Y94483D01*
Y95066D01*
X460247Y95649D01*
X458498D01*
X461997Y96816D02*
X462580Y97399D01*
X463746D01*
X464329Y96816D01*
Y96233D01*
X463746Y95649D01*
X464329Y95066D01*
Y94483D01*
X463746Y93900D01*
X462580D01*
X461997Y94483D01*
Y95066D01*
X462580Y95649D01*
X461997Y96233D01*
Y96816D01*
X462580Y95649D02*
X463746D01*
X465495Y96816D02*
X466079Y97399D01*
X467245D01*
X467828Y96816D01*
Y94483D01*
X467245Y93900D01*
X466079D01*
X465495Y94483D01*
Y96816D01*
X471327D02*
X470744Y97399D01*
X469578D01*
X468994Y96816D01*
Y94483D01*
X469578Y93900D01*
X470744D01*
X471327Y94483D01*
X99800Y63499D02*
Y60000D01*
Y61749D01*
X102133D01*
Y63499D01*
Y60000D01*
X103299D02*
X104465D01*
X103882D01*
Y63499D01*
X103299Y62916D01*
X63700Y63499D02*
Y60000D01*
Y61749D01*
X66033D01*
Y63499D01*
Y60000D01*
X69531D02*
X67199D01*
X69531Y62333D01*
Y62916D01*
X68948Y63499D01*
X67782D01*
X67199Y62916D01*
X161084Y47576D02*
Y44077D01*
Y45827D01*
X163417D01*
Y47576D01*
Y44077D01*
X164583Y46993D02*
X165166Y47576D01*
X166333D01*
X166916Y46993D01*
Y46410D01*
X166333Y45827D01*
X165749D01*
X166333D01*
X166916Y45243D01*
Y44660D01*
X166333Y44077D01*
X165166D01*
X164583Y44660D01*
X6967Y68049D02*
X5801D01*
X6384D01*
Y65134D01*
X5801Y64551D01*
X5218D01*
X4635Y65134D01*
X8134Y68049D02*
Y64551D01*
X9883D01*
X10466Y65134D01*
Y67466D01*
X9883Y68049D01*
X8134D01*
X13965Y67466D02*
X13382Y68049D01*
X12216D01*
X11633Y67466D01*
Y65134D01*
X12216Y64551D01*
X13382D01*
X13965Y65134D01*
X432167Y489849D02*
Y486351D01*
Y487517D01*
X434500Y489849D01*
X432751Y488100D01*
X434500Y486351D01*
X435666D02*
X436833D01*
X436249D01*
Y489849D01*
X435666Y489266D01*
X608684Y309549D02*
Y306051D01*
Y307217D01*
X611017Y309549D01*
X609267Y307800D01*
X611017Y306051D01*
X614516D02*
X612183D01*
X614516Y308383D01*
Y308966D01*
X613933Y309549D01*
X612766D01*
X612183Y308966D01*
X608684Y261849D02*
Y258351D01*
Y259517D01*
X611017Y261849D01*
X609267Y260100D01*
X611017Y258351D01*
X612183Y261266D02*
X612766Y261849D01*
X613933D01*
X614516Y261266D01*
Y260683D01*
X613933Y260100D01*
X613349D01*
X613933D01*
X614516Y259517D01*
Y258934D01*
X613933Y258351D01*
X612766D01*
X612183Y258934D01*
X385884Y489849D02*
Y486351D01*
Y487517D01*
X388217Y489849D01*
X386467Y488100D01*
X388217Y486351D01*
X391133D02*
Y489849D01*
X389383Y488100D01*
X391716D01*
X608684Y216949D02*
Y213451D01*
Y214617D01*
X611017Y216949D01*
X609267Y215200D01*
X611017Y213451D01*
X614516Y216949D02*
X612183D01*
Y215200D01*
X613349Y215783D01*
X613933D01*
X614516Y215200D01*
Y214034D01*
X613933Y213451D01*
X612766D01*
X612183Y214034D01*
X339884Y489849D02*
Y486351D01*
Y487517D01*
X342217Y489849D01*
X340467Y488100D01*
X342217Y486351D01*
X345716Y489849D02*
X344549Y489266D01*
X343383Y488100D01*
Y486934D01*
X343966Y486351D01*
X345133D01*
X345716Y486934D01*
Y487517D01*
X345133Y488100D01*
X343383D01*
X294084Y489849D02*
Y486351D01*
Y487517D01*
X296417Y489849D01*
X294667Y488100D01*
X296417Y486351D01*
X297583Y489849D02*
X299916D01*
Y489266D01*
X297583Y486934D01*
Y486351D01*
X608684Y172449D02*
Y168951D01*
Y170117D01*
X611017Y172449D01*
X609267Y170700D01*
X611017Y168951D01*
X612183Y171866D02*
X612766Y172449D01*
X613933D01*
X614516Y171866D01*
Y171283D01*
X613933Y170700D01*
X614516Y170117D01*
Y169534D01*
X613933Y168951D01*
X612766D01*
X612183Y169534D01*
Y170117D01*
X612766Y170700D01*
X612183Y171283D01*
Y171866D01*
X612766Y170700D02*
X613933D01*
X242284Y489849D02*
Y486351D01*
Y487517D01*
X244617Y489849D01*
X242867Y488100D01*
X244617Y486351D01*
X245783Y486934D02*
X246366Y486351D01*
X247533D01*
X248116Y486934D01*
Y489266D01*
X247533Y489849D01*
X246366D01*
X245783Y489266D01*
Y488683D01*
X246366Y488100D01*
X248116D01*
X608684Y499449D02*
Y495951D01*
Y497117D01*
X611017Y499449D01*
X609267Y497700D01*
X611017Y495951D01*
X612183D02*
X613349D01*
X612766D01*
Y499449D01*
X612183Y498866D01*
X615099D02*
X615682Y499449D01*
X616848D01*
X617431Y498866D01*
Y496534D01*
X616848Y495951D01*
X615682D01*
X615099Y496534D01*
Y498866D01*
X193510Y489849D02*
Y486351D01*
Y487517D01*
X195842Y489849D01*
X194093Y488100D01*
X195842Y486351D01*
X197008D02*
X198175D01*
X197592D01*
Y489849D01*
X197008Y489266D01*
X199924Y486351D02*
X201090D01*
X200507D01*
Y489849D01*
X199924Y489266D01*
X608684Y451349D02*
Y447851D01*
Y449017D01*
X611017Y451349D01*
X609267Y449600D01*
X611017Y447851D01*
X612183D02*
X613349D01*
X612766D01*
Y451349D01*
X612183Y450766D01*
X617431Y447851D02*
X615099D01*
X617431Y450183D01*
Y450766D01*
X616848Y451349D01*
X615682D01*
X615099Y450766D01*
X147026Y489849D02*
Y486351D01*
Y487517D01*
X149359Y489849D01*
X147610Y488100D01*
X149359Y486351D01*
X150525D02*
X151692D01*
X151108D01*
Y489849D01*
X150525Y489266D01*
X153441D02*
X154024Y489849D01*
X155190D01*
X155774Y489266D01*
Y488683D01*
X155190Y488100D01*
X154607D01*
X155190D01*
X155774Y487517D01*
Y486934D01*
X155190Y486351D01*
X154024D01*
X153441Y486934D01*
X608684Y405349D02*
Y401851D01*
Y403017D01*
X611017Y405349D01*
X609267Y403600D01*
X611017Y401851D01*
X612183D02*
X613349D01*
X612766D01*
Y405349D01*
X612183Y404766D01*
X616848Y401851D02*
Y405349D01*
X615099Y403600D01*
X617431D01*
X608684Y358849D02*
Y355351D01*
Y356517D01*
X611017Y358849D01*
X609267Y357100D01*
X611017Y355351D01*
X612183D02*
X613349D01*
X612766D01*
Y358849D01*
X612183Y358266D01*
X617431Y358849D02*
X615099D01*
Y357100D01*
X616265Y357683D01*
X616848D01*
X617431Y357100D01*
Y355934D01*
X616848Y355351D01*
X615682D01*
X615099Y355934D01*
X109526Y489849D02*
Y486351D01*
Y487517D01*
X111859Y489849D01*
X110110Y488100D01*
X111859Y486351D01*
X113025D02*
X114192D01*
X113608D01*
Y489849D01*
X113025Y489266D01*
X118274Y489849D02*
X117107Y489266D01*
X115941Y488100D01*
Y486934D01*
X116524Y486351D01*
X117690D01*
X118274Y486934D01*
Y487517D01*
X117690Y488100D01*
X115941D01*
X434768Y387149D02*
Y383651D01*
X437101D01*
X440600Y387149D02*
X438267D01*
Y383651D01*
X440600D01*
X438267Y385400D02*
X439434D01*
X441766Y387149D02*
Y383651D01*
X443516D01*
X444099Y384234D01*
Y386566D01*
X443516Y387149D01*
X441766D01*
X445265Y383651D02*
X446431D01*
X445848D01*
Y387149D01*
X445265Y386566D01*
X549185Y298349D02*
Y294851D01*
X551518D01*
X555017Y298349D02*
X552684D01*
Y294851D01*
X555017D01*
X552684Y296600D02*
X553851D01*
X556183Y298349D02*
Y294851D01*
X557933D01*
X558516Y295434D01*
Y297766D01*
X557933Y298349D01*
X556183D01*
X562015Y294851D02*
X559682D01*
X562015Y297183D01*
Y297766D01*
X561432Y298349D01*
X560265D01*
X559682Y297766D01*
X549185Y255249D02*
Y251751D01*
X551518D01*
X555017Y255249D02*
X552684D01*
Y251751D01*
X555017D01*
X552684Y253500D02*
X553851D01*
X556183Y255249D02*
Y251751D01*
X557933D01*
X558516Y252334D01*
Y254666D01*
X557933Y255249D01*
X556183D01*
X559682Y254666D02*
X560265Y255249D01*
X561432D01*
X562015Y254666D01*
Y254083D01*
X561432Y253500D01*
X560848D01*
X561432D01*
X562015Y252917D01*
Y252334D01*
X561432Y251751D01*
X560265D01*
X559682Y252334D01*
X386185Y387149D02*
Y383651D01*
X388518D01*
X392017Y387149D02*
X389684D01*
Y383651D01*
X392017D01*
X389684Y385400D02*
X390851D01*
X393183Y387149D02*
Y383651D01*
X394933D01*
X395516Y384234D01*
Y386566D01*
X394933Y387149D01*
X393183D01*
X398431Y383651D02*
Y387149D01*
X396682Y385400D01*
X399015D01*
X549185Y210249D02*
Y206751D01*
X551518D01*
X555017Y210249D02*
X552684D01*
Y206751D01*
X555017D01*
X552684Y208500D02*
X553851D01*
X556183Y210249D02*
Y206751D01*
X557933D01*
X558516Y207334D01*
Y209666D01*
X557933Y210249D01*
X556183D01*
X562015D02*
X559682D01*
Y208500D01*
X560848Y209083D01*
X561432D01*
X562015Y208500D01*
Y207334D01*
X561432Y206751D01*
X560265D01*
X559682Y207334D01*
X339085Y387349D02*
Y383851D01*
X341418D01*
X344917Y387349D02*
X342584D01*
Y383851D01*
X344917D01*
X342584Y385600D02*
X343751D01*
X346083Y387349D02*
Y383851D01*
X347833D01*
X348416Y384434D01*
Y386766D01*
X347833Y387349D01*
X346083D01*
X351915D02*
X350748Y386766D01*
X349582Y385600D01*
Y384434D01*
X350165Y383851D01*
X351331D01*
X351915Y384434D01*
Y385017D01*
X351331Y385600D01*
X349582D01*
X293185Y387149D02*
Y383651D01*
X295518D01*
X299017Y387149D02*
X296684D01*
Y383651D01*
X299017D01*
X296684Y385400D02*
X297851D01*
X300183Y387149D02*
Y383651D01*
X301933D01*
X302516Y384234D01*
Y386566D01*
X301933Y387149D01*
X300183D01*
X303682D02*
X306015D01*
Y386566D01*
X303682Y384234D01*
Y383651D01*
X549185Y165049D02*
Y161551D01*
X551518D01*
X555017Y165049D02*
X552684D01*
Y161551D01*
X555017D01*
X552684Y163300D02*
X553851D01*
X556183Y165049D02*
Y161551D01*
X557933D01*
X558516Y162134D01*
Y164466D01*
X557933Y165049D01*
X556183D01*
X559682Y164466D02*
X560265Y165049D01*
X561432D01*
X562015Y164466D01*
Y163883D01*
X561432Y163300D01*
X562015Y162717D01*
Y162134D01*
X561432Y161551D01*
X560265D01*
X559682Y162134D01*
Y162717D01*
X560265Y163300D01*
X559682Y163883D01*
Y164466D01*
X560265Y163300D02*
X561432D01*
X240085Y387149D02*
Y383651D01*
X242418D01*
X245917Y387149D02*
X243584D01*
Y383651D01*
X245917D01*
X243584Y385400D02*
X244751D01*
X247083Y387149D02*
Y383651D01*
X248833D01*
X249416Y384234D01*
Y386566D01*
X248833Y387149D01*
X247083D01*
X250582Y384234D02*
X251165Y383651D01*
X252331D01*
X252915Y384234D01*
Y386566D01*
X252331Y387149D01*
X251165D01*
X250582Y386566D01*
Y385983D01*
X251165Y385400D01*
X252915D01*
X549185Y492849D02*
Y489351D01*
X551518D01*
X555017Y492849D02*
X552684D01*
Y489351D01*
X555017D01*
X552684Y491100D02*
X553851D01*
X556183Y492849D02*
Y489351D01*
X557933D01*
X558516Y489934D01*
Y492266D01*
X557933Y492849D01*
X556183D01*
X559682Y489351D02*
X560848D01*
X560265D01*
Y492849D01*
X559682Y492266D01*
X562598D02*
X563181Y492849D01*
X564347D01*
X564930Y492266D01*
Y489934D01*
X564347Y489351D01*
X563181D01*
X562598Y489934D01*
Y492266D01*
X192711Y387149D02*
Y383651D01*
X195043D01*
X198542Y387149D02*
X196210D01*
Y383651D01*
X198542D01*
X196210Y385400D02*
X197376D01*
X199708Y387149D02*
Y383651D01*
X201458D01*
X202041Y384234D01*
Y386566D01*
X201458Y387149D01*
X199708D01*
X203207Y383651D02*
X204374D01*
X203790D01*
Y387149D01*
X203207Y386566D01*
X206123Y383651D02*
X207289D01*
X206706D01*
Y387149D01*
X206123Y386566D01*
X549185Y443549D02*
Y440051D01*
X551518D01*
X555017Y443549D02*
X552684D01*
Y440051D01*
X555017D01*
X552684Y441800D02*
X553851D01*
X556183Y443549D02*
Y440051D01*
X557933D01*
X558516Y440634D01*
Y442966D01*
X557933Y443549D01*
X556183D01*
X559682Y440051D02*
X560848D01*
X560265D01*
Y443549D01*
X559682Y442966D01*
X564930Y440051D02*
X562598D01*
X564930Y442383D01*
Y442966D01*
X564347Y443549D01*
X563181D01*
X562598Y442966D01*
X146127Y387149D02*
Y383651D01*
X148460D01*
X151959Y387149D02*
X149626D01*
Y383651D01*
X151959D01*
X149626Y385400D02*
X150793D01*
X153125Y387149D02*
Y383651D01*
X154875D01*
X155458Y384234D01*
Y386566D01*
X154875Y387149D01*
X153125D01*
X156624Y383651D02*
X157791D01*
X157207D01*
Y387149D01*
X156624Y386566D01*
X159540D02*
X160123Y387149D01*
X161289D01*
X161872Y386566D01*
Y385983D01*
X161289Y385400D01*
X160706D01*
X161289D01*
X161872Y384817D01*
Y384234D01*
X161289Y383651D01*
X160123D01*
X159540Y384234D01*
X549185Y397849D02*
Y394351D01*
X551518D01*
X555017Y397849D02*
X552684D01*
Y394351D01*
X555017D01*
X552684Y396100D02*
X553851D01*
X556183Y397849D02*
Y394351D01*
X557933D01*
X558516Y394934D01*
Y397266D01*
X557933Y397849D01*
X556183D01*
X559682Y394351D02*
X560848D01*
X560265D01*
Y397849D01*
X559682Y397266D01*
X564347Y394351D02*
Y397849D01*
X562598Y396100D01*
X564930D01*
X98628Y387149D02*
Y383651D01*
X100960D01*
X104459Y387149D02*
X102126D01*
Y383651D01*
X104459D01*
X102126Y385400D02*
X103293D01*
X105625Y387149D02*
Y383651D01*
X107375D01*
X107958Y384234D01*
Y386566D01*
X107375Y387149D01*
X105625D01*
X109124Y383651D02*
X110291D01*
X109707D01*
Y387149D01*
X109124Y386566D01*
X114373Y387149D02*
X112040D01*
Y385400D01*
X113206Y385983D01*
X113789D01*
X114373Y385400D01*
Y384234D01*
X113789Y383651D01*
X112623D01*
X112040Y384234D01*
X549185Y351249D02*
Y347751D01*
X551518D01*
X555017Y351249D02*
X552684D01*
Y347751D01*
X555017D01*
X552684Y349500D02*
X553851D01*
X556183Y351249D02*
Y347751D01*
X557933D01*
X558516Y348334D01*
Y350666D01*
X557933Y351249D01*
X556183D01*
X559682Y347751D02*
X560848D01*
X560265D01*
Y351249D01*
X559682Y350666D01*
X564930Y351249D02*
X563764Y350666D01*
X562598Y349500D01*
Y348334D01*
X563181Y347751D01*
X564347D01*
X564930Y348334D01*
Y348917D01*
X564347Y349500D01*
X562598D01*
X6400Y295399D02*
Y291900D01*
X8733D01*
X9899D02*
Y295399D01*
X11065Y294233D01*
X12231Y295399D01*
Y291900D01*
X13398D02*
X14564D01*
X13981D01*
Y295399D01*
X13398Y294816D01*
X673900Y482500D02*
Y485999D01*
X675649D01*
X676233Y485416D01*
Y484249D01*
X675649Y483666D01*
X673900D01*
X677399Y482500D02*
X678565D01*
X677982D01*
Y485999D01*
X677399Y485416D01*
X673900Y299100D02*
Y302599D01*
X675649D01*
X676233Y302016D01*
Y300849D01*
X675649Y300266D01*
X673900D01*
X679732Y299100D02*
X677399D01*
X679732Y301433D01*
Y302016D01*
X679148Y302599D01*
X677982D01*
X677399Y302016D01*
X283784Y496951D02*
Y500449D01*
X285534D01*
X286117Y499866D01*
Y498700D01*
X285534Y498117D01*
X283784D01*
X287283Y499866D02*
X287866Y500449D01*
X289033D01*
X289616Y499866D01*
Y499283D01*
X289033Y498700D01*
X288449D01*
X289033D01*
X289616Y498117D01*
Y497534D01*
X289033Y496951D01*
X287866D01*
X287283Y497534D01*
X475284Y498551D02*
Y502049D01*
X477034D01*
X477617Y501466D01*
Y500300D01*
X477034Y499717D01*
X475284D01*
X480533Y498551D02*
Y502049D01*
X478783Y500300D01*
X481116D01*
X441700Y366834D02*
Y369166D01*
X441117Y369749D01*
X439951D01*
X439367Y369166D01*
Y366834D01*
X439951Y366251D01*
X441117D01*
X440534Y367417D02*
X441700Y366251D01*
X441117D02*
X441700Y366834D01*
X442866Y366251D02*
X444033D01*
X443449D01*
Y369749D01*
X442866Y369166D01*
X502235Y293134D02*
Y295466D01*
X501651Y296049D01*
X500485D01*
X499902Y295466D01*
Y293134D01*
X500485Y292551D01*
X501651D01*
X501068Y293717D02*
X502235Y292551D01*
X501651D02*
X502235Y293134D01*
X505733Y292551D02*
X503401D01*
X505733Y294883D01*
Y295466D01*
X505150Y296049D01*
X503984D01*
X503401Y295466D01*
X502235Y249534D02*
Y251866D01*
X501651Y252449D01*
X500485D01*
X499902Y251866D01*
Y249534D01*
X500485Y248951D01*
X501651D01*
X501068Y250117D02*
X502235Y248951D01*
X501651D02*
X502235Y249534D01*
X503401Y251866D02*
X503984Y252449D01*
X505150D01*
X505733Y251866D01*
Y251283D01*
X505150Y250700D01*
X504567D01*
X505150D01*
X505733Y250117D01*
Y249534D01*
X505150Y248951D01*
X503984D01*
X503401Y249534D01*
X393717Y366834D02*
Y369166D01*
X393134Y369749D01*
X391967D01*
X391384Y369166D01*
Y366834D01*
X391967Y366251D01*
X393134D01*
X392551Y367417D02*
X393717Y366251D01*
X393134D02*
X393717Y366834D01*
X396633Y366251D02*
Y369749D01*
X394883Y368000D01*
X397216D01*
X502235Y205534D02*
Y207866D01*
X501651Y208449D01*
X500485D01*
X499902Y207866D01*
Y205534D01*
X500485Y204951D01*
X501651D01*
X501068Y206117D02*
X502235Y204951D01*
X501651D02*
X502235Y205534D01*
X505733Y208449D02*
X503401D01*
Y206700D01*
X504567Y207283D01*
X505150D01*
X505733Y206700D01*
Y205534D01*
X505150Y204951D01*
X503984D01*
X503401Y205534D01*
X346617Y366834D02*
Y369166D01*
X346034Y369749D01*
X344867D01*
X344284Y369166D01*
Y366834D01*
X344867Y366251D01*
X346034D01*
X345451Y367417D02*
X346617Y366251D01*
X346034D02*
X346617Y366834D01*
X350116Y369749D02*
X348949Y369166D01*
X347783Y368000D01*
Y366834D01*
X348366Y366251D01*
X349533D01*
X350116Y366834D01*
Y367417D01*
X349533Y368000D01*
X347783D01*
X299817Y366834D02*
Y369166D01*
X299234Y369749D01*
X298067D01*
X297484Y369166D01*
Y366834D01*
X298067Y366251D01*
X299234D01*
X298651Y367417D02*
X299817Y366251D01*
X299234D02*
X299817Y366834D01*
X300983Y369749D02*
X303316D01*
Y369166D01*
X300983Y366834D01*
Y366251D01*
X502235Y159234D02*
Y161566D01*
X501651Y162149D01*
X500485D01*
X499902Y161566D01*
Y159234D01*
X500485Y158651D01*
X501651D01*
X501068Y159817D02*
X502235Y158651D01*
X501651D02*
X502235Y159234D01*
X503401Y161566D02*
X503984Y162149D01*
X505150D01*
X505733Y161566D01*
Y160983D01*
X505150Y160400D01*
X505733Y159817D01*
Y159234D01*
X505150Y158651D01*
X503984D01*
X503401Y159234D01*
Y159817D01*
X503984Y160400D01*
X503401Y160983D01*
Y161566D01*
X503984Y160400D02*
X505150D01*
X248317Y366834D02*
Y369166D01*
X247734Y369749D01*
X246567D01*
X245984Y369166D01*
Y366834D01*
X246567Y366251D01*
X247734D01*
X247151Y367417D02*
X248317Y366251D01*
X247734D02*
X248317Y366834D01*
X249483D02*
X250066Y366251D01*
X251233D01*
X251816Y366834D01*
Y369166D01*
X251233Y369749D01*
X250066D01*
X249483Y369166D01*
Y368583D01*
X250066Y368000D01*
X251816D01*
X499319Y485634D02*
Y487966D01*
X498736Y488549D01*
X497569D01*
X496986Y487966D01*
Y485634D01*
X497569Y485051D01*
X498736D01*
X498152Y486217D02*
X499319Y485051D01*
X498736D02*
X499319Y485634D01*
X500485Y485051D02*
X501651D01*
X501068D01*
Y488549D01*
X500485Y487966D01*
X503401D02*
X503984Y488549D01*
X505150D01*
X505733Y487966D01*
Y485634D01*
X505150Y485051D01*
X503984D01*
X503401Y485634D01*
Y487966D01*
X200642Y366834D02*
Y369166D01*
X200059Y369749D01*
X198893D01*
X198310Y369166D01*
Y366834D01*
X198893Y366251D01*
X200059D01*
X199476Y367417D02*
X200642Y366251D01*
X200059D02*
X200642Y366834D01*
X201808Y366251D02*
X202975D01*
X202392D01*
Y369749D01*
X201808Y369166D01*
X204724Y366251D02*
X205890D01*
X205307D01*
Y369749D01*
X204724Y369166D01*
X499319Y436234D02*
Y438566D01*
X498736Y439149D01*
X497569D01*
X496986Y438566D01*
Y436234D01*
X497569Y435651D01*
X498736D01*
X498152Y436817D02*
X499319Y435651D01*
X498736D02*
X499319Y436234D01*
X500485Y435651D02*
X501651D01*
X501068D01*
Y439149D01*
X500485Y438566D01*
X505733Y435651D02*
X503401D01*
X505733Y437983D01*
Y438566D01*
X505150Y439149D01*
X503984D01*
X503401Y438566D01*
X150559Y366834D02*
Y369166D01*
X149976Y369749D01*
X148810D01*
X148226Y369166D01*
Y366834D01*
X148810Y366251D01*
X149976D01*
X149393Y367417D02*
X150559Y366251D01*
X149976D02*
X150559Y366834D01*
X151725Y366251D02*
X152892D01*
X152308D01*
Y369749D01*
X151725Y369166D01*
X154641D02*
X155224Y369749D01*
X156390D01*
X156974Y369166D01*
Y368583D01*
X156390Y368000D01*
X155807D01*
X156390D01*
X156974Y367417D01*
Y366834D01*
X156390Y366251D01*
X155224D01*
X154641Y366834D01*
X499319Y391234D02*
Y393566D01*
X498736Y394149D01*
X497569D01*
X496986Y393566D01*
Y391234D01*
X497569Y390651D01*
X498736D01*
X498152Y391817D02*
X499319Y390651D01*
X498736D02*
X499319Y391234D01*
X500485Y390651D02*
X501651D01*
X501068D01*
Y394149D01*
X500485Y393566D01*
X505150Y390651D02*
Y394149D01*
X503401Y392400D01*
X505733D01*
X104059Y366834D02*
Y369166D01*
X103476Y369749D01*
X102310D01*
X101726Y369166D01*
Y366834D01*
X102310Y366251D01*
X103476D01*
X102893Y367417D02*
X104059Y366251D01*
X103476D02*
X104059Y366834D01*
X105225Y366251D02*
X106392D01*
X105808D01*
Y369749D01*
X105225Y369166D01*
X110474Y369749D02*
X108141D01*
Y368000D01*
X109307Y368583D01*
X109890D01*
X110474Y368000D01*
Y366834D01*
X109890Y366251D01*
X108724D01*
X108141Y366834D01*
X499319Y345723D02*
Y348056D01*
X498736Y348639D01*
X497569D01*
X496986Y348056D01*
Y345723D01*
X497569Y345140D01*
X498736D01*
X498152Y346306D02*
X499319Y345140D01*
X498736D02*
X499319Y345723D01*
X500485Y345140D02*
X501651D01*
X501068D01*
Y348639D01*
X500485Y348056D01*
X505733Y348639D02*
X504567Y348056D01*
X503401Y346889D01*
Y345723D01*
X503984Y345140D01*
X505150D01*
X505733Y345723D01*
Y346306D01*
X505150Y346889D01*
X503401D01*
X437367Y324551D02*
Y328049D01*
X439117D01*
X439700Y327466D01*
Y326300D01*
X439117Y325717D01*
X437367D01*
X438534D02*
X439700Y324551D01*
X440866D02*
X442033D01*
X441449D01*
Y328049D01*
X440866Y327466D01*
X529734Y308951D02*
Y312449D01*
X531483D01*
X532066Y311866D01*
Y310700D01*
X531483Y310117D01*
X529734D01*
X530900D02*
X532066Y308951D01*
X535565D02*
X533233D01*
X535565Y311283D01*
Y311866D01*
X534982Y312449D01*
X533816D01*
X533233Y311866D01*
X490535Y308651D02*
Y312149D01*
X492284D01*
X492867Y311566D01*
Y310400D01*
X492284Y309817D01*
X490535D01*
X491701D02*
X492867Y308651D01*
X494034Y311566D02*
X494617Y312149D01*
X495783D01*
X496366Y311566D01*
Y310983D01*
X495783Y310400D01*
X495200D01*
X495783D01*
X496366Y309817D01*
Y309234D01*
X495783Y308651D01*
X494617D01*
X494034Y309234D01*
X437284Y313051D02*
Y316549D01*
X439034D01*
X439617Y315966D01*
Y314800D01*
X439034Y314217D01*
X437284D01*
X438451D02*
X439617Y313051D01*
X442533D02*
Y316549D01*
X440783Y314800D01*
X443116D01*
X529734Y259751D02*
Y263249D01*
X531483D01*
X532066Y262666D01*
Y261500D01*
X531483Y260917D01*
X529734D01*
X530900D02*
X532066Y259751D01*
X535565Y263249D02*
X533233D01*
Y261500D01*
X534399Y262083D01*
X534982D01*
X535565Y261500D01*
Y260334D01*
X534982Y259751D01*
X533816D01*
X533233Y260334D01*
X390084Y324551D02*
Y328049D01*
X391834D01*
X392417Y327466D01*
Y326300D01*
X391834Y325717D01*
X390084D01*
X391251D02*
X392417Y324551D01*
X395916Y328049D02*
X394749Y327466D01*
X393583Y326300D01*
Y325134D01*
X394166Y324551D01*
X395333D01*
X395916Y325134D01*
Y325717D01*
X395333Y326300D01*
X393583D01*
X390084Y313051D02*
Y316549D01*
X391834D01*
X392417Y315966D01*
Y314800D01*
X391834Y314217D01*
X390084D01*
X391251D02*
X392417Y313051D01*
X393583Y316549D02*
X395916D01*
Y315966D01*
X393583Y313634D01*
Y313051D01*
X490535Y259351D02*
Y262849D01*
X492284D01*
X492867Y262266D01*
Y261100D01*
X492284Y260517D01*
X490535D01*
X491701D02*
X492867Y259351D01*
X494034Y262266D02*
X494617Y262849D01*
X495783D01*
X496366Y262266D01*
Y261683D01*
X495783Y261100D01*
X496366Y260517D01*
Y259934D01*
X495783Y259351D01*
X494617D01*
X494034Y259934D01*
Y260517D01*
X494617Y261100D01*
X494034Y261683D01*
Y262266D01*
X494617Y261100D02*
X495783D01*
X490535Y214251D02*
Y217749D01*
X492284D01*
X492867Y217166D01*
Y216000D01*
X492284Y215417D01*
X490535D01*
X491701D02*
X492867Y214251D01*
X494034Y214834D02*
X494617Y214251D01*
X495783D01*
X496366Y214834D01*
Y217166D01*
X495783Y217749D01*
X494617D01*
X494034Y217166D01*
Y216583D01*
X494617Y216000D01*
X496366D01*
X342526Y324551D02*
Y328049D01*
X344276D01*
X344859Y327466D01*
Y326300D01*
X344276Y325717D01*
X342526D01*
X343693D02*
X344859Y324551D01*
X346025D02*
X347192D01*
X346608D01*
Y328049D01*
X346025Y327466D01*
X348941D02*
X349524Y328049D01*
X350690D01*
X351274Y327466D01*
Y325134D01*
X350690Y324551D01*
X349524D01*
X348941Y325134D01*
Y327466D01*
X342810Y313051D02*
Y316549D01*
X344559D01*
X345142Y315966D01*
Y314800D01*
X344559Y314217D01*
X342810D01*
X343976D02*
X345142Y313051D01*
X346308D02*
X347475D01*
X346892D01*
Y316549D01*
X346308Y315966D01*
X349224Y313051D02*
X350390D01*
X349807D01*
Y316549D01*
X349224Y315966D01*
X526818Y216251D02*
Y219749D01*
X528567D01*
X529151Y219166D01*
Y218000D01*
X528567Y217417D01*
X526818D01*
X527984D02*
X529151Y216251D01*
X530317D02*
X531483D01*
X530900D01*
Y219749D01*
X530317Y219166D01*
X535565Y216251D02*
X533233D01*
X535565Y218583D01*
Y219166D01*
X534982Y219749D01*
X533816D01*
X533233Y219166D01*
X297026Y324551D02*
Y328049D01*
X298776D01*
X299359Y327466D01*
Y326300D01*
X298776Y325717D01*
X297026D01*
X298193D02*
X299359Y324551D01*
X300525D02*
X301692D01*
X301108D01*
Y328049D01*
X300525Y327466D01*
X303441D02*
X304024Y328049D01*
X305190D01*
X305774Y327466D01*
Y326883D01*
X305190Y326300D01*
X304607D01*
X305190D01*
X305774Y325717D01*
Y325134D01*
X305190Y324551D01*
X304024D01*
X303441Y325134D01*
X490535Y170451D02*
Y173949D01*
X492284D01*
X492867Y173366D01*
Y172200D01*
X492284Y171617D01*
X490535D01*
X491701D02*
X492867Y170451D01*
X494034D02*
X495200D01*
X494617D01*
Y173949D01*
X494034Y173366D01*
X498699Y170451D02*
Y173949D01*
X496949Y172200D01*
X499282D01*
X297126Y313051D02*
Y316549D01*
X298876D01*
X299459Y315966D01*
Y314800D01*
X298876Y314217D01*
X297126D01*
X298293D02*
X299459Y313051D01*
X300625D02*
X301792D01*
X301208D01*
Y316549D01*
X300625Y315966D01*
X305874Y316549D02*
X303541D01*
Y314800D01*
X304707Y315383D01*
X305290D01*
X305874Y314800D01*
Y313634D01*
X305290Y313051D01*
X304124D01*
X303541Y313634D01*
X526818Y170451D02*
Y173949D01*
X528567D01*
X529151Y173366D01*
Y172200D01*
X528567Y171617D01*
X526818D01*
X527984D02*
X529151Y170451D01*
X530317D02*
X531483D01*
X530900D01*
Y173949D01*
X530317Y173366D01*
X535565Y173949D02*
X534399Y173366D01*
X533233Y172200D01*
Y171034D01*
X533816Y170451D01*
X534982D01*
X535565Y171034D01*
Y171617D01*
X534982Y172200D01*
X533233D01*
X35526Y104900D02*
Y108399D01*
X37276D01*
X37859Y107816D01*
Y106649D01*
X37276Y106066D01*
X35526D01*
X36693D02*
X37859Y104900D01*
X39025D02*
X40192D01*
X39608D01*
Y108399D01*
X39025Y107816D01*
X41941Y108399D02*
X44274D01*
Y107816D01*
X41941Y105483D01*
Y104900D01*
X243426Y324551D02*
Y328049D01*
X245176D01*
X245759Y327466D01*
Y326300D01*
X245176Y325717D01*
X243426D01*
X244593D02*
X245759Y324551D01*
X246925D02*
X248092D01*
X247508D01*
Y328049D01*
X246925Y327466D01*
X249841D02*
X250424Y328049D01*
X251590D01*
X252174Y327466D01*
Y326883D01*
X251590Y326300D01*
X252174Y325717D01*
Y325134D01*
X251590Y324551D01*
X250424D01*
X249841Y325134D01*
Y325717D01*
X250424Y326300D01*
X249841Y326883D01*
Y327466D01*
X250424Y326300D02*
X251590D01*
X525426Y497751D02*
Y501249D01*
X527176D01*
X527759Y500666D01*
Y499500D01*
X527176Y498917D01*
X525426D01*
X526593D02*
X527759Y497751D01*
X528925D02*
X530092D01*
X529508D01*
Y501249D01*
X528925Y500666D01*
X531841Y498334D02*
X532424Y497751D01*
X533590D01*
X534174Y498334D01*
Y500666D01*
X533590Y501249D01*
X532424D01*
X531841Y500666D01*
Y500083D01*
X532424Y499500D01*
X534174D01*
X17000Y104900D02*
Y108399D01*
X18749D01*
X19333Y107816D01*
Y106649D01*
X18749Y106066D01*
X17000D01*
X18166D02*
X19333Y104900D01*
X22831D02*
X20499D01*
X22831Y107233D01*
Y107816D01*
X22248Y108399D01*
X21082D01*
X20499Y107816D01*
X23998D02*
X24581Y108399D01*
X25747D01*
X26330Y107816D01*
Y105483D01*
X25747Y104900D01*
X24581D01*
X23998Y105483D01*
Y107816D01*
X244918Y313051D02*
Y316549D01*
X246667D01*
X247251Y315966D01*
Y314800D01*
X246667Y314217D01*
X244918D01*
X246084D02*
X247251Y313051D01*
X250749D02*
X248417D01*
X250749Y315383D01*
Y315966D01*
X250166Y316549D01*
X249000D01*
X248417Y315966D01*
X251916Y313051D02*
X253082D01*
X252499D01*
Y316549D01*
X251916Y315966D01*
X490635Y497651D02*
Y501149D01*
X492384D01*
X492967Y500566D01*
Y499400D01*
X492384Y498817D01*
X490635D01*
X491801D02*
X492967Y497651D01*
X496466D02*
X494134D01*
X496466Y499983D01*
Y500566D01*
X495883Y501149D01*
X494717D01*
X494134Y500566D01*
X499965Y497651D02*
X497633D01*
X499965Y499983D01*
Y500566D01*
X499382Y501149D01*
X498216D01*
X497633Y500566D01*
X196835Y324551D02*
Y328049D01*
X198584D01*
X199167Y327466D01*
Y326300D01*
X198584Y325717D01*
X196835D01*
X198001D02*
X199167Y324551D01*
X202666D02*
X200334D01*
X202666Y326883D01*
Y327466D01*
X202083Y328049D01*
X200917D01*
X200334Y327466D01*
X203833D02*
X204416Y328049D01*
X205582D01*
X206165Y327466D01*
Y326883D01*
X205582Y326300D01*
X204999D01*
X205582D01*
X206165Y325717D01*
Y325134D01*
X205582Y324551D01*
X204416D01*
X203833Y325134D01*
X526235Y449251D02*
Y452749D01*
X527984D01*
X528567Y452166D01*
Y451000D01*
X527984Y450417D01*
X526235D01*
X527401D02*
X528567Y449251D01*
X532066D02*
X529734D01*
X532066Y451583D01*
Y452166D01*
X531483Y452749D01*
X530317D01*
X529734Y452166D01*
X534982Y449251D02*
Y452749D01*
X533233Y451000D01*
X535565D01*
X197535Y313051D02*
Y316549D01*
X199284D01*
X199867Y315966D01*
Y314800D01*
X199284Y314217D01*
X197535D01*
X198701D02*
X199867Y313051D01*
X203366D02*
X201034D01*
X203366Y315383D01*
Y315966D01*
X202783Y316549D01*
X201617D01*
X201034Y315966D01*
X206865Y316549D02*
X204533D01*
Y314800D01*
X205699Y315383D01*
X206282D01*
X206865Y314800D01*
Y313634D01*
X206282Y313051D01*
X205116D01*
X204533Y313634D01*
X490535Y448951D02*
Y452449D01*
X492284D01*
X492867Y451866D01*
Y450700D01*
X492284Y450117D01*
X490535D01*
X491701D02*
X492867Y448951D01*
X496366D02*
X494034D01*
X496366Y451283D01*
Y451866D01*
X495783Y452449D01*
X494617D01*
X494034Y451866D01*
X499865Y452449D02*
X498699Y451866D01*
X497533Y450700D01*
Y449534D01*
X498116Y448951D01*
X499282D01*
X499865Y449534D01*
Y450117D01*
X499282Y450700D01*
X497533D01*
X150635Y324551D02*
Y328049D01*
X152384D01*
X152967Y327466D01*
Y326300D01*
X152384Y325717D01*
X150635D01*
X151801D02*
X152967Y324551D01*
X156466D02*
X154134D01*
X156466Y326883D01*
Y327466D01*
X155883Y328049D01*
X154717D01*
X154134Y327466D01*
X157633Y328049D02*
X159965D01*
Y327466D01*
X157633Y325134D01*
Y324551D01*
X526235Y401451D02*
Y404949D01*
X527984D01*
X528567Y404366D01*
Y403200D01*
X527984Y402617D01*
X526235D01*
X527401D02*
X528567Y401451D01*
X532066D02*
X529734D01*
X532066Y403783D01*
Y404366D01*
X531483Y404949D01*
X530317D01*
X529734Y404366D01*
X533233D02*
X533816Y404949D01*
X534982D01*
X535565Y404366D01*
Y403783D01*
X534982Y403200D01*
X535565Y402617D01*
Y402034D01*
X534982Y401451D01*
X533816D01*
X533233Y402034D01*
Y402617D01*
X533816Y403200D01*
X533233Y403783D01*
Y404366D01*
X533816Y403200D02*
X534982D01*
X150635Y313051D02*
Y316549D01*
X152384D01*
X152967Y315966D01*
Y314800D01*
X152384Y314217D01*
X150635D01*
X151801D02*
X152967Y313051D01*
X156466D02*
X154134D01*
X156466Y315383D01*
Y315966D01*
X155883Y316549D01*
X154717D01*
X154134Y315966D01*
X157633Y313634D02*
X158216Y313051D01*
X159382D01*
X159965Y313634D01*
Y315966D01*
X159382Y316549D01*
X158216D01*
X157633Y315966D01*
Y315383D01*
X158216Y314800D01*
X159965D01*
X490535Y402451D02*
Y405949D01*
X492284D01*
X492867Y405366D01*
Y404200D01*
X492284Y403617D01*
X490535D01*
X491701D02*
X492867Y402451D01*
X494034Y405366D02*
X494617Y405949D01*
X495783D01*
X496366Y405366D01*
Y404783D01*
X495783Y404200D01*
X495200D01*
X495783D01*
X496366Y403617D01*
Y403034D01*
X495783Y402451D01*
X494617D01*
X494034Y403034D01*
X497533Y405366D02*
X498116Y405949D01*
X499282D01*
X499865Y405366D01*
Y403034D01*
X499282Y402451D01*
X498116D01*
X497533Y403034D01*
Y405366D01*
X103018Y324551D02*
Y328049D01*
X104767D01*
X105351Y327466D01*
Y326300D01*
X104767Y325717D01*
X103018D01*
X104184D02*
X105351Y324551D01*
X106517Y327466D02*
X107100Y328049D01*
X108266D01*
X108849Y327466D01*
Y326883D01*
X108266Y326300D01*
X107683D01*
X108266D01*
X108849Y325717D01*
Y325134D01*
X108266Y324551D01*
X107100D01*
X106517Y325134D01*
X110016Y324551D02*
X111182D01*
X110599D01*
Y328049D01*
X110016Y327466D01*
X526235Y356851D02*
Y360349D01*
X527984D01*
X528567Y359766D01*
Y358600D01*
X527984Y358017D01*
X526235D01*
X527401D02*
X528567Y356851D01*
X529734Y359766D02*
X530317Y360349D01*
X531483D01*
X532066Y359766D01*
Y359183D01*
X531483Y358600D01*
X530900D01*
X531483D01*
X532066Y358017D01*
Y357434D01*
X531483Y356851D01*
X530317D01*
X529734Y357434D01*
X535565Y356851D02*
X533233D01*
X535565Y359183D01*
Y359766D01*
X534982Y360349D01*
X533816D01*
X533233Y359766D01*
X103135Y313051D02*
Y316549D01*
X104884D01*
X105467Y315966D01*
Y314800D01*
X104884Y314217D01*
X103135D01*
X104301D02*
X105467Y313051D01*
X106634Y315966D02*
X107217Y316549D01*
X108383D01*
X108966Y315966D01*
Y315383D01*
X108383Y314800D01*
X107800D01*
X108383D01*
X108966Y314217D01*
Y313634D01*
X108383Y313051D01*
X107217D01*
X106634Y313634D01*
X110133Y315966D02*
X110716Y316549D01*
X111882D01*
X112465Y315966D01*
Y315383D01*
X111882Y314800D01*
X111299D01*
X111882D01*
X112465Y314217D01*
Y313634D01*
X111882Y313051D01*
X110716D01*
X110133Y313634D01*
X490535Y356251D02*
Y359749D01*
X492284D01*
X492867Y359166D01*
Y358000D01*
X492284Y357417D01*
X490535D01*
X491701D02*
X492867Y356251D01*
X494034Y359166D02*
X494617Y359749D01*
X495783D01*
X496366Y359166D01*
Y358583D01*
X495783Y358000D01*
X495200D01*
X495783D01*
X496366Y357417D01*
Y356834D01*
X495783Y356251D01*
X494617D01*
X494034Y356834D01*
X499282Y356251D02*
Y359749D01*
X497533Y358000D01*
X499865D01*
X251884Y258651D02*
Y262149D01*
X253634D01*
X254217Y261566D01*
Y260400D01*
X253634Y259817D01*
X251884D01*
X253051D02*
X254217Y258651D01*
X255383Y261566D02*
X255966Y262149D01*
X257133D01*
X257716Y261566D01*
Y260983D01*
X257133Y260400D01*
X256549D01*
X257133D01*
X257716Y259817D01*
Y259234D01*
X257133Y258651D01*
X255966D01*
X255383Y259234D01*
X261215Y262149D02*
X258882D01*
Y260400D01*
X260048Y260983D01*
X260631D01*
X261215Y260400D01*
Y259234D01*
X260631Y258651D01*
X259465D01*
X258882Y259234D01*
X389935Y229551D02*
Y233049D01*
X391684D01*
X392267Y232466D01*
Y231300D01*
X391684Y230717D01*
X389935D01*
X391101D02*
X392267Y229551D01*
X393434Y232466D02*
X394017Y233049D01*
X395183D01*
X395766Y232466D01*
Y231883D01*
X395183Y231300D01*
X394600D01*
X395183D01*
X395766Y230717D01*
Y230134D01*
X395183Y229551D01*
X394017D01*
X393434Y230134D01*
X399265Y233049D02*
X398099Y232466D01*
X396933Y231300D01*
Y230134D01*
X397516Y229551D01*
X398682D01*
X399265Y230134D01*
Y230717D01*
X398682Y231300D01*
X396933D01*
X251884Y247751D02*
Y251249D01*
X253634D01*
X254217Y250666D01*
Y249500D01*
X253634Y248917D01*
X251884D01*
X253051D02*
X254217Y247751D01*
X255383Y250666D02*
X255966Y251249D01*
X257133D01*
X257716Y250666D01*
Y250083D01*
X257133Y249500D01*
X256549D01*
X257133D01*
X257716Y248917D01*
Y248334D01*
X257133Y247751D01*
X255966D01*
X255383Y248334D01*
X258882Y251249D02*
X261215D01*
Y250666D01*
X258882Y248334D01*
Y247751D01*
X389935Y239051D02*
Y242549D01*
X391684D01*
X392267Y241966D01*
Y240800D01*
X391684Y240217D01*
X389935D01*
X391101D02*
X392267Y239051D01*
X393434Y241966D02*
X394017Y242549D01*
X395183D01*
X395766Y241966D01*
Y241383D01*
X395183Y240800D01*
X394600D01*
X395183D01*
X395766Y240217D01*
Y239634D01*
X395183Y239051D01*
X394017D01*
X393434Y239634D01*
X396933Y241966D02*
X397516Y242549D01*
X398682D01*
X399265Y241966D01*
Y241383D01*
X398682Y240800D01*
X399265Y240217D01*
Y239634D01*
X398682Y239051D01*
X397516D01*
X396933Y239634D01*
Y240217D01*
X397516Y240800D01*
X396933Y241383D01*
Y241966D01*
X397516Y240800D02*
X398682D01*
X460567Y316549D02*
Y313634D01*
X461151Y313051D01*
X462317D01*
X462900Y313634D01*
Y316549D01*
X464066Y313051D02*
X465233D01*
X464649D01*
Y316549D01*
X464066Y315966D01*
X486151Y275184D02*
X489066D01*
X489649Y275767D01*
Y276934D01*
X489066Y277517D01*
X486151D01*
X489649Y281016D02*
Y278683D01*
X487317Y281016D01*
X486734D01*
X486151Y280433D01*
Y279266D01*
X486734Y278683D01*
X486151Y230884D02*
X489066D01*
X489649Y231467D01*
Y232634D01*
X489066Y233217D01*
X486151D01*
X486734Y234383D02*
X486151Y234966D01*
Y236133D01*
X486734Y236716D01*
X487317D01*
X487900Y236133D01*
Y235549D01*
Y236133D01*
X488483Y236716D01*
X489066D01*
X489649Y236133D01*
Y234966D01*
X489066Y234383D01*
X412184Y316549D02*
Y313634D01*
X412767Y313051D01*
X413934D01*
X414517Y313634D01*
Y316549D01*
X417433Y313051D02*
Y316549D01*
X415683Y314800D01*
X418016D01*
X486151Y185684D02*
X489066D01*
X489649Y186267D01*
Y187434D01*
X489066Y188017D01*
X486151D01*
Y191516D02*
Y189183D01*
X487900D01*
X487317Y190349D01*
Y190933D01*
X487900Y191516D01*
X489066D01*
X489649Y190933D01*
Y189766D01*
X489066Y189183D01*
X366984Y316549D02*
Y313634D01*
X367567Y313051D01*
X368734D01*
X369317Y313634D01*
Y316549D01*
X372816D02*
X371649Y315966D01*
X370483Y314800D01*
Y313634D01*
X371066Y313051D01*
X372233D01*
X372816Y313634D01*
Y314217D01*
X372233Y314800D01*
X370483D01*
X323684Y316549D02*
Y313634D01*
X324267Y313051D01*
X325434D01*
X326017Y313634D01*
Y316549D01*
X327183D02*
X329516D01*
Y315966D01*
X327183Y313634D01*
Y313051D01*
X486151Y139784D02*
X489066D01*
X489649Y140367D01*
Y141534D01*
X489066Y142117D01*
X486151D01*
X486734Y143283D02*
X486151Y143866D01*
Y145033D01*
X486734Y145616D01*
X487317D01*
X487900Y145033D01*
X488483Y145616D01*
X489066D01*
X489649Y145033D01*
Y143866D01*
X489066Y143283D01*
X488483D01*
X487900Y143866D01*
X487317Y143283D01*
X486734D01*
X487900Y143866D02*
Y145033D01*
X271884Y316549D02*
Y313634D01*
X272467Y313051D01*
X273634D01*
X274217Y313634D01*
Y316549D01*
X275383Y313634D02*
X275966Y313051D01*
X277133D01*
X277716Y313634D01*
Y315966D01*
X277133Y316549D01*
X275966D01*
X275383Y315966D01*
Y315383D01*
X275966Y314800D01*
X277716D01*
X486151Y462726D02*
X489066D01*
X489649Y463310D01*
Y464476D01*
X489066Y465059D01*
X486151D01*
X489649Y466225D02*
Y467392D01*
Y466808D01*
X486151D01*
X486734Y466225D01*
Y469141D02*
X486151Y469724D01*
Y470890D01*
X486734Y471474D01*
X489066D01*
X489649Y470890D01*
Y469724D01*
X489066Y469141D01*
X486734D01*
X223110Y316549D02*
Y313634D01*
X223693Y313051D01*
X224859D01*
X225442Y313634D01*
Y316549D01*
X226608Y313051D02*
X227775D01*
X227192D01*
Y316549D01*
X226608Y315966D01*
X229524Y313051D02*
X230690D01*
X230107D01*
Y316549D01*
X229524Y315966D01*
X486151Y415526D02*
X489066D01*
X489649Y416110D01*
Y417276D01*
X489066Y417859D01*
X486151D01*
X489649Y419025D02*
Y420192D01*
Y419608D01*
X486151D01*
X486734Y419025D01*
X489649Y424274D02*
Y421941D01*
X487317Y424274D01*
X486734D01*
X486151Y423690D01*
Y422524D01*
X486734Y421941D01*
X173226Y316549D02*
Y313634D01*
X173810Y313051D01*
X174976D01*
X175559Y313634D01*
Y316549D01*
X176725Y313051D02*
X177892D01*
X177308D01*
Y316549D01*
X176725Y315966D01*
X179641D02*
X180224Y316549D01*
X181390D01*
X181974Y315966D01*
Y315383D01*
X181390Y314800D01*
X180807D01*
X181390D01*
X181974Y314217D01*
Y313634D01*
X181390Y313051D01*
X180224D01*
X179641Y313634D01*
X486151Y370826D02*
X489066D01*
X489649Y371410D01*
Y372576D01*
X489066Y373159D01*
X486151D01*
X489649Y374325D02*
Y375492D01*
Y374908D01*
X486151D01*
X486734Y374325D01*
X489649Y378990D02*
X486151D01*
X487900Y377241D01*
Y379574D01*
X123326Y316549D02*
Y313634D01*
X123910Y313051D01*
X125076D01*
X125659Y313634D01*
Y316549D01*
X126825Y313051D02*
X127992D01*
X127408D01*
Y316549D01*
X126825Y315966D01*
X132074Y316549D02*
X129741D01*
Y314800D01*
X130907Y315383D01*
X131490D01*
X132074Y314800D01*
Y313634D01*
X131490Y313051D01*
X130324D01*
X129741Y313634D01*
X486151Y323326D02*
X489066D01*
X489649Y323910D01*
Y325076D01*
X489066Y325659D01*
X486151D01*
X489649Y326825D02*
Y327992D01*
Y327408D01*
X486151D01*
X486734Y326825D01*
X486151Y332074D02*
X486734Y330907D01*
X487900Y329741D01*
X489066D01*
X489649Y330324D01*
Y331490D01*
X489066Y332074D01*
X488483D01*
X487900Y331490D01*
Y329741D01*
X394100Y294899D02*
Y291983D01*
X394683Y291400D01*
X395849D01*
X396433Y291983D01*
Y294899D01*
X397599Y291400D02*
X398765D01*
X398182D01*
Y294899D01*
X397599Y294316D01*
X400515Y294899D02*
X402847D01*
Y294316D01*
X400515Y291983D01*
Y291400D01*
X291626Y220649D02*
Y217734D01*
X292210Y217151D01*
X293376D01*
X293959Y217734D01*
Y220649D01*
X295125Y217151D02*
X296292D01*
X295708D01*
Y220649D01*
X295125Y220066D01*
X298041D02*
X298624Y220649D01*
X299790D01*
X300374Y220066D01*
Y219483D01*
X299790Y218900D01*
X300374Y218317D01*
Y217734D01*
X299790Y217151D01*
X298624D01*
X298041Y217734D01*
Y218317D01*
X298624Y218900D01*
X298041Y219483D01*
Y220066D01*
X298624Y218900D02*
X299790D01*
X329100Y229299D02*
Y226383D01*
X329683Y225800D01*
X330849D01*
X331433Y226383D01*
Y229299D01*
X332599Y225800D02*
X333765D01*
X333182D01*
Y229299D01*
X332599Y228716D01*
X335515Y226383D02*
X336098Y225800D01*
X337264D01*
X337847Y226383D01*
Y228716D01*
X337264Y229299D01*
X336098D01*
X335515Y228716D01*
Y228133D01*
X336098Y227549D01*
X337847D01*
X200300Y206199D02*
Y203283D01*
X200883Y202700D01*
X202049D01*
X202633Y203283D01*
Y206199D01*
X206131Y202700D02*
X203799D01*
X206131Y205033D01*
Y205616D01*
X205548Y206199D01*
X204382D01*
X203799Y205616D01*
X207298D02*
X207881Y206199D01*
X209047D01*
X209630Y205616D01*
Y203283D01*
X209047Y202700D01*
X207881D01*
X207298Y203283D01*
Y205616D01*
D15*
X31300Y101400D02*
G03*
X31300Y93400I0J-4000D01*
G01*
X50200D02*
G03*
X50200Y101400I0J4000D01*
G01*
X31800Y81500D02*
G03*
X31800Y73500I0J-4000D01*
G01*
X50700D02*
G03*
X50700Y81500I0J4000D01*
G01*
X25750Y97400D02*
X27300D01*
X50200Y93450D02*
Y101350D01*
X54200Y97400D02*
X55750D01*
X49500Y93400D02*
Y101400D01*
X50900Y93550D02*
Y101250D01*
X48800Y93500D02*
Y101350D01*
X50150Y101400D02*
X50200Y101350D01*
X50150Y93400D02*
X50200Y93450D01*
X31300Y101400D02*
X50200D01*
X31300Y93400D02*
X50500D01*
X26250Y77500D02*
X27800D01*
X50700Y73550D02*
Y81450D01*
X54700Y77500D02*
X56250D01*
X50000Y73500D02*
Y81500D01*
X51400Y73650D02*
Y81350D01*
X49300Y73600D02*
Y81450D01*
X50650Y81500D02*
X50700Y81450D01*
X50650Y73500D02*
X50700Y73550D01*
X31800Y81500D02*
X50700D01*
X31800Y73500D02*
X51000D01*
D16*
X164267Y399281D02*
Y400659D01*
X185133D01*
Y399281D02*
Y400659D01*
X164267Y389241D02*
Y390619D01*
Y389241D02*
X185133D01*
Y390619D01*
X579331Y436444D02*
X580709D01*
Y415578D02*
Y436444D01*
X579331Y415578D02*
X580709D01*
X569291Y436444D02*
X570669D01*
X569291Y415578D02*
Y436444D01*
Y415578D02*
X570669D01*
X210767Y399281D02*
Y400659D01*
X231633D01*
Y399281D02*
Y400659D01*
X210767Y389241D02*
Y390619D01*
Y389241D02*
X231633D01*
Y390619D01*
X569291Y461578D02*
X570669D01*
X569291D02*
Y482444D01*
X570669D01*
X579331Y461578D02*
X580709D01*
Y482444D01*
X579331D02*
X580709D01*
X257867Y399281D02*
Y400659D01*
X278733D01*
Y399281D02*
Y400659D01*
X257867Y389241D02*
Y390619D01*
Y389241D02*
X278733D01*
Y390619D01*
X580031Y158944D02*
X581409D01*
Y138078D02*
Y158944D01*
X580031Y138078D02*
X581409D01*
X569991Y158944D02*
X571369D01*
X569991Y138078D02*
Y158944D01*
Y138078D02*
X571369D01*
X331633Y389241D02*
Y390619D01*
X310767Y389241D02*
X331633D01*
X310767D02*
Y390619D01*
X331633Y399281D02*
Y400659D01*
X310767D02*
X331633D01*
X310767Y399281D02*
Y400659D01*
X377033Y389241D02*
Y390619D01*
X356167Y389241D02*
X377033D01*
X356167D02*
Y390619D01*
X377033Y399281D02*
Y400659D01*
X356167D02*
X377033D01*
X356167Y399281D02*
Y400659D01*
X579731Y202515D02*
X581109D01*
Y181648D02*
Y202515D01*
X579731Y181648D02*
X581109D01*
X569691Y202515D02*
X571069D01*
X569691Y181648D02*
Y202515D01*
Y181648D02*
X571069D01*
X423633Y389241D02*
Y390619D01*
X402767Y389241D02*
X423633D01*
X402767D02*
Y390619D01*
X423633Y399281D02*
Y400659D01*
X402767D02*
X423633D01*
X402767Y399281D02*
Y400659D01*
X580031Y246444D02*
X581409D01*
Y225578D02*
Y246444D01*
X580031Y225578D02*
X581409D01*
X569991Y246444D02*
X571369D01*
X569991Y225578D02*
Y246444D01*
Y225578D02*
X571369D01*
X569991Y271078D02*
X571369D01*
X569991D02*
Y291944D01*
X571369D01*
X580031Y271078D02*
X581409D01*
Y291944D01*
X580031D02*
X581409D01*
X469104Y389241D02*
Y390619D01*
X448238Y389241D02*
X469104D01*
X448238D02*
Y390619D01*
X469104Y399281D02*
Y400659D01*
X448238D02*
X469104D01*
X448238Y399281D02*
Y400659D01*
X569291Y320078D02*
X570669D01*
X569291D02*
Y340944D01*
X570669D01*
X579331Y320078D02*
X580709D01*
Y340944D01*
X579331D02*
X580709D01*
X138533Y389241D02*
Y390619D01*
X117667Y389241D02*
X138533D01*
X117667D02*
Y390619D01*
X138533Y399281D02*
Y400659D01*
X117667D02*
X138533D01*
X117667Y399281D02*
Y400659D01*
X569291Y369078D02*
X570669D01*
X569291D02*
Y389944D01*
X570669D01*
X579331Y369078D02*
X580709D01*
Y389944D01*
X579331D02*
X580709D01*
X595657Y302196D02*
X664870D01*
Y272668D02*
Y302196D01*
X635618Y262826D02*
X655342D01*
X595657D02*
X625323D01*
X586130Y272668D02*
Y292353D01*
Y370668D02*
Y390353D01*
X595657Y360826D02*
X625323D01*
X635618D02*
X655342D01*
X664870Y370668D02*
Y400196D01*
X595657D02*
X664870D01*
X586130Y324168D02*
Y343853D01*
X595657Y314326D02*
X625323D01*
X635618D02*
X655342D01*
X664870Y324168D02*
Y353696D01*
X595657D02*
X664870D01*
X586130Y417168D02*
Y436853D01*
X595657Y407326D02*
X625323D01*
X635618D02*
X655342D01*
X664870Y417168D02*
Y446696D01*
X595657D02*
X664870D01*
X595657Y492696D02*
X664870D01*
Y463168D02*
Y492696D01*
X635618Y453326D02*
X655342D01*
X595657D02*
X625323D01*
X586130Y463168D02*
Y482853D01*
Y227668D02*
Y247353D01*
X595657Y217826D02*
X625323D01*
X635618D02*
X655342D01*
X664870Y227668D02*
Y257196D01*
X595657D02*
X664870D01*
X595657Y168196D02*
X664870D01*
Y138668D02*
Y168196D01*
X635618Y128826D02*
X655342D01*
X595657D02*
X625323D01*
X586130Y138668D02*
Y158353D01*
X595657Y212696D02*
X664870D01*
Y183168D02*
Y212696D01*
X635618Y173326D02*
X655342D01*
X595657D02*
X625323D01*
X586130Y183168D02*
Y202853D01*
X117957Y406180D02*
X137643D01*
X147485Y415707D02*
Y445373D01*
Y455668D02*
Y475392D01*
X108115Y484920D02*
X137643D01*
X108115Y415707D02*
Y484920D01*
X201215Y414607D02*
Y483820D01*
X230743D01*
X240585Y454568D02*
Y474293D01*
Y414607D02*
Y444273D01*
X211057Y405080D02*
X230743D01*
X248915Y414307D02*
Y483520D01*
X278443D01*
X288285Y454268D02*
Y473992D01*
Y414307D02*
Y443973D01*
X258757Y404780D02*
X278443D01*
X448457Y407380D02*
X468143D01*
X477985Y416908D02*
Y446573D01*
Y456868D02*
Y476592D01*
X438615Y486120D02*
X468143D01*
X438615Y416908D02*
Y486120D01*
X154115Y414808D02*
Y484020D01*
X183642D01*
X193485Y454768D02*
Y474493D01*
Y414808D02*
Y444473D01*
X163958Y405280D02*
X183642D01*
X402357Y406780D02*
X422043D01*
X431885Y416307D02*
Y445973D01*
Y456268D02*
Y475992D01*
X392515Y485520D02*
X422043D01*
X392515Y416307D02*
Y485520D01*
X309958Y407780D02*
X329643D01*
X339485Y417308D02*
Y446973D01*
Y457268D02*
Y476993D01*
X300115Y486520D02*
X329643D01*
X300115Y417308D02*
Y486520D01*
X356157Y406880D02*
X375842D01*
X385685Y416407D02*
Y446073D01*
Y456368D02*
Y476092D01*
X346315Y485620D02*
X375842D01*
X346315Y416407D02*
Y485620D01*
D17*
X63902Y55464D02*
X86422D01*
Y5936D02*
Y55464D01*
X63902Y5936D02*
X86422D01*
X63902D02*
Y55464D01*
X100002Y55764D02*
X122522D01*
Y6236D02*
Y55764D01*
X100002Y6236D02*
X122522D01*
X100002D02*
Y55764D01*
X136252Y60783D02*
X183339D01*
X136252Y92437D02*
X183339D01*
Y60783D02*
Y92437D01*
X136252Y60783D02*
Y92437D01*
X131483Y108257D02*
Y217705D01*
X163137Y108257D02*
Y217705D01*
X131483Y108257D02*
X163137D01*
X131483Y217705D02*
X163137D01*
D18*
X516800Y261100D02*
X517300D01*
X516800Y260100D02*
Y261100D01*
Y260100D02*
X518800D01*
Y261100D01*
X517300D02*
X518800D01*
X517887Y302400D02*
X519387D01*
Y301400D02*
Y302400D01*
X517387Y301400D02*
X519387D01*
X517387D02*
Y302400D01*
X517887D01*
X516800Y212400D02*
X517300D01*
X516800Y211400D02*
Y212400D01*
Y211400D02*
X518800D01*
Y212400D01*
X517300D02*
X518800D01*
X516800Y166100D02*
X517300D01*
X516800Y165100D02*
Y166100D01*
Y165100D02*
X518800D01*
Y166100D01*
X517300D02*
X518800D01*
X516800Y395600D02*
X517300D01*
X516800Y394600D02*
Y395600D01*
Y394600D02*
X518800D01*
Y395600D01*
X517300D02*
X518800D01*
X516800Y446500D02*
X517300D01*
X516800Y445500D02*
Y446500D01*
Y445500D02*
X518800D01*
Y446500D01*
X517300D02*
X518800D01*
X516800Y399201D02*
X517300D01*
X516800Y398201D02*
Y399201D01*
Y398201D02*
X518800D01*
Y399201D01*
X517300D02*
X518800D01*
X516613Y443400D02*
X517113D01*
X516613Y442400D02*
Y443400D01*
Y442400D02*
X518613D01*
Y443400D01*
X517113D02*
X518613D01*
X517300Y351500D02*
X518800D01*
Y350500D02*
Y351500D01*
X516800Y350500D02*
X518800D01*
X516800D02*
Y351500D01*
X517300D01*
Y347600D02*
X518800D01*
Y346600D02*
Y347600D01*
X516800Y346600D02*
X518800D01*
X516800D02*
Y347600D01*
X517300D01*
X516800Y169101D02*
X517300D01*
X516800Y168101D02*
Y169101D01*
Y168101D02*
X518800D01*
Y169101D01*
X517300D02*
X518800D01*
X516800Y216300D02*
X517300D01*
X516800Y215300D02*
Y216300D01*
Y215300D02*
X518800D01*
Y216300D01*
X517300D02*
X518800D01*
X516800Y488700D02*
X517300D01*
X516800Y487700D02*
Y488700D01*
Y487700D02*
X518800D01*
Y488700D01*
X517300D02*
X518800D01*
X517300Y485100D02*
X518800D01*
Y484100D02*
Y485100D01*
X516800Y484100D02*
X518800D01*
X516800D02*
Y485100D01*
X517300D01*
X439600Y343713D02*
Y345213D01*
X440600D01*
Y343213D02*
Y345213D01*
X439600Y343213D02*
X440600D01*
X439600D02*
Y343713D01*
X444300Y340699D02*
X445800D01*
X444300D02*
Y341699D01*
X446300D01*
Y340699D02*
Y341699D01*
X445800Y340699D02*
X446300D01*
X201200Y343613D02*
Y345113D01*
X202200D01*
Y343113D02*
Y345113D01*
X201200Y343113D02*
X202200D01*
X201200D02*
Y343613D01*
X206713Y343000D02*
X208213D01*
X206713D02*
Y344000D01*
X208713D01*
Y343000D02*
Y344000D01*
X208213Y343000D02*
X208713D01*
X251400Y341999D02*
X252900D01*
X251400D02*
Y342999D01*
X253400D01*
Y341999D02*
Y342999D01*
X252900Y341999D02*
X253400D01*
X245400Y343687D02*
Y345187D01*
X246400D01*
Y343187D02*
Y345187D01*
X245400Y343187D02*
X246400D01*
X245400D02*
Y343687D01*
X517300Y305700D02*
X518800D01*
Y304700D02*
Y305700D01*
X516800Y304700D02*
X518800D01*
X516800D02*
Y305700D01*
X517300D01*
X267000Y230513D02*
Y231013D01*
Y230513D02*
X268000D01*
Y232513D01*
X267000D02*
X268000D01*
X267000Y231013D02*
Y232513D01*
X397000Y341299D02*
X398500D01*
X397000D02*
Y342299D01*
X399000D01*
Y341299D02*
Y342299D01*
X398500Y341299D02*
X399000D01*
X156513Y337300D02*
X158013D01*
X156513D02*
Y338300D01*
X158513D01*
Y337300D02*
Y338300D01*
X158013Y337300D02*
X158513D01*
X104200Y335287D02*
Y335787D01*
Y335287D02*
X105200D01*
Y337287D01*
X104200D02*
X105200D01*
X104200Y335787D02*
Y337287D01*
X349313Y342100D02*
X350813D01*
X349313D02*
Y343100D01*
X351313D01*
Y342100D02*
Y343100D01*
X350813Y342100D02*
X351313D01*
X111213Y335400D02*
X111713D01*
Y336400D01*
X109713D02*
X111713D01*
X109713Y335400D02*
Y336400D01*
Y335400D02*
X111213D01*
X151800Y337213D02*
Y338713D01*
X152800D01*
Y336713D02*
Y338713D01*
X151800Y336713D02*
X152800D01*
X151800D02*
Y337213D01*
X297400Y343713D02*
Y345213D01*
X298400D01*
Y343213D02*
Y345213D01*
X297400Y343213D02*
X298400D01*
X297400D02*
Y343713D01*
X302313Y343300D02*
X303813D01*
X302313D02*
Y344300D01*
X304313D01*
Y343300D02*
Y344300D01*
X303813Y343300D02*
X304313D01*
X392700Y343713D02*
Y345213D01*
X393700D01*
Y343213D02*
Y345213D01*
X392700Y343213D02*
X393700D01*
X392700D02*
Y343713D01*
X344600D02*
Y345213D01*
X345600D01*
Y343213D02*
Y345213D01*
X344600Y343213D02*
X345600D01*
X344600D02*
Y343713D01*
X270600Y230913D02*
Y232413D01*
X271600D01*
Y230413D02*
Y232413D01*
X270600Y230413D02*
X271600D01*
X270600D02*
Y230913D01*
X379600Y246913D02*
Y247413D01*
X378600D02*
X379600D01*
X378600Y245413D02*
Y247413D01*
Y245413D02*
X379600D01*
Y246913D01*
X383313Y250900D02*
X384813D01*
Y249900D02*
Y250900D01*
X382813Y249900D02*
X384813D01*
X382813D02*
Y250900D01*
X383313D01*
X516800Y257700D02*
X517300D01*
X516800Y256700D02*
Y257700D01*
Y256700D02*
X518800D01*
Y257700D01*
X517300D02*
X518800D01*
D19*
X482400Y78400D02*
D03*
D20*
X500550Y33300D02*
D03*
D21*
X541250Y77550D02*
D03*
X531450D02*
D03*
X520050D02*
D03*
X508850D02*
D03*
M02*
