G04*
G04 #@! TF.GenerationSoftware,Altium Limited,Altium Designer,24.4.1 (13)*
G04*
G04 Layer_Color=16711935*
%FSLAX25Y25*%
%MOIN*%
G70*
G04*
G04 #@! TF.SameCoordinates,D772E85F-A2A7-474A-8196-155AA2CDE767*
G04*
G04*
G04 #@! TF.FilePolarity,Positive*
G04*
G01*
G75*
%ADD16C,0.00500*%
%ADD104C,0.00600*%
D16*
X164267Y400659D02*
X185133D01*
X164267Y389241D02*
Y400659D01*
Y389241D02*
X185133D01*
Y400659D01*
X580709Y415578D02*
Y436444D01*
X569291D02*
X580709D01*
X569291Y415578D02*
Y436444D01*
Y415578D02*
X580709D01*
X210767Y400659D02*
X231633D01*
X210767Y389241D02*
Y400659D01*
Y389241D02*
X231633D01*
Y400659D01*
X569291Y461578D02*
X580709D01*
X569291D02*
Y482444D01*
X580709D01*
Y461578D02*
Y482444D01*
X257867Y400659D02*
X278733D01*
X257867Y389241D02*
Y400659D01*
Y389241D02*
X278733D01*
Y400659D01*
X581409Y138078D02*
Y158944D01*
X569991D02*
X581409D01*
X569991Y138078D02*
Y158944D01*
Y138078D02*
X581409D01*
X331633Y389241D02*
Y400659D01*
X310767Y389241D02*
X331633D01*
X310767D02*
Y400659D01*
X331633D01*
X377033Y389241D02*
Y400659D01*
X356167Y389241D02*
X377033D01*
X356167D02*
Y400659D01*
X377033D01*
X581109Y181648D02*
Y202515D01*
X569691D02*
X581109D01*
X569691Y181648D02*
Y202515D01*
Y181648D02*
X581109D01*
X423633Y389241D02*
Y400659D01*
X402767Y389241D02*
X423633D01*
X402767D02*
Y400659D01*
X423633D01*
X581409Y225578D02*
Y246444D01*
X569991D02*
X581409D01*
X569991Y225578D02*
Y246444D01*
Y225578D02*
X581409D01*
X569991Y271078D02*
X581409D01*
X569991D02*
Y291944D01*
X581409D01*
Y271078D02*
Y291944D01*
X469104Y389241D02*
Y400659D01*
X448238Y389241D02*
X469104D01*
X448238D02*
Y400659D01*
X469104D01*
X569291Y320078D02*
X580709D01*
X569291D02*
Y340944D01*
X580709D01*
Y320078D02*
Y340944D01*
X138533Y389241D02*
Y400659D01*
X117667Y389241D02*
X138533D01*
X117667D02*
Y400659D01*
X138533D01*
X569291Y369078D02*
X580709D01*
X569291D02*
Y389944D01*
X580709D01*
Y369078D02*
Y389944D01*
X586130Y302196D02*
X664870D01*
Y262826D02*
Y302196D01*
X586130Y262826D02*
X664870D01*
X586130D02*
Y302196D01*
Y360826D02*
Y400196D01*
Y360826D02*
X664870D01*
Y400196D01*
X586130D02*
X664870D01*
X586130Y314326D02*
Y353696D01*
Y314326D02*
X664870D01*
Y353696D01*
X586130D02*
X664870D01*
X586130Y407326D02*
Y446696D01*
Y407326D02*
X664870D01*
Y446696D01*
X586130D02*
X664870D01*
X586130Y492696D02*
X664870D01*
Y453326D02*
Y492696D01*
X586130Y453326D02*
X664870D01*
X586130D02*
Y492696D01*
Y217826D02*
Y257196D01*
Y217826D02*
X664870D01*
Y257196D01*
X586130D02*
X664870D01*
X586130Y168196D02*
X664870D01*
Y128826D02*
Y168196D01*
X586130Y128826D02*
X664870D01*
X586130D02*
Y168196D01*
Y212696D02*
X664870D01*
Y173326D02*
Y212696D01*
X586130Y173326D02*
X664870D01*
X586130D02*
Y212696D01*
X108115Y406180D02*
X147485D01*
Y484920D01*
X108115D02*
X147485D01*
X108115Y406180D02*
Y484920D01*
X201215Y405080D02*
Y483820D01*
X240585D01*
Y405080D02*
Y483820D01*
X201215Y405080D02*
X240585D01*
X248915Y404780D02*
Y483520D01*
X288285D01*
Y404780D02*
Y483520D01*
X248915Y404780D02*
X288285D01*
X438615Y407380D02*
X477985D01*
Y486120D01*
X438615D02*
X477985D01*
X438615Y407380D02*
Y486120D01*
X154115Y405280D02*
Y484020D01*
X193485D01*
Y405280D02*
Y484020D01*
X154115Y405280D02*
X193485D01*
X392515Y406780D02*
X431885D01*
Y485520D01*
X392515D02*
X431885D01*
X392515Y406780D02*
Y485520D01*
X300115Y407780D02*
X339485D01*
Y486520D01*
X300115D02*
X339485D01*
X300115Y407780D02*
Y486520D01*
X346315Y406880D02*
X385685D01*
Y485620D01*
X346315D02*
X385685D01*
X346315Y406880D02*
Y485620D01*
D104*
X525360Y343600D02*
X536560D01*
Y348800D01*
X525360D02*
X536560D01*
X525360Y343600D02*
Y348800D01*
Y296300D02*
Y301500D01*
X536560D01*
Y296300D02*
Y301500D01*
X525360Y296300D02*
X536560D01*
X525360Y250700D02*
Y255900D01*
X536560D01*
Y250700D02*
Y255900D01*
X525360Y250700D02*
X536560D01*
X525360Y161300D02*
Y166500D01*
X536560D01*
Y161300D02*
Y166500D01*
X525360Y161300D02*
X536560D01*
X525360Y206700D02*
Y211900D01*
X536560D01*
Y206700D02*
Y211900D01*
X525360Y206700D02*
X536560D01*
X525360Y391763D02*
X536560D01*
Y396963D01*
X525360D02*
X536560D01*
X525360Y391763D02*
Y396963D01*
Y437963D02*
Y443163D01*
X536560D01*
Y437963D02*
Y443163D01*
X525360Y437963D02*
X536560D01*
X525360Y483800D02*
X536560D01*
Y489000D01*
X525360D02*
X536560D01*
X525360Y483800D02*
Y489000D01*
X252800Y348640D02*
Y359840D01*
X247600D02*
X252800D01*
X247600Y348640D02*
Y359840D01*
Y348640D02*
X252800D01*
X205400D02*
Y359840D01*
X200200D02*
X205400D01*
X200200Y348640D02*
Y359840D01*
Y348640D02*
X205400D01*
X439737D02*
X444937D01*
X439737D02*
Y359840D01*
X444937D01*
Y348640D02*
Y359840D01*
X156000Y344100D02*
Y355300D01*
X150800D02*
X156000D01*
X150800Y344100D02*
Y355300D01*
Y344100D02*
X156000D01*
X106200Y343100D02*
X111400D01*
X106200D02*
Y354300D01*
X111400D01*
Y343100D02*
Y354300D01*
X345800Y348640D02*
X351000D01*
X345800D02*
Y359840D01*
X351000D01*
Y348640D02*
Y359840D01*
X298000Y348640D02*
X303200D01*
X298000D02*
Y359840D01*
X303200D01*
Y348640D02*
Y359840D01*
X392600Y348640D02*
X397800D01*
X392600D02*
Y359840D01*
X397800D01*
Y348640D02*
Y359840D01*
M02*
