G04*
G04 #@! TF.GenerationSoftware,Altium Limited,Altium Designer,24.4.1 (13)*
G04*
G04 Layer_Color=255*
%FSLAX25Y25*%
%MOIN*%
G70*
G04*
G04 #@! TF.SameCoordinates,D772E85F-A2A7-474A-8196-155AA2CDE767*
G04*
G04*
G04 #@! TF.FilePolarity,Positive*
G04*
G01*
G75*
G04:AMPARAMS|DCode=22|XSize=87.01mil|YSize=60.24mil|CornerRadius=4.52mil|HoleSize=0mil|Usage=FLASHONLY|Rotation=180.000|XOffset=0mil|YOffset=0mil|HoleType=Round|Shape=RoundedRectangle|*
%AMROUNDEDRECTD22*
21,1,0.08701,0.05120,0,0,180.0*
21,1,0.07797,0.06024,0,0,180.0*
1,1,0.00904,-0.03899,0.02560*
1,1,0.00904,0.03899,0.02560*
1,1,0.00904,0.03899,-0.02560*
1,1,0.00904,-0.03899,-0.02560*
%
%ADD22ROUNDEDRECTD22*%
G04:AMPARAMS|DCode=23|XSize=87.01mil|YSize=60.24mil|CornerRadius=4.52mil|HoleSize=0mil|Usage=FLASHONLY|Rotation=90.000|XOffset=0mil|YOffset=0mil|HoleType=Round|Shape=RoundedRectangle|*
%AMROUNDEDRECTD23*
21,1,0.08701,0.05120,0,0,90.0*
21,1,0.07797,0.06024,0,0,90.0*
1,1,0.00904,0.02560,0.03899*
1,1,0.00904,0.02560,-0.03899*
1,1,0.00904,-0.02560,-0.03899*
1,1,0.00904,-0.02560,0.03899*
%
%ADD23ROUNDEDRECTD23*%
%ADD24R,0.00591X0.00984*%
%ADD25R,0.03150X0.03543*%
%ADD26R,0.00984X0.00591*%
%ADD27R,0.03543X0.03150*%
%ADD28R,0.04724X0.05512*%
%ADD29R,0.05512X0.04724*%
%ADD72C,0.10000*%
%ADD73R,0.07874X0.06299*%
%ADD74O,0.07874X0.06299*%
%ADD75R,0.09843X0.04724*%
%ADD76O,0.09843X0.04724*%
%ADD77R,0.06000X0.09000*%
%ADD78O,0.06000X0.09000*%
%ADD79C,0.07087*%
%ADD80R,0.07087X0.07087*%
%ADD81R,0.13780X0.13780*%
%ADD82C,0.08268*%
%ADD83R,0.09843X0.07874*%
%ADD84R,0.07874X0.09843*%
%ADD85O,0.07500X0.09000*%
%ADD86R,0.07500X0.09000*%
%ADD87C,0.05906*%
%ADD88R,0.05906X0.05906*%
%ADD89C,0.06299*%
%ADD90R,0.06299X0.06299*%
%ADD91C,0.09843*%
%ADD92R,0.09843X0.09843*%
%ADD93O,0.08661X0.06299*%
%ADD94R,0.10000X0.16000*%
%ADD95R,0.16000X0.10000*%
%ADD96O,0.09000X0.06000*%
%ADD97R,0.09000X0.06000*%
%ADD98O,0.06299X0.07874*%
%ADD99R,0.06299X0.07874*%
%ADD100R,0.09843X0.09843*%
D22*
X166629Y394950D02*
D03*
X182771D02*
D03*
X213129D02*
D03*
X229271D02*
D03*
X260229D02*
D03*
X276371D02*
D03*
X313129D02*
D03*
X329271D02*
D03*
X358529D02*
D03*
X374671D02*
D03*
X405129D02*
D03*
X421271D02*
D03*
X450600D02*
D03*
X466742D02*
D03*
X120029D02*
D03*
X136171D02*
D03*
D23*
X575000Y434082D02*
D03*
Y417940D02*
D03*
Y480082D02*
D03*
Y463940D02*
D03*
X575700Y156581D02*
D03*
Y140440D02*
D03*
X575400Y200152D02*
D03*
Y184011D02*
D03*
X575700Y244081D02*
D03*
Y227940D02*
D03*
Y289581D02*
D03*
Y273440D02*
D03*
X575000Y338581D02*
D03*
Y322440D02*
D03*
Y387581D02*
D03*
Y371440D02*
D03*
D24*
X518587Y260600D02*
D03*
X517013D02*
D03*
X519175Y301900D02*
D03*
X517600D02*
D03*
X518587Y211900D02*
D03*
X517013D02*
D03*
X518587Y165600D02*
D03*
X517013D02*
D03*
X518587Y395100D02*
D03*
X517013D02*
D03*
X518587Y446000D02*
D03*
X517013D02*
D03*
X518587Y398701D02*
D03*
X517013D02*
D03*
X518400Y442900D02*
D03*
X516825D02*
D03*
X518587Y351000D02*
D03*
X517013D02*
D03*
X518587Y347100D02*
D03*
X517013D02*
D03*
X518587Y168601D02*
D03*
X517013D02*
D03*
X518587Y215800D02*
D03*
X517013D02*
D03*
X518587Y488200D02*
D03*
X517013D02*
D03*
X518587Y484600D02*
D03*
X517013D02*
D03*
X444513Y341199D02*
D03*
X446088D02*
D03*
X206925Y343500D02*
D03*
X208500D02*
D03*
X251613Y342499D02*
D03*
X253188D02*
D03*
X518587Y305200D02*
D03*
X517013D02*
D03*
X397213Y341799D02*
D03*
X398788D02*
D03*
X156725Y337800D02*
D03*
X158300D02*
D03*
X349525Y342600D02*
D03*
X351100D02*
D03*
X109925Y335900D02*
D03*
X111500D02*
D03*
X302525Y343800D02*
D03*
X304100D02*
D03*
X384600Y250400D02*
D03*
X383025D02*
D03*
X518587Y257200D02*
D03*
X517013D02*
D03*
D25*
X530960Y341869D02*
D03*
X527220Y350137D02*
D03*
X534700D02*
D03*
X530960Y294569D02*
D03*
X527220Y302837D02*
D03*
X534700D02*
D03*
X530960Y248969D02*
D03*
X527220Y257237D02*
D03*
X534700D02*
D03*
X530960Y159569D02*
D03*
X527220Y167837D02*
D03*
X534700D02*
D03*
X530960Y204969D02*
D03*
X527220Y213237D02*
D03*
X534700D02*
D03*
X530960Y390032D02*
D03*
X527220Y398300D02*
D03*
X534700D02*
D03*
X530960Y436232D02*
D03*
X527220Y444500D02*
D03*
X534700D02*
D03*
X530960Y482069D02*
D03*
X527220Y490337D02*
D03*
X534700D02*
D03*
D26*
X440100Y345000D02*
D03*
Y343425D02*
D03*
X201700Y344900D02*
D03*
Y343325D02*
D03*
X245900Y344975D02*
D03*
Y343400D02*
D03*
X267500Y232300D02*
D03*
Y230725D02*
D03*
X104700Y337075D02*
D03*
Y335500D02*
D03*
X152300Y338500D02*
D03*
Y336925D02*
D03*
X297900Y345000D02*
D03*
Y343425D02*
D03*
X393200Y345000D02*
D03*
Y343425D02*
D03*
X345100Y345000D02*
D03*
Y343425D02*
D03*
X271100Y230625D02*
D03*
Y232200D02*
D03*
X379100Y245625D02*
D03*
Y247200D02*
D03*
D27*
X254531Y354240D02*
D03*
X246263Y350500D02*
D03*
Y357980D02*
D03*
X207131Y354240D02*
D03*
X198863Y350500D02*
D03*
Y357980D02*
D03*
X446668Y354240D02*
D03*
X438400Y350500D02*
D03*
Y357980D02*
D03*
X157731Y349700D02*
D03*
X149463Y345960D02*
D03*
Y353440D02*
D03*
X113131Y348700D02*
D03*
X104863Y344960D02*
D03*
Y352440D02*
D03*
X352731Y354240D02*
D03*
X344463Y350500D02*
D03*
Y357980D02*
D03*
X304931Y354240D02*
D03*
X296663Y350500D02*
D03*
Y357980D02*
D03*
X399531Y354240D02*
D03*
X391263Y350500D02*
D03*
Y357980D02*
D03*
D28*
X267500Y222600D02*
D03*
X274980D02*
D03*
D29*
X382300Y256420D02*
D03*
Y263900D02*
D03*
D72*
X673200Y498500D02*
D03*
X98300Y479000D02*
D03*
X560300Y109700D02*
D03*
D73*
X556000Y480511D02*
D03*
X556700Y284011D02*
D03*
X556000Y430011D02*
D03*
Y384600D02*
D03*
Y332011D02*
D03*
X556400Y196011D02*
D03*
X556700Y150511D02*
D03*
Y242011D02*
D03*
D74*
X556000Y470511D02*
D03*
X556700Y274011D02*
D03*
X556000Y420011D02*
D03*
Y374600D02*
D03*
Y322011D02*
D03*
X556400Y186011D02*
D03*
X556700Y140511D02*
D03*
Y232011D02*
D03*
D75*
X206200Y178300D02*
D03*
D76*
Y168300D02*
D03*
Y158300D02*
D03*
Y148300D02*
D03*
Y138300D02*
D03*
Y128300D02*
D03*
Y118300D02*
D03*
Y108300D02*
D03*
Y98300D02*
D03*
Y88300D02*
D03*
Y78300D02*
D03*
Y68300D02*
D03*
Y58300D02*
D03*
Y48300D02*
D03*
Y38300D02*
D03*
X306200Y178300D02*
D03*
Y168300D02*
D03*
Y158300D02*
D03*
Y148300D02*
D03*
Y138300D02*
D03*
Y128300D02*
D03*
Y118300D02*
D03*
Y108300D02*
D03*
Y98300D02*
D03*
Y88300D02*
D03*
Y78300D02*
D03*
Y68300D02*
D03*
Y58300D02*
D03*
Y48300D02*
D03*
Y38300D02*
D03*
D77*
X468400Y282650D02*
D03*
X182500Y355850D02*
D03*
X135300D02*
D03*
X468700D02*
D03*
X277600D02*
D03*
X230000D02*
D03*
X421100D02*
D03*
X374538D02*
D03*
X331000D02*
D03*
D78*
X458400Y282650D02*
D03*
X448400D02*
D03*
X438400D02*
D03*
X428400D02*
D03*
X418400D02*
D03*
X408400D02*
D03*
X398400D02*
D03*
Y252650D02*
D03*
X408400D02*
D03*
X418400D02*
D03*
X428400D02*
D03*
X448400D02*
D03*
X458400D02*
D03*
X468400D02*
D03*
X438400D02*
D03*
X182500Y325850D02*
D03*
X172500D02*
D03*
Y355850D02*
D03*
X135300Y325850D02*
D03*
X125300D02*
D03*
Y355850D02*
D03*
X468700Y325850D02*
D03*
X458700D02*
D03*
Y355850D02*
D03*
X277600Y325850D02*
D03*
X267600D02*
D03*
Y355850D02*
D03*
X230000Y325850D02*
D03*
X220000D02*
D03*
Y355850D02*
D03*
X421100Y325850D02*
D03*
X411100D02*
D03*
Y355850D02*
D03*
X374538Y325850D02*
D03*
X364538D02*
D03*
Y355850D02*
D03*
X331000Y325850D02*
D03*
X321000D02*
D03*
Y355850D02*
D03*
D79*
X364600Y212400D02*
D03*
X354600D02*
D03*
X344600D02*
D03*
X334600D02*
D03*
X344600Y202400D02*
D03*
X354600D02*
D03*
X364600D02*
D03*
X374600D02*
D03*
X334600D02*
D03*
D80*
X374600Y212400D02*
D03*
D81*
X12700Y281650D02*
D03*
X83200D02*
D03*
Y119650D02*
D03*
X12700Y120150D02*
D03*
D82*
X660500Y267511D02*
D03*
X630500D02*
D03*
X590500Y297511D02*
D03*
Y267511D02*
D03*
X660500Y365511D02*
D03*
X630500D02*
D03*
X590500Y395511D02*
D03*
Y365511D02*
D03*
X660500Y319011D02*
D03*
X630500D02*
D03*
X590500Y349011D02*
D03*
Y319011D02*
D03*
X660500Y412011D02*
D03*
X630500D02*
D03*
X590500Y442011D02*
D03*
Y412011D02*
D03*
X660500Y458011D02*
D03*
X630500D02*
D03*
X590500Y488011D02*
D03*
Y458011D02*
D03*
X660500Y222511D02*
D03*
X630500D02*
D03*
X590500Y252511D02*
D03*
Y222511D02*
D03*
X660500Y133511D02*
D03*
X630500D02*
D03*
X590500Y163511D02*
D03*
Y133511D02*
D03*
X660500Y178011D02*
D03*
X630500D02*
D03*
X590500Y208011D02*
D03*
Y178011D02*
D03*
X142800Y480550D02*
D03*
Y450550D02*
D03*
X112800Y410550D02*
D03*
X142800D02*
D03*
X235900Y479450D02*
D03*
Y449450D02*
D03*
X205900Y409450D02*
D03*
X235900D02*
D03*
X283600Y479150D02*
D03*
Y449150D02*
D03*
X253600Y409150D02*
D03*
X283600D02*
D03*
X473300Y481750D02*
D03*
Y451750D02*
D03*
X443300Y411750D02*
D03*
X473300D02*
D03*
X188800Y479650D02*
D03*
Y449650D02*
D03*
X158800Y409650D02*
D03*
X188800D02*
D03*
X427200Y481150D02*
D03*
Y451150D02*
D03*
X397200Y411150D02*
D03*
X427200D02*
D03*
X334800Y482150D02*
D03*
Y452150D02*
D03*
X304800Y412150D02*
D03*
X334800D02*
D03*
X381000Y481250D02*
D03*
Y451250D02*
D03*
X351000Y411250D02*
D03*
X381000D02*
D03*
D83*
X681400Y146250D02*
D03*
Y166250D02*
D03*
Y186250D02*
D03*
Y206250D02*
D03*
Y226250D02*
D03*
Y246250D02*
D03*
Y266250D02*
D03*
Y286250D02*
D03*
Y329700D02*
D03*
Y349700D02*
D03*
Y369700D02*
D03*
Y389700D02*
D03*
Y409700D02*
D03*
Y429700D02*
D03*
Y449700D02*
D03*
Y469700D02*
D03*
D84*
X267800Y498900D02*
D03*
X247800D02*
D03*
X227800D02*
D03*
X207800D02*
D03*
X187800D02*
D03*
X167800D02*
D03*
X147800D02*
D03*
X127800D02*
D03*
X459800D02*
D03*
X439800D02*
D03*
X419800D02*
D03*
X399800D02*
D03*
X379800D02*
D03*
X359800D02*
D03*
X339800D02*
D03*
X319800D02*
D03*
D85*
X167800Y27600D02*
D03*
X157800D02*
D03*
D86*
X147300D02*
D03*
D87*
X457200Y49200D02*
D03*
Y59200D02*
D03*
X543700Y9200D02*
D03*
Y19200D02*
D03*
Y29200D02*
D03*
Y39200D02*
D03*
Y49200D02*
D03*
X457200Y19200D02*
D03*
Y29200D02*
D03*
Y39200D02*
D03*
D88*
Y69200D02*
D03*
X543700Y59200D02*
D03*
D89*
X72800Y15700D02*
D03*
Y25700D02*
D03*
Y35700D02*
D03*
X108900Y16000D02*
D03*
Y26000D02*
D03*
Y36000D02*
D03*
D90*
X72800Y45700D02*
D03*
X108900Y46000D02*
D03*
D91*
X175386Y78500D02*
D03*
X159795D02*
D03*
X149200Y131800D02*
D03*
Y147391D02*
D03*
Y194162D02*
D03*
Y178572D02*
D03*
Y162981D02*
D03*
Y116209D02*
D03*
D92*
X144205Y78500D02*
D03*
D93*
X20700Y97400D02*
D03*
X60700D02*
D03*
X21200Y77500D02*
D03*
X61200D02*
D03*
D94*
X38200Y45000D02*
D03*
D95*
X18200Y30000D02*
D03*
Y55000D02*
D03*
D96*
X501000Y138011D02*
D03*
Y148011D02*
D03*
X531000D02*
D03*
X501000Y185011D02*
D03*
Y195011D02*
D03*
X531000D02*
D03*
X501000Y229511D02*
D03*
Y239511D02*
D03*
X531000D02*
D03*
X280500Y263800D02*
D03*
Y233800D02*
D03*
Y243800D02*
D03*
Y253800D02*
D03*
Y273800D02*
D03*
Y283800D02*
D03*
Y293800D02*
D03*
Y303800D02*
D03*
X310500D02*
D03*
Y293800D02*
D03*
Y283800D02*
D03*
Y273800D02*
D03*
Y263800D02*
D03*
Y253800D02*
D03*
Y243800D02*
D03*
X501000Y273511D02*
D03*
Y283511D02*
D03*
X531000D02*
D03*
X501000Y321811D02*
D03*
Y331811D02*
D03*
X531000D02*
D03*
X501000Y414411D02*
D03*
Y424411D02*
D03*
X531000D02*
D03*
X501000Y370011D02*
D03*
Y380011D02*
D03*
X531000D02*
D03*
X501000Y462011D02*
D03*
Y472011D02*
D03*
X531000D02*
D03*
D97*
Y138011D02*
D03*
Y185011D02*
D03*
Y229511D02*
D03*
X310500Y233800D02*
D03*
X531000Y273511D02*
D03*
Y321811D02*
D03*
Y414411D02*
D03*
Y370011D02*
D03*
Y462011D02*
D03*
D98*
X132800Y377100D02*
D03*
X228700Y376000D02*
D03*
X273000Y377150D02*
D03*
X327000Y377200D02*
D03*
X466800Y377100D02*
D03*
X419000Y377200D02*
D03*
X373600Y377150D02*
D03*
X180700Y377000D02*
D03*
D99*
X122800Y377100D02*
D03*
X218700Y376000D02*
D03*
X263000Y377150D02*
D03*
X317000Y377200D02*
D03*
X456800Y377100D02*
D03*
X409000Y377200D02*
D03*
X363600Y377150D02*
D03*
X170700Y377000D02*
D03*
D100*
X149200Y209753D02*
D03*
M02*
