G04*
G04 #@! TF.GenerationSoftware,Altium Limited,Altium Designer,24.4.1 (13)*
G04*
G04 Layer_Color=8421504*
%FSLAX25Y25*%
%MOIN*%
G70*
G04*
G04 #@! TF.SameCoordinates,D772E85F-A2A7-474A-8196-155AA2CDE767*
G04*
G04*
G04 #@! TF.FilePolarity,Positive*
G04*
G01*
G75*
G04:AMPARAMS|DCode=22|XSize=87.01mil|YSize=60.24mil|CornerRadius=4.52mil|HoleSize=0mil|Usage=FLASHONLY|Rotation=180.000|XOffset=0mil|YOffset=0mil|HoleType=Round|Shape=RoundedRectangle|*
%AMROUNDEDRECTD22*
21,1,0.08701,0.05120,0,0,180.0*
21,1,0.07797,0.06024,0,0,180.0*
1,1,0.00904,-0.03899,0.02560*
1,1,0.00904,0.03899,0.02560*
1,1,0.00904,0.03899,-0.02560*
1,1,0.00904,-0.03899,-0.02560*
%
%ADD22ROUNDEDRECTD22*%
G04:AMPARAMS|DCode=23|XSize=87.01mil|YSize=60.24mil|CornerRadius=4.52mil|HoleSize=0mil|Usage=FLASHONLY|Rotation=90.000|XOffset=0mil|YOffset=0mil|HoleType=Round|Shape=RoundedRectangle|*
%AMROUNDEDRECTD23*
21,1,0.08701,0.05120,0,0,90.0*
21,1,0.07797,0.06024,0,0,90.0*
1,1,0.00904,0.02560,0.03899*
1,1,0.00904,0.02560,-0.03899*
1,1,0.00904,-0.02560,-0.03899*
1,1,0.00904,-0.02560,0.03899*
%
%ADD23ROUNDEDRECTD23*%
%ADD24R,0.00591X0.00984*%
%ADD25R,0.03150X0.03543*%
%ADD26R,0.00984X0.00591*%
%ADD27R,0.03543X0.03150*%
%ADD28R,0.04724X0.05512*%
%ADD29R,0.05512X0.04724*%
D22*
X166629Y394950D02*
D03*
X182771D02*
D03*
X213129D02*
D03*
X229271D02*
D03*
X260229D02*
D03*
X276371D02*
D03*
X313129D02*
D03*
X329271D02*
D03*
X358529D02*
D03*
X374671D02*
D03*
X405129D02*
D03*
X421271D02*
D03*
X450600D02*
D03*
X466742D02*
D03*
X120029D02*
D03*
X136171D02*
D03*
D23*
X575000Y434082D02*
D03*
Y417940D02*
D03*
Y480082D02*
D03*
Y463940D02*
D03*
X575700Y156581D02*
D03*
Y140440D02*
D03*
X575400Y200152D02*
D03*
Y184011D02*
D03*
X575700Y244081D02*
D03*
Y227940D02*
D03*
Y289581D02*
D03*
Y273440D02*
D03*
X575000Y338581D02*
D03*
Y322440D02*
D03*
Y387581D02*
D03*
Y371440D02*
D03*
D24*
X518587Y260600D02*
D03*
X517013D02*
D03*
X519175Y301900D02*
D03*
X517600D02*
D03*
X518587Y211900D02*
D03*
X517013D02*
D03*
X518587Y165600D02*
D03*
X517013D02*
D03*
X518587Y395100D02*
D03*
X517013D02*
D03*
X518587Y446000D02*
D03*
X517013D02*
D03*
X518587Y398701D02*
D03*
X517013D02*
D03*
X518400Y442900D02*
D03*
X516825D02*
D03*
X518587Y351000D02*
D03*
X517013D02*
D03*
X518587Y347100D02*
D03*
X517013D02*
D03*
X518587Y168601D02*
D03*
X517013D02*
D03*
X518587Y215800D02*
D03*
X517013D02*
D03*
X518587Y488200D02*
D03*
X517013D02*
D03*
X518587Y484600D02*
D03*
X517013D02*
D03*
X444513Y341199D02*
D03*
X446088D02*
D03*
X206925Y343500D02*
D03*
X208500D02*
D03*
X251613Y342499D02*
D03*
X253188D02*
D03*
X518587Y305200D02*
D03*
X517013D02*
D03*
X397213Y341799D02*
D03*
X398788D02*
D03*
X156725Y337800D02*
D03*
X158300D02*
D03*
X349525Y342600D02*
D03*
X351100D02*
D03*
X109925Y335900D02*
D03*
X111500D02*
D03*
X302525Y343800D02*
D03*
X304100D02*
D03*
X384600Y250400D02*
D03*
X383025D02*
D03*
X518587Y257200D02*
D03*
X517013D02*
D03*
D25*
X530960Y341869D02*
D03*
X527220Y350137D02*
D03*
X534700D02*
D03*
X530960Y294569D02*
D03*
X527220Y302837D02*
D03*
X534700D02*
D03*
X530960Y248969D02*
D03*
X527220Y257237D02*
D03*
X534700D02*
D03*
X530960Y159569D02*
D03*
X527220Y167837D02*
D03*
X534700D02*
D03*
X530960Y204969D02*
D03*
X527220Y213237D02*
D03*
X534700D02*
D03*
X530960Y390032D02*
D03*
X527220Y398300D02*
D03*
X534700D02*
D03*
X530960Y436232D02*
D03*
X527220Y444500D02*
D03*
X534700D02*
D03*
X530960Y482069D02*
D03*
X527220Y490337D02*
D03*
X534700D02*
D03*
D26*
X440100Y345000D02*
D03*
Y343425D02*
D03*
X201700Y344900D02*
D03*
Y343325D02*
D03*
X245900Y344975D02*
D03*
Y343400D02*
D03*
X267500Y232300D02*
D03*
Y230725D02*
D03*
X104700Y337075D02*
D03*
Y335500D02*
D03*
X152300Y338500D02*
D03*
Y336925D02*
D03*
X297900Y345000D02*
D03*
Y343425D02*
D03*
X393200Y345000D02*
D03*
Y343425D02*
D03*
X345100Y345000D02*
D03*
Y343425D02*
D03*
X271100Y230625D02*
D03*
Y232200D02*
D03*
X379100Y245625D02*
D03*
Y247200D02*
D03*
D27*
X254531Y354240D02*
D03*
X246263Y350500D02*
D03*
Y357980D02*
D03*
X207131Y354240D02*
D03*
X198863Y350500D02*
D03*
Y357980D02*
D03*
X446668Y354240D02*
D03*
X438400Y350500D02*
D03*
Y357980D02*
D03*
X157731Y349700D02*
D03*
X149463Y345960D02*
D03*
Y353440D02*
D03*
X113131Y348700D02*
D03*
X104863Y344960D02*
D03*
Y352440D02*
D03*
X352731Y354240D02*
D03*
X344463Y350500D02*
D03*
Y357980D02*
D03*
X304931Y354240D02*
D03*
X296663Y350500D02*
D03*
Y357980D02*
D03*
X399531Y354240D02*
D03*
X391263Y350500D02*
D03*
Y357980D02*
D03*
D28*
X267500Y222600D02*
D03*
X274980D02*
D03*
D29*
X382300Y256420D02*
D03*
Y263900D02*
D03*
M02*
