G04*
G04 #@! TF.GenerationSoftware,Altium Limited,Altium Designer,24.4.1 (13)*
G04*
G04 Layer_Color=32768*
%FSLAX25Y25*%
%MOIN*%
G70*
G04*
G04 #@! TF.SameCoordinates,D772E85F-A2A7-474A-8196-155AA2CDE767*
G04*
G04*
G04 #@! TF.FilePolarity,Positive*
G04*
G01*
G75*
%ADD105C,0.00197*%
D105*
X188479Y387863D02*
Y402037D01*
X160921D02*
X188479D01*
X160921Y387863D02*
Y402037D01*
Y387863D02*
X188479D01*
X567913Y412231D02*
X582087D01*
Y439790D01*
X567913D02*
X582087D01*
X567913Y412231D02*
Y439790D01*
X234980Y387863D02*
Y402037D01*
X207420D02*
X234980D01*
X207420Y387863D02*
Y402037D01*
Y387863D02*
X234980D01*
X567913Y458231D02*
Y485790D01*
X582087D01*
Y458231D02*
Y485790D01*
X567913Y458231D02*
X582087D01*
X282080Y387863D02*
Y402037D01*
X254521D02*
X282080D01*
X254521Y387863D02*
Y402037D01*
Y387863D02*
X282080D01*
X568613Y134731D02*
X582787D01*
Y162290D01*
X568613D02*
X582787D01*
X568613Y134731D02*
Y162290D01*
X307420Y387863D02*
X334980D01*
X307420D02*
Y402037D01*
X334980D01*
Y387863D02*
Y402037D01*
X352820Y387863D02*
X380380D01*
X352820D02*
Y402037D01*
X380380D01*
Y387863D02*
Y402037D01*
X568313Y178302D02*
X582487D01*
Y205861D01*
X568313D02*
X582487D01*
X568313Y178302D02*
Y205861D01*
X399420Y387863D02*
X426979D01*
X399420D02*
Y402037D01*
X426979D01*
Y387863D02*
Y402037D01*
X568613Y222231D02*
X582787D01*
Y249790D01*
X568613D02*
X582787D01*
X568613Y222231D02*
Y249790D01*
Y267731D02*
Y295290D01*
X582787D01*
Y267731D02*
Y295290D01*
X568613Y267731D02*
X582787D01*
X444891Y387863D02*
X472450D01*
X444891D02*
Y402037D01*
X472450D01*
Y387863D02*
Y402037D01*
X567913Y316731D02*
Y344290D01*
X582087D01*
Y316731D02*
Y344290D01*
X567913Y316731D02*
X582087D01*
X114321Y387863D02*
X141879D01*
X114321D02*
Y402037D01*
X141879D01*
Y387863D02*
Y402037D01*
X567913Y365731D02*
Y393290D01*
X582087D01*
Y365731D02*
Y393290D01*
X567913Y365731D02*
X582087D01*
X585146Y303180D02*
X665854D01*
Y261841D02*
Y303180D01*
X585146Y261841D02*
X665854D01*
X585146D02*
Y303180D01*
Y359841D02*
Y401180D01*
Y359841D02*
X665854D01*
Y401180D01*
X585146D02*
X665854D01*
X585146Y313341D02*
Y354680D01*
Y313341D02*
X665854D01*
Y354680D01*
X585146D02*
X665854D01*
X585146Y406341D02*
Y447680D01*
Y406341D02*
X665854D01*
Y447680D01*
X585146D02*
X665854D01*
X585146Y493680D02*
X665854D01*
Y452341D02*
Y493680D01*
X585146Y452341D02*
X665854D01*
X585146D02*
Y493680D01*
Y216841D02*
Y258180D01*
Y216841D02*
X665854D01*
Y258180D01*
X585146D02*
X665854D01*
X585146Y169180D02*
X665854D01*
Y127841D02*
Y169180D01*
X585146Y127841D02*
X665854D01*
X585146D02*
Y169180D01*
Y213680D02*
X665854D01*
Y172341D02*
Y213680D01*
X585146Y172341D02*
X665854D01*
X585146D02*
Y213680D01*
X107131Y405196D02*
X148469D01*
Y485904D01*
X107131D02*
X148469D01*
X107131Y405196D02*
Y485904D01*
X200231Y404096D02*
Y484804D01*
X241569D01*
Y404096D02*
Y484804D01*
X200231Y404096D02*
X241569D01*
X247931Y403796D02*
Y484504D01*
X289269D01*
Y403796D02*
Y484504D01*
X247931Y403796D02*
X289269D01*
X437631Y406396D02*
X478969D01*
Y487104D01*
X437631D02*
X478969D01*
X437631Y406396D02*
Y487104D01*
X153131Y404296D02*
Y485004D01*
X194469D01*
Y404296D02*
Y485004D01*
X153131Y404296D02*
X194469D01*
X391531Y405796D02*
X432869D01*
Y486504D01*
X391531D02*
X432869D01*
X391531Y405796D02*
Y486504D01*
X299131Y406796D02*
X340469D01*
Y487504D01*
X299131D02*
X340469D01*
X299131Y406796D02*
Y487504D01*
X345331Y405896D02*
X386669D01*
Y486604D01*
X345331D02*
X386669D01*
X345331Y405896D02*
Y486604D01*
M02*
